<?xml version="1.0" encoding="utf-8"?>
<!-- Generator: Adobe Illustrator 23.0.1, SVG Export Plug-In . SVG Version: 6.00 Build 0)  -->
<svg version="1.1" id="Слой_1" xmlns="http://www.w3.org/2000/svg" xmlns:xlink="http://www.w3.org/1999/xlink" x="0px" y="0px"
	 viewBox="0 0 425.2 425.2" style="enable-background:new 0 0 425.2 425.2;" xml:space="preserve">
<style type="text/css">
	.st0{fill:#3C3C3C;}
	.st1{opacity:0.7;fill:url(#SVGID_1_);}
	.st2{fill:#201600;}
	.st3{fill:#FFFFFF;}
</style>
<g>
	<circle class="st0" cx="177.61" cy="213.6" r="127.66"/>
	<linearGradient id="SVGID_1_" gradientUnits="userSpaceOnUse" x1="79.8172" y1="131.5385" x2="275.4077" y2="295.6584">
		<stop  offset="2.045871e-06" style="stop-color:#69AFE5"/>
		<stop  offset="0.824" style="stop-color:#6085C3;stop-opacity:0.2708"/>
	</linearGradient>
	<circle class="st1" cx="177.61" cy="213.6" r="127.66"/>
	<g>
		<g>
			<g>
				<path class="st2" d="M195.44,223.78c21.69-7.84,34.62-19.11,38.79-33.83c-14.79,0-22.19,0-36.98,0c0-2.8,0-4.2,0-7.01
					c15.32,0,22.97,0,38.29,0c0.12-1.32,0.18-7.19,0.18-17.61c-13.25,0-19.87,0-33.12,0c0-2.8,0-4.2,0-7.01c8.71,0,13.07,0,21.78,0
					c-5.2-5.81-9.65-10.48-13.34-14.01c2.11-1.92,3.16-2.88,5.26-4.79c5.2,4.73,9.95,9.25,14.24,13.55
					c-2.32,2.1-3.48,3.15-5.81,5.25c8.66,0,12.98,0,21.64,0c4.69-6.73,8.82-13.03,12.39-18.9c3.01,1.7,4.52,2.54,7.53,4.24
					c-4.17,5.41-8.02,10.29-11.52,14.66c9.18,0,13.77,0,22.95,0c0,2.8,0,4.2,0,7.01c-13.72,0-20.58,0-34.3,0
					c0,9.03-0.05,14.9-0.14,17.61c15.92,0,23.87,0,39.79,0c0,2.8,0,4.2,0,7.01c-15.41,0-23.11,0-38.52,0
					c7.11,15.46,20.49,26.06,40.15,31.8c-2.48,2.58-4.72,5.07-6.71,7.47c-18.63-7.38-31.29-18.47-37.97-33.28
					c-4.93,14.38-18.04,25.87-39.33,34.48C199.13,228.32,197.37,226.11,195.44,223.78z"/>
			</g>
			<g>
				<path class="st2" d="M310.86,202.76l5.9,4.7c-7.74,7.07-15.88,13.89-24.41,20.47c-1.45-1.78-3.12-3.66-4.99-5.62
					C295.22,216.83,303.05,210.32,310.86,202.76z M351.69,177.41c7.74,6.33,15.67,13.28,23.77,20.83c-2,1.97-3.84,3.84-5.53,5.62
					c-2.51-2.52-5.05-5.01-7.62-7.47c-8.07,0.34-16.33,0.74-24.77,1.2v20.74c0,7.01-3.63,10.51-10.89,10.51
					c-2.96,0-6.87-0.06-11.7-0.18c-0.3-2.27-0.7-4.79-1.18-7.56c5.08,0.55,8.98,0.83,11.7,0.83c3.33,0,4.99-1.66,4.99-4.98v-18.99
					c-7.35,0.4-14.82,0.83-22.41,1.29c-3.45,0.18-6.87,0.58-10.25,1.2l-2.99-7.93c3.99-0.74,7.77-1.94,11.34-3.6
					c9.25-4.61,17.84-9.25,25.77-13.92c-10.52,0.83-19.36,1.57-26.49,2.21c-3.15,0.31-5.53,0.65-7.17,1.01l-2.9-7.74
					c2.9-0.74,5.63-1.81,8.17-3.23c7.59-4.3,15.2-9.39,22.82-15.26c-10.37,0.65-20.88,1.21-31.53,1.71
					c-0.42-2.15-0.97-4.3-1.63-6.45c28.85-1.11,54.47-2.8,76.85-5.07l1.36,6.55c-13.13,1.11-26.45,2.1-39.97,3l3.68,2.63
					c-9.5,6.45-18.27,11.89-26.31,16.32c13.55-0.77,24.77-1.51,33.66-2.21c6.05-3.93,11.64-7.9,16.79-11.89l5.9,4.89
					c-15.18,11-32.82,21.3-52.9,30.88c12.04-0.43,26.63-1.08,43.78-1.94c-3.03-2.83-6.06-5.59-9.12-8.3L351.69,177.41z
					 M346.33,207.64l4.63-4.98c7.62,5.16,16,11.34,25.13,18.53l-5.35,5.99C362.27,220.06,354.13,213.54,346.33,207.64z"/>
			</g>
		</g>
		<g>
			<rect x="193.14" y="243.22" class="st2" width="185.25" height="2"/>
		</g>
		<g>
			<path class="st2" d="M210.14,263.72v6.54h-1.02l-0.41-1.54c-0.98,1.23-2.29,1.84-3.93,1.84c-1.73,0-3.13-0.59-4.19-1.76
				c-1.06-1.17-1.6-2.71-1.6-4.6c0-1.89,0.53-3.45,1.58-4.68c1.05-1.24,2.5-1.86,4.33-1.86c0.84,0,1.63,0.15,2.36,0.44
				c0.73,0.29,1.35,0.76,1.86,1.39c0.51,0.63,0.8,1.37,0.87,2.23h-1.57c-0.13-0.81-0.51-1.46-1.15-1.95
				c-0.64-0.49-1.43-0.74-2.36-0.74c-1.32,0-2.37,0.46-3.14,1.38c-0.77,0.92-1.16,2.17-1.16,3.74c0,1.55,0.39,2.78,1.16,3.69
				c0.77,0.91,1.82,1.37,3.12,1.37c1.23,0,2.17-0.38,2.81-1.14c0.64-0.76,0.98-1.76,1.02-3.01h-3.89v-1.34H210.14z"/>
			<path class="st2" d="M233.98,257.9h1.62v7.79c0,1.2,0.26,2.08,0.77,2.64c0.51,0.56,1.35,0.83,2.51,0.83
				c1.2,0,2.04-0.28,2.54-0.85c0.5-0.57,0.74-1.44,0.74-2.62v-7.79h1.62v7.35c0,1.8-0.37,3.13-1.11,3.98
				c-0.74,0.85-2,1.28-3.79,1.28c-1.73,0-2.98-0.41-3.75-1.24c-0.77-0.83-1.15-2.11-1.15-3.84V257.9z"/>
			<path class="st2" d="M273,257.9l4.75,12.35h-1.79l-1.35-3.78h-5.11l-1.38,3.78h-1.71l4.78-12.35H273z M274.13,265.17l-2.07-5.71
				l-2.1,5.71H274.13z"/>
			<path class="st2" d="M300.41,257.9h1.76l6.42,10.03V257.9h1.55v12.35h-1.81l-6.39-9.91v9.91h-1.54V257.9z"/>
			<path class="st2" d="M343.12,257.9l-4.05,5.98l4.27,6.37h-1.95l-3.28-5.08l-3.4,5.08h-1.84l4.29-6.37l-4.01-5.98h1.93l3.06,4.75
				l3.16-4.75H343.12z"/>
			<path class="st2" d="M367.93,257.9v12.35h-1.6V257.9H367.93z"/>
			<path class="st2" d="M205.49,275.13l4.75,12.35h-1.79l-1.35-3.78h-5.1l-1.38,3.78h-1.71l4.78-12.35H205.49z M206.62,282.4
				l-2.07-5.71l-2.1,5.71H206.62z"/>
			<path class="st2" d="M244.45,280.94v6.54h-1.02l-0.41-1.54c-0.98,1.23-2.29,1.84-3.93,1.84c-1.73,0-3.13-0.59-4.19-1.76
				c-1.06-1.17-1.6-2.71-1.6-4.61c0-1.89,0.53-3.45,1.58-4.68c1.05-1.24,2.5-1.86,4.33-1.86c0.84,0,1.63,0.15,2.36,0.44
				c0.73,0.3,1.35,0.76,1.86,1.39c0.51,0.63,0.8,1.37,0.87,2.23h-1.57c-0.13-0.81-0.51-1.46-1.15-1.95
				c-0.64-0.49-1.43-0.74-2.36-0.74c-1.32,0-2.37,0.46-3.14,1.38c-0.77,0.92-1.16,2.17-1.16,3.74c0,1.55,0.39,2.78,1.16,3.69
				c0.77,0.91,1.82,1.37,3.12,1.37c1.23,0,2.17-0.38,2.81-1.14c0.64-0.76,0.98-1.76,1.02-3.01h-3.89v-1.34H244.45z"/>
			<path class="st2" d="M276.25,275.13v1.42h-6.81v3.87h6.37v1.37h-6.37v4.27h6.9v1.42h-8.5v-12.35H276.25z"/>
			<path class="st2" d="M300.41,275.13h1.76l6.42,10.03v-10.03h1.55v12.35h-1.81l-6.39-9.9v9.9h-1.54V275.13z"/>
			<path class="st2" d="M343.56,282.81c-0.14,1.56-0.67,2.78-1.6,3.65c-0.93,0.87-2.15,1.31-3.66,1.31c-1.73,0-3.1-0.58-4.11-1.74
				c-1.01-1.16-1.52-2.73-1.52-4.71c0-1.85,0.51-3.39,1.53-4.62c1.02-1.23,2.43-1.85,4.23-1.85c1.29,0,2.42,0.35,3.4,1.06
				c0.98,0.71,1.53,1.68,1.64,2.93h-1.6c-0.18-0.81-0.58-1.44-1.2-1.9c-0.61-0.46-1.37-0.69-2.27-0.69c-1.35,0-2.38,0.49-3.06,1.46
				c-0.69,0.97-1.03,2.17-1.03,3.59c0,1.57,0.36,2.81,1.09,3.71c0.73,0.9,1.72,1.35,2.99,1.35c1.04,0,1.86-0.3,2.48-0.91
				c0.61-0.61,0.98-1.49,1.11-2.65H343.56z"/>
			<path class="st2" d="M372.63,275.13l-4.7,7.3v5.05h-1.59v-5.05l-4.73-7.3h1.93l3.64,5.88l3.6-5.88H372.63z"/>
		</g>
	</g>
</g>
</svg>
