<?xml version="1.0" encoding="UTF-8"?>
<svg width="50px" height="50px" viewBox="0 0 50 50" version="1.1" xmlns="http://www.w3.org/2000/svg" xmlns:xlink="http://www.w3.org/1999/xlink">
    <title>ic_salary_web_white_x50</title>
    <g id="Desktop" stroke="none" stroke-width="1" fill="none" fill-rule="evenodd">
        <g id="Button" fill="#FFFFFF" fill-rule="nonzero">
            <path d="M25,0 C38.8071187,0 50,11.1928813 50,25 C50,38.8071187 38.8071187,50 25,50 C11.1928813,50 0,38.8071187 0,25 C0,11.1928813 11.1928813,0 25,0 Z M25,1.5 C12.0213084,1.5 1.5,12.0213084 1.5,25 C1.5,37.9786916 12.0213084,48.5 25,48.5 C37.9786916,48.5 48.5,37.9786916 48.5,25 C48.5,12.0213084 37.9786916,1.5 25,1.5 Z M21.0421709,32.5002424 L21.7776753,33.2364237 C21.1887763,34.236076 19.4961748,34.9581603 17.5,34.9581603 C15.5038252,34.9581603 13.8112237,34.236076 13.2223247,33.2364237 L13.9583247,32.5 L14.0706507,32.5769519 C14.8960651,33.1161177 16.1261331,33.4581603 17.5,33.4581603 C18.9379422,33.4581603 20.2183595,33.0834689 21.0421709,32.5002424 Z M21.0421709,30.0002424 L21.7776753,30.7364237 C21.1887763,31.736076 19.4961748,32.4581603 17.5,32.4581603 C15.5038252,32.4581603 13.8112237,31.736076 13.2223247,30.7364237 L13.9583247,30 L14.0706507,30.0769519 C14.8960651,30.6161177 16.1261331,30.9581603 17.5,30.9581603 C18.9379422,30.9581603 20.2183595,30.5834689 21.0421709,30.0002424 Z M33,16 C34.6568542,16 36,17.3431458 36,19 L36,29 C36,30.6568542 34.6568542,32 33,32 L24,32 L24,30.5 L33,30.5 C33.7796961,30.5 34.4204487,29.9051119 34.4931334,29.14446 L34.5,29 L34.5,23 L14,23 L14,19 C14,17.3431458 15.3431458,16 17,16 L33,16 Z M17.5,25 C19.2426122,25 20.7538753,25.5502908 21.5014767,26.3551433 L21.5014767,28.6448567 C20.7538753,29.4497092 19.2426122,30 17.5,30 C15.7573878,30 14.2461247,29.4497092 13.4985233,28.6448567 L13.4985233,26.3551433 C14.2461247,25.5502908 15.7573878,25 17.5,25 Z M33,17.5 L17,17.5 C16.2203039,17.5 15.5795513,18.0948881 15.5068666,18.85554 L15.5,19 L34.5,19 C34.5,18.2203039 33.9051119,17.5795513 33.14446,17.5068666 L33,17.5 Z" id="Combined-Shape"></path>
        </g>
    </g>
</svg>