<svg xmlns="http://www.w3.org/2000/svg" width="56" height="56" viewBox="0 0 56 56">
    <g fill="none" fill-rule="evenodd">
        <g transform="translate(-655 -508)">
            <path fill="#EEE" d="M0 0H1366V1664H0z"/>
            <rect width="1024" height="1268" x="171" y="264" fill="#FFF" stroke="#DEE1E4" rx="1"/>
            <rect width="359" height="126" x="503.5" y="484.5" stroke="#CEE0DD" rx="2"/>
            <g fill="#0FC992" fill-rule="nonzero">
                <path d="M10 38c-2.689 0-4.882-2.122-4.995-4.783L5 33V17c0-2.689 2.123-4.882 4.783-4.995L10 12h26c2.689 0 4.882 2.122 4.995 4.783L41 17h1c2.689 0 4.882 2.122 4.995 4.783L47 22v8.512c3.495 1.235 6 4.57 6 8.488 0 4.97-4.03 9-9 9-3.533 0-6.59-2.036-8.064-4.999L16 43c-2.689 0-4.882-2.122-4.995-4.783L11 38h-1zm34-6c-3.866 0-7 3.134-7 7s3.134 7 7 7 7-3.134 7-7-3.134-7-7-7zm2.121 4.172c.391-.391 1.023-.391 1.414 0l.083.094c.306.393.278.959-.083 1.32l-4.242 4.242c-.39.39-1.024.39-1.414 0l-1.414-1.414c-.39-.39-.39-1.023 0-1.414.39-.39 1.023-.39 1.414 0l.707.707zM45 26H13L13 38c0 1.598 1.249 2.904 2.824 2.995L16 41h19.223c-.146-.643-.223-1.312-.223-2 0-4.97 4.03-9 9-9 .338 0 .671.019 1 .055V26zm-8.823-11.995L36 14H10c-1.597 0-2.904 1.249-2.995 2.824L7 17v16c0 1.598 1.25 2.904 2.824 2.995L10 36h1V22c0-2.689 2.122-4.882 4.783-4.995L16 17h23c0-1.598-1.249-2.904-2.824-2.995zM42 19H16c-1.598 0-2.904 1.249-2.995 2.824L13 22v2h32v-2c0-1.598-1.249-2.904-2.824-2.995L42 19z" transform="translate(655 508)"/>
            </g>
        </g>
    </g>
</svg>
