<svg xmlns="http://www.w3.org/2000/svg" width="56" height="56" viewBox="0 0 56 56">
    <g fill="none" fill-rule="evenodd">
        <g transform="translate(-669 -1029)">
            <path fill="#EEE" d="M0 0H1366V1614H0z"/>
            <rect width="1024" height="1218" x="171" y="264" fill="#FFF" stroke="#DEE1E4" rx="1"/>
            <g>
                <g transform="translate(503 842) translate(0 163)">
                    <rect width="331" height="170" x="28.5" y=".5" stroke="#CEE0DD" rx="2"/>
                    <g fill="#0FC992">
                        <path d="M35.5 13c.78 0 1.42.594 1.493 1.355L37 14.5V17h6.794c.397 0 .776.158 1.056.435l.1.11 8.706 10.539c.191.23.307.512.337.807l.007.149v9.46c0 .78-.595 1.42-1.356 1.493L52.5 40l-3.528.002C48.722 42.25 46.815 44 44.5 44c-2.315 0-4.223-1.75-4.472-3.998L35.122 40l-17.15.002c-.242 2.18-2.041 3.89-4.26 3.993L13.5 44c-2.315 0-4.223-1.75-4.472-3.998L3.5 40c-.78 0-1.42-.595-1.493-1.356L2 38.5v-24c0-.78.594-1.42 1.355-1.493L3.5 13h32zm9 24c-1.379 0-2.5 1.121-2.5 2.5s1.121 2.5 2.5 2.5 2.5-1.121 2.5-2.5-1.121-2.5-2.5-2.5zm-31 0c-1.378 0-2.5 1.121-2.5 2.5s1.122 2.5 2.5 2.5 2.5-1.121 2.5-2.5-1.122-2.5-2.5-2.5zM35 15H4v23h5.256c.618-1.748 2.285-3 4.244-3 1.96 0 3.626 1.252 4.244 3h17.255V18.5l.001-.021V15zm8.558 4H37v19h3.256c.596-1.684 2.165-2.909 4.032-2.995L44.5 35c1.96 0 3.626 1.252 4.244 3H52v-8.781L43.558 19zM30 23c.553 0 1 .448 1 1s-.447 1-1 1h-8c-.552 0-1-.448-1-1s.448-1 1-1zm0-4c.553 0 1 .448 1 1s-.447 1-1 1H14c-.552 0-1-.448-1-1s.448-1 1-1z" transform="translate(166 24)"/>
                    </g>
                </g>
            </g>
        </g>
    </g>
</svg>
