<?xml version="1.0" encoding="utf-8"?>
<!-- Generator: Adobe Illustrator 21.0.0, SVG Export Plug-In . SVG Version: 6.00 Build 0)  -->
<svg version="1.1" id="Слой_1" xmlns="http://www.w3.org/2000/svg" xmlns:xlink="http://www.w3.org/1999/xlink" x="0px" y="0px"
	 width="83.782px" height="77.665px" viewBox="0 0 83.782 77.665" enable-background="new 0 0 83.782 77.665" xml:space="preserve">
<g>
	<path fill="#E6401B" d="M41.891,41.23l0.975-1.213c0.496-0.618,12.146-15.256,12.146-26.896C55.011,5.886,49.125,0,41.891,0
		s-13.12,5.886-13.12,13.12c0,11.641,11.649,26.279,12.146,26.896L41.891,41.23z M41.891,2.5c5.855,0,10.62,4.764,10.62,10.62
		c0,8.885-7.828,20.271-10.621,24.05c-2.793-3.777-10.62-15.157-10.62-24.05C31.271,7.264,36.035,2.5,41.891,2.5z"/>
	<path fill="#E6401B" d="M44.947,18.898c1.998-1.086,3.355-3.203,3.355-5.637c0-2.434-1.357-4.55-3.355-5.635
		c-0.908-0.493-1.949-0.773-3.056-0.773c-3.54,0-6.41,2.868-6.41,6.408c0,3.54,2.87,6.41,6.41,6.41
		C42.997,19.672,44.038,19.391,44.947,18.898z"/>
	<path fill="#E6401B" d="M73.719,49.061l-15.377-7.53l-16.451,7.067l-16.452-7.067l-15.376,7.53L0,77.664l20.828-11.692
		l21.063,10.373l21.063-10.373l20.827,11.693L73.719,49.061z M79.223,72.237l-15.128-8.492l-4.02-18.581L71.7,50.856L79.223,72.237z
		 M26.375,44.653l14.266,6.129v22.16l-18.423-9.073L26.375,44.653z M43.141,50.782l14.266-6.129l4.157,19.216l-18.423,9.073V50.782z
		 M12.082,50.856l11.625-5.693l-4.019,18.582L4.56,72.238L12.082,50.856z"/>
</g>
</svg>
