<?xml version="1.0" encoding="utf-8"?>
<!-- Generator: Adobe Illustrator 21.0.0, SVG Export Plug-In . SVG Version: 6.00 Build 0)  -->
<svg version="1.1" id="Слой_1" xmlns="http://www.w3.org/2000/svg" xmlns:xlink="http://www.w3.org/1999/xlink" x="0px" y="0px"
	 width="76.252px" height="76.2px" viewBox="0 0 76.252 76.2" enable-background="new 0 0 76.252 76.2" xml:space="preserve">
<g>
	<path fill="#E6401B" d="M76.252,35.362h-3.754C71.942,19.993,61.196,6.823,46.31,3.194L46.679,0H29.574l0.369,3.195
		C15.057,6.822,4.31,19.992,3.754,35.362H0v2.5h9.426v9.639c0,15.825,12.875,28.699,28.7,28.699s28.699-12.874,28.699-28.699v-9.639
		h9.427V35.362z M30.234,5.703l2.887,24.968h10.013L46.02,5.703c13.615,3.461,23.428,15.551,23.978,29.659H6.254
		C6.804,21.253,16.617,9.163,30.234,5.703z M64.326,47.501c0,14.446-11.753,26.199-26.2,26.199s-26.2-11.753-26.2-26.199v-9.639
		h52.399V47.501z"/>
	<rect x="30.184" y="60.088" fill="#E6401B" width="15.885" height="2.5"/>
</g>
</svg>
