<?xml version="1.0" encoding="utf-8"?>
<!-- Generator: Adobe Illustrator 21.0.0, SVG Export Plug-In . SVG Version: 6.00 Build 0)  -->
<svg version="1.1" id="Слой_1" xmlns="http://www.w3.org/2000/svg" xmlns:xlink="http://www.w3.org/1999/xlink" x="0px" y="0px"
	 width="71.948px" height="73.551px" viewBox="0 0 71.948 73.551" enable-background="new 0 0 71.948 73.551" xml:space="preserve">
<path fill="#E6401B" d="M63.796,36.327V0L46.081,16.331V0L28.367,16.331V1.603H8.153v34.725H0v1.25
	C0,47.2,3.738,56.238,10.526,63.025c6.787,6.787,15.825,10.525,25.448,10.525c0,0,0,0,0,0c0,0,0,0,0,0c0,0,0,0,0,0
	c9.623,0,18.661-3.738,25.448-10.525S71.948,47.2,71.948,37.577v-1.25H63.796z M61.296,5.705v30.622H46.081V19.731L61.296,5.705z
	 M35.974,71.051C35.974,71.051,35.974,71.051,35.974,71.051c-3.23,0-6.488-3.421-8.939-9.385c-0.788-1.916-1.455-4.044-2.024-6.303
	h21.926c-0.569,2.259-1.237,4.387-2.024,6.303C42.462,67.63,39.204,71.051,35.974,71.051z M24.437,52.863
	c-0.888-4.315-1.386-9.076-1.459-14.036H48.97c-0.073,4.96-0.571,9.721-1.458,14.036H24.437z M43.581,5.705v12.93v17.692H28.367
	V19.731L43.581,5.705z M20.479,38.827c0.07,4.935,0.555,9.686,1.415,14.036H6.174c-2.212-4.309-3.471-9.075-3.651-14.036H20.479z
	 M7.594,55.363h14.844c0.627,2.609,1.382,5.059,2.284,7.254c1.376,3.348,3.001,5.971,4.793,7.814
	c-6.49-1.257-12.454-4.405-17.223-9.174C10.489,59.453,8.921,57.474,7.594,55.363z M59.655,61.258
	c-4.769,4.769-10.733,7.917-17.223,9.174c1.792-1.843,3.418-4.467,4.794-7.814c0.902-2.195,1.657-4.645,2.284-7.254h14.845
	C63.028,57.474,61.46,59.453,59.655,61.258z M65.775,52.863h-15.72c0.86-4.35,1.345-9.101,1.415-14.036h17.956
	C69.245,43.788,67.987,48.554,65.775,52.863z"/>
</svg>
