<svg xmlns="http://www.w3.org/2000/svg" width="17" height="17" viewBox="0 0 17 17">
  <metadata><?xpacket begin="﻿" id="W5M0MpCehiHzreSzNTczkc9d"?>
<x:xmpmeta xmlns:x="adobe:ns:meta/" x:xmptk="Adobe XMP Core 5.6-c140 79.160451, 2017/05/06-01:08:21        ">
   <rdf:RDF xmlns:rdf="http://www.w3.org/1999/02/22-rdf-syntax-ns#">
      <rdf:Description rdf:about=""/>
   </rdf:RDF>
</x:xmpmeta>
                                                                                                    
                                                                                                    
                                                                                                    
                                                                                                    
                                                                                                    
                                                                                                    
                                                                                                    
                                                                                                    
                                                                                                    
                                                                                                    
                                                                                                    
                                                                                                    
                                                                                                    
                                                                                                    
                                                                                                    
                                                                                                    
                                                                                                    
                                                                                                    
                                                                                                    
                                                                                                    
                           
<?xpacket end="w"?></metadata>
<defs>
    <style>
      .cls-1 {
        fill: #747474;
        fill-rule: evenodd;
      }
    </style>
  </defs>
  <path id="logo_copy" data-name="logo copy" class="cls-1" d="M476.5,89a1.5,1.5,0,1,1-1.5,1.5A1.5,1.5,0,0,1,476.5,89Zm0-7a1.5,1.5,0,1,1-1.5,1.5A1.5,1.5,0,0,1,476.5,82Zm0,14a1.5,1.5,0,1,1-1.5,1.5A1.5,1.5,0,0,1,476.5,96Zm-7-7a1.5,1.5,0,1,1-1.5,1.5A1.5,1.5,0,0,1,469.5,89Zm14,0a1.5,1.5,0,1,1-1.5,1.5A1.5,1.5,0,0,1,483.5,89Zm-13.01,5.389a1.5,1.5,0,1,1,0,2.121A1.5,1.5,0,0,1,470.49,94.389Zm9.9-9.9a1.5,1.5,0,1,1,0,2.121A1.5,1.5,0,0,1,480.389,84.49ZM472.6,84.43a1.511,1.511,0,1,1-2.136,0A1.511,1.511,0,0,1,472.6,84.43ZM482.57,94.4a1.511,1.511,0,1,1-2.137,0A1.511,1.511,0,0,1,482.57,94.4Z" transform="translate(-468 -82)"/>
</svg>
