<svg id="Logo" xmlns="http://www.w3.org/2000/svg" width="171.844" height="49" viewBox="0 0 171.844 49">
  <metadata><?xpacket begin="﻿" id="W5M0MpCehiHzreSzNTczkc9d"?>
<x:xmpmeta xmlns:x="adobe:ns:meta/" x:xmptk="Adobe XMP Core 5.6-c140 79.160451, 2017/05/06-01:08:21        ">
   <rdf:RDF xmlns:rdf="http://www.w3.org/1999/02/22-rdf-syntax-ns#">
      <rdf:Description rdf:about=""/>
   </rdf:RDF>
</x:xmpmeta>
                                                                                                    
                                                                                                    
                                                                                                    
                                                                                                    
                                                                                                    
                                                                                                    
                                                                                                    
                                                                                                    
                                                                                                    
                                                                                                    
                                                                                                    
                                                                                                    
                                                                                                    
                                                                                                    
                                                                                                    
                                                                                                    
                                                                                                    
                                                                                                    
                                                                                                    
                                                                                                    
                           
<?xpacket end="w"?></metadata>
<defs>
    <style>
      .cls-1, .cls-2 {
        fill: #ec912e;
      }

      .cls-1 {
        fill-rule: evenodd;
      }

      .cls-2 {
        font-size: 22px;
        font-family: "Neighbor [RUS by Daymarius]";
      }

      .cls-3 {
        fill: #232323;
      }
    </style>
  </defs>
  <path id="Forma_1" data-name="Forma 1" class="cls-1" d="M115.214,666.026L84.02,645.781A3.857,3.857,0,0,0,81.71,645c-3.555,0-3.539,2.792-3.539,3.5v42A3.187,3.187,0,0,0,81.71,694a5.006,5.006,0,0,0,2.681-.817l30.822-20.211c2.631-1.593,2.176-3.473,2.176-3.473S117.845,667.618,115.214,666.026Zm-10.428,5.584-4.694,5.347a0.649,0.649,0,0,1-.479.224H99.591a0.665,0.665,0,0,1-.467-0.2l-3.277-3.41a0.684,0.684,0,0,1-.188-0.479l0.01-.925c-0.776-.078-2.45.857-3.63,1.65l-4.282-4.455a4.7,4.7,0,0,0,1.348-3.089c0.018-1.738-.576-4.054-5.92-4.112a0.664,0.664,0,0,1-.608-0.424A0.682,0.682,0,0,1,82.727,661a8.09,8.09,0,0,1,6.462-2.826,8.29,8.29,0,0,1,6.4,2.966l5.244,5.455a0.684,0.684,0,0,1,.188.479l-0.007.675,0.662,0.008a0.651,0.651,0,0,1,.467.2l2.622,2.727A0.685,0.685,0,0,1,104.786,671.61Zm-13.76,3.082-12.1,13.27a3.4,3.4,0,0,1-2.541,1.111A3.455,3.455,0,0,1,73,685.555a3.543,3.543,0,0,1,1.028-2.53L86.8,670.294Z" transform="translate(-78.156 -645)"/>
  <text id="WeCreate" class="cls-2" transform="translate(47.89 31.311) scale(1.01 1.021)">We<tspan class="cls-3">Create</tspan></text>
</svg>
