<svg xmlns="http://www.w3.org/2000/svg" xmlns:xlink="http://www.w3.org/1999/xlink" width="170.906" height="48" viewBox="0 0 170.906 48">
  <metadata><?xpacket begin="﻿" id="W5M0MpCehiHzreSzNTczkc9d"?>
<x:xmpmeta xmlns:x="adobe:ns:meta/" x:xmptk="Adobe XMP Core 5.6-c140 79.160451, 2017/05/06-01:08:21        ">
   <rdf:RDF xmlns:rdf="http://www.w3.org/1999/02/22-rdf-syntax-ns#">
      <rdf:Description rdf:about=""/>
   </rdf:RDF>
</x:xmpmeta>
                                                                                                    
                                                                                                    
                                                                                                    
                                                                                                    
                                                                                                    
                                                                                                    
                                                                                                    
                                                                                                    
                                                                                                    
                                                                                                    
                                                                                                    
                                                                                                    
                                                                                                    
                                                                                                    
                                                                                                    
                                                                                                    
                                                                                                    
                                                                                                    
                                                                                                    
                                                                                                    
                           
<?xpacket end="w"?></metadata>
<defs>
    <style>
      .cls-1 {
        filter: url(#filter);
      }

      .cls-2, .cls-3 {
        fill: #ec912e;
      }

      .cls-2 {
        fill-rule: evenodd;
      }

      .cls-3 {
        font-size: 22px;
        font-family: "Neighbor [RUS by Daymarius]";
      }

      .cls-4 {
        fill: #fff;
      }
    </style>
    <filter id="filter" filterUnits="userSpaceOnUse">
      <feFlood result="flood" flood-color="#ebebeb"/>
      <feComposite result="composite" operator="in" in2="SourceGraphic"/>
      <feBlend result="blend" in2="SourceGraphic"/>
    </filter>
  </defs>
  <g id="Logo" class="cls-1">
    <path id="Forma_1" data-name="Forma 1" class="cls-2" d="M913.812,3733.6l-30.9-19.83a3.8,3.8,0,0,0-2.287-.77c-3.522,0-3.506,2.73-3.506,3.43v41.14c0,0.59-.015,3.43,3.506,3.43a5.015,5.015,0,0,0,2.655-.8l30.529-19.8c2.606-1.56,2.156-3.4,2.156-3.4S916.418,3735.16,913.812,3733.6Zm-10.329,5.47-4.649,5.23a0.622,0.622,0,0,1-.474.22h-0.022a0.663,0.663,0,0,1-.463-0.19l-3.245-3.34a0.685,0.685,0,0,1-.187-0.47l0.009-.91c-0.768-.08-2.426.84-3.6,1.62l-4.242-4.37a4.572,4.572,0,0,0,1.336-3.02c0.018-1.71-.571-3.97-5.864-4.03a0.655,0.655,0,0,1-.6-0.42,0.668,0.668,0,0,1,.15-0.72,8.051,8.051,0,0,1,6.4-2.76,8.249,8.249,0,0,1,6.34,2.9l5.194,5.35a0.648,0.648,0,0,1,.187.46l-0.007.67h0.656a0.67,0.67,0,0,1,.462.2l2.6,2.67A0.671,0.671,0,0,1,903.483,3739.07Zm-13.629,3.02-11.987,13a3.387,3.387,0,0,1-5.867-2.36,3.455,3.455,0,0,1,1.018-2.48l12.65-12.47Z" transform="translate(-877.094 -3713)"/>
    <text id="WeCreate" class="cls-3" x="47.447" y="30.672">We<tspan class="cls-4">Create</tspan></text>
  </g>
</svg>
