<svg id="Logo" xmlns="http://www.w3.org/2000/svg" width="170.906" height="48" viewBox="0 0 170.906 48">
  <metadata><?xpacket begin="﻿" id="W5M0MpCehiHzreSzNTczkc9d"?>
<x:xmpmeta xmlns:x="adobe:ns:meta/" x:xmptk="Adobe XMP Core 5.6-c140 79.160451, 2017/05/06-01:08:21        ">
   <rdf:RDF xmlns:rdf="http://www.w3.org/1999/02/22-rdf-syntax-ns#">
      <rdf:Description rdf:about=""/>
   </rdf:RDF>
</x:xmpmeta>





















<?xpacket end="w"?></metadata>
<defs>
    <style>
      .cls-1, .cls-2 {
        fill: #ec912e;
      }

      .cls-1 {
        fill-rule: evenodd;
      }

      .cls-2 {
        font-size: 22px;
        font-family: "Neighbor [RUS by Daymarius]";
      }

      .cls-3 {
        fill: #fff;
      }
    </style>
  </defs>
  <path id="Forma_1" data-name="Forma 1" class="cls-1" d="M406.812,43.6l-30.9-19.831A3.847,3.847,0,0,0,373.628,23c-3.521,0-3.506,2.736-3.506,3.429V67.57c0,0.586-.015,3.429,3.506,3.429a5,5,0,0,0,2.655-.8l30.529-19.8c2.606-1.561,2.156-3.4,2.156-3.4S409.418,45.157,406.812,43.6Zm-10.329,5.471-4.649,5.238a0.647,0.647,0,0,1-.474.219h-0.022a0.659,0.659,0,0,1-.463-0.2l-3.246-3.34a0.669,0.669,0,0,1-.186-0.47l0.009-.905c-0.768-.077-2.426.839-3.595,1.616l-4.242-4.364a4.587,4.587,0,0,0,1.336-3.026c0.018-1.7-.571-3.972-5.864-4.029a0.663,0.663,0,0,1-.453-1.134,8.05,8.05,0,0,1,6.4-2.768,8.241,8.241,0,0,1,6.34,2.9l5.194,5.344a0.671,0.671,0,0,1,.187.47l-0.007.661,0.656,0.007a0.653,0.653,0,0,1,.462.2l2.6,2.672A0.664,0.664,0,0,1,396.483,49.067Zm-13.628,3.019-11.988,13A3.382,3.382,0,0,1,365,62.727a3.448,3.448,0,0,1,1.018-2.478l12.651-12.471Z" transform="translate(-370.094 -23)"/>
  <text id="WeCreate" class="cls-2" x="47.448" y="30.673">We<tspan class="cls-3">Create</tspan></text>
</svg>
