<svg xmlns="http://www.w3.org/2000/svg" width="155" height="156.031" viewBox="0 0 155 156.031">
  <metadata><?xpacket begin="﻿" id="W5M0MpCehiHzreSzNTczkc9d"?>
<x:xmpmeta xmlns:x="adobe:ns:meta/" x:xmptk="Adobe XMP Core 5.6-c140 79.160451, 2017/05/06-01:08:21        ">
   <rdf:RDF xmlns:rdf="http://www.w3.org/1999/02/22-rdf-syntax-ns#">
      <rdf:Description rdf:about=""/>
   </rdf:RDF>
</x:xmpmeta>
                                                                                                    
                                                                                                    
                                                                                                    
                                                                                                    
                                                                                                    
                                                                                                    
                                                                                                    
                                                                                                    
                                                                                                    
                                                                                                    
                                                                                                    
                                                                                                    
                                                                                                    
                                                                                                    
                                                                                                    
                                                                                                    
                                                                                                    
                                                                                                    
                                                                                                    
                                                                                                    
                           
<?xpacket end="w"?></metadata>
<defs>
    <style>
      .cls-1 {
        fill: #ec912e;
        fill-rule: evenodd;
      }
    </style>
  </defs>
  <path id="Icon" class="cls-1" d="M929.485,595.414a5.46,5.46,0,0,0-7.747,0,5.53,5.53,0,0,0,0,7.788l25.247,25.38a5.337,5.337,0,0,0,3.874,1.612h0.267a6.1,6.1,0,0,0,4.008-2.015l63.186-76.14a5.688,5.688,0,0,0-.67-7.788,5.618,5.618,0,0,0-7.75.671L950.458,616.5Zm72.935-61.5a76.748,76.748,0,0,0-95.777,11.012,78.423,78.423,0,0,0,0,110.249A77.632,77.632,0,0,0,1027,558.619a5.408,5.408,0,0,0-7.48-1.746,5.474,5.474,0,0,0-1.74,7.52,66.326,66.326,0,1,1-21.1-21.217,5.411,5.411,0,0,0,7.482-1.746A5.474,5.474,0,0,0,1002.42,533.91Z" transform="translate(-884 -521.969)"/>
</svg>
