<svg xmlns="http://www.w3.org/2000/svg" width="17" height="17"><path data-name="logo copy" d="M8.5 7A1.5 1.5 0 1 1 7 8.5 1.5 1.5 0 0 1 8.5 7zm0-7A1.5 1.5 0 1 1 7 1.5 1.5 1.5 0 0 1 8.5 0zm0 14A1.5 1.5 0 1 1 7 15.5 1.5 1.5 0 0 1 8.5 14zm-7-7A1.5 1.5 0 1 1 0 8.5 1.5 1.5 0 0 1 1.5 7zm14 0A1.5 1.5 0 1 1 14 8.5 1.5 1.5 0 0 1 15.5 7zM2.49 12.389a1.5 1.5 0 1 1 0 2.121 1.5 1.5 0 0 1 0-2.121zm9.9-9.9a1.5 1.5 0 1 1 0 2.121 1.5 1.5 0 0 1-.001-2.12zM4.6 2.43a1.511 1.511 0 1 1-2.136 0 1.511 1.511 0 0 1 2.136 0zm9.97 9.97a1.511 1.511 0 1 1-2.137 0 1.511 1.511 0 0 1 2.137 0z" fill="#747474" fill-rule="evenodd"/></svg>