<svg xmlns="http://www.w3.org/2000/svg" height="512" viewBox="-21 -107 682.667 682" width="512"><g fill-rule="evenodd" fill="#b23d87"><path d="M609.648 219.629V7.082c0-6.902-5.593-12.5-12.5-12.5H370c-6.906 0-12.5 5.598-12.5 12.5 0 6.906 5.594 12.5 12.5 12.5h214.648v180.809a106.857 106.857 0 0 0-44.726-13.32c1.547-24.481.55-49.684-3.024-76.633-1.921-14.458-12.25-29.098-28.28-29.098-1.423 0-2.86.129-4.282.37-24.395 4.192-45.477 6.142-66.36 6.142-20.796 0-42.28-1.954-67.624-6.153a25.505 25.505 0 0 0-4.133-.344c-13.766 0-25.121 11.442-28.254 28.47-4.637 25.183-5.856 50.487-3.707 76.945h-28.516c2.145-26.465.93-51.766-3.707-76.946-3.133-17.027-14.488-28.469-28.254-28.469a25.12 25.12 0 0 0-4.136.344c-25.34 4.2-46.825 6.153-67.622 6.153-20.882 0-41.964-1.954-66.359-6.141a25.664 25.664 0 0 0-4.281-.371c-16.031 0-26.363 14.64-28.281 29.097-3.579 26.946-4.57 52.149-3.024 76.633a106.93 106.93 0 0 0-44.73 13.32V19.583H270c6.906 0 12.5-5.594 12.5-12.5 0-6.902-5.594-12.5-12.5-12.5H42.852c-6.907 0-12.5 5.598-12.5 12.5V219.63C11.586 239.016 0 265.399 0 294.453V449.66c0 6.906 5.594 12.5 12.5 12.5h67.54c6.905 0 12.5-5.594 12.5-12.5 0-24.894 20.257-45.156 45.155-45.156H270c6.906 0 12.5-5.594 12.5-12.5 0-6.902-5.594-12.5-12.5-12.5H137.695c-34.418 0-63.129 24.918-69.039 57.656H25V315.004h590V437.16h-43.656c-5.91-32.738-34.621-57.656-69.04-57.656H370c-6.906 0-12.5 5.598-12.5 12.5 0 6.906 5.594 12.5 12.5 12.5h132.305c24.898 0 45.156 20.262 45.156 45.156 0 6.906 5.594 12.5 12.5 12.5H627.5c6.906 0 12.5-5.594 12.5-12.5V294.453c0-29.055-11.586-55.437-30.352-74.824zM362.547 114.348c.848-4.575 2.922-7.371 3.816-7.973 26.68 4.418 49.438 6.477 71.614 6.477 22.312 0 44.718-2.063 70.562-6.497.852.461 3.016 3.16 3.574 7.375 3.426 25.782 4.348 49.793 2.785 73.04H359.332c-2.191-25-1.129-48.793 3.215-72.422zm-234.66-.618c.558-4.214 2.722-6.921 3.578-7.375 25.808 4.43 48.238 6.497 70.558 6.497 22.16 0 44.91-2.059 71.614-6.477.894.602 2.968 3.398 3.816 7.969 4.344 23.629 5.406 47.422 3.211 72.426H125.102c-1.563-23.25-.645-47.258 2.785-73.04zM25.117 290.004c1.153-21.66 10.688-41.129 25.399-55.23a12.34 12.34 0 0 0 1.507-1.383c14.7-13.41 34.23-21.621 55.653-21.621h424.648c21.418 0 40.95 8.203 55.649 21.613.465.508.972.976 1.515 1.394 14.711 14.102 24.242 33.57 25.395 55.227zm0 0"/><path d="M320 19.582c6.883 0 12.5-5.613 12.5-12.5 0-6.883-5.617-12.5-12.5-12.5s-12.5 5.617-12.5 12.5c0 6.887 5.617 12.5 12.5 12.5zm0 359.922c-6.883 0-12.5 5.617-12.5 12.5 0 6.887 5.617 12.5 12.5 12.5s12.5-5.613 12.5-12.5c0-6.879-5.617-12.5-12.5-12.5zm0 0"/></g></svg>