<?xml version="1.0" encoding="utf-8"?>
<!-- Generator: Adobe Illustrator 21.0.0, SVG Export Plug-In . SVG Version: 6.00 Build 0)  -->
<svg version="1.1" id="Слой_1" xmlns="http://www.w3.org/2000/svg" xmlns:xlink="http://www.w3.org/1999/xlink" x="0px" y="0px"
	 width="22px" height="34px" viewBox="0 0 22 34" enable-background="new 0 0 22 34" xml:space="preserve">
<g>
	<g>
		<g>
			<path fill="#FFFFFF" d="M11.001,0C4.934,0,0,4.83,0,10.767c0,9.716,9.976,21.984,10.4,22.502l0.6,0.731l0.6-0.731
				C12.025,32.751,22,20.482,22,10.767C22,4.83,17.066,0,11.001,0z M11.001,31.56C8.832,28.731,1.54,18.631,1.54,10.767
				c0-5.106,4.244-9.26,9.461-9.26c5.216,0,9.46,4.154,9.46,9.26C20.46,18.625,13.169,28.73,11.001,31.56z"/>
		</g>
	</g>
	<g>
		<ellipse fill="#FFFFFF" cx="11" cy="10.887" rx="5.061" ry="4.953"/>
	</g>
</g>
</svg>
