<?xml version="1.0" encoding="utf-8"?>
<!-- Generator: Adobe Illustrator 21.0.0, SVG Export Plug-In . SVG Version: 6.00 Build 0)  -->
<svg version="1.1" id="Слой_1" xmlns="http://www.w3.org/2000/svg" xmlns:xlink="http://www.w3.org/1999/xlink" x="0px" y="0px"
	 width="629.693px" height="267.987px" viewBox="0 0 629.693 267.987" enable-background="new 0 0 629.693 267.987"
	 xml:space="preserve">
<path fill="#E6401B" d="M619.771,46.104c-5.144,0-9.373,3.916-9.871,8.929H474.484L499.724,0H252.876l-25.221,54.992H91.886
	c-0.498-5.013-4.727-8.929-9.871-8.929c-5.479,0-9.921,4.442-9.921,9.921c0,5.479,4.442,9.921,9.921,9.921
	c5.144,0,9.373-3.916,9.871-8.929h134.859l-34.859,76.005H55.917c-0.498-5.013-4.727-8.929-9.871-8.929
	c-5.479,0-9.921,4.442-9.921,9.921c0,5.479,4.442,9.921,9.921,9.921c5.144,0,9.373-3.916,9.871-8.929h135.059l-34.859,76.005H19.792
	c-0.498-5.013-4.727-8.929-9.871-8.929c-5.479,0-9.921,4.442-9.921,9.921c0,5.479,4.442,9.921,9.921,9.921
	c5.144,0,9.373-3.916,9.871-8.929h135.415l-25.24,55.033h246.85l25.221-54.992h135.769c0.498,5.013,4.727,8.929,9.871,8.929
	c5.479,0,9.921-4.442,9.921-9.921s-4.442-9.921-9.921-9.921c-5.144,0-9.373,3.916-9.871,8.929H402.947l34.858-76.005h135.97
	c0.498,5.013,4.727,8.929,9.871,8.929c5.479,0,9.921-4.442,9.921-9.921c0-5.479-4.442-9.921-9.921-9.921
	c-5.144,0-9.373,3.916-9.871,8.929h-135.06l34.858-76.005H609.9c0.498,5.013,4.727,8.929,9.871,8.929
	c5.479,0,9.921-4.442,9.921-9.921C629.693,50.546,625.251,46.104,619.771,46.104z M251.863,15.758v117.222H198.1L251.863,15.758z
	 M140.108,259.423l57.082-124.458h54.673v12.705L140.108,259.423z M372.18,262.337L257.513,147.67V5.65L372.18,120.318V262.337z
	 M377.829,252.229V135.007h53.762L377.829,252.229z M377.829,133.022v-12.705L489.581,8.566l-57.08,124.457H377.829z"/>
</svg>
