<?xml version="1.0" encoding="utf-8"?>
<!-- Generator: Adobe Illustrator 21.0.0, SVG Export Plug-In . SVG Version: 6.00 Build 0)  -->
<svg version="1.1" id="Слой_1" xmlns="http://www.w3.org/2000/svg" xmlns:xlink="http://www.w3.org/1999/xlink" x="0px" y="0px"
	 width="449.719px" height="777px" viewBox="0 0 449.719 777" enable-background="new 0 0 449.719 777" xml:space="preserve">
<g>
	<path fill="#FFFFFF" d="M149.49,0L0,325.941h300.232L449.719,0H149.49z M155.129,179.604V6.872l139.464,139.465v172.732
		L155.129,179.604z M148.257,179.604L12.335,315.525L148.257,19.166V179.604z M301.464,146.336L437.383,10.418L301.464,306.775
		V146.336z"/>
	<g>
		<circle fill="#FFFFFF" cx="9.92" cy="376.111" r="9.92"/>
		<circle fill="#FFFFFF" cx="9.92" cy="454.085" r="9.92"/>
		<circle fill="#FFFFFF" cx="9.92" cy="532.06" r="9.92"/>
		<circle fill="#FFFFFF" cx="9.92" cy="610.034" r="9.92"/>
		<circle fill="#FFFFFF" cx="9.92" cy="688.009" r="9.92"/>
		<circle fill="#FFFFFF" cx="9.92" cy="765.984" r="9.92"/>
		
			<rect x="-185.011" y="569.72" transform="matrix(6.123234e-17 -1 1 6.123234e-17 -560.7912 580.6321)" fill="#FFFFFF" width="389.863" height="1.984"/>
		<g>
			<path fill="#FFFFFF" d="M46.757,381.011l1.48,1.52l-1.62,1.46l-1.541-1.58c-1.18,0.68-2.42,1.02-3.74,1.02
				c-2.02,0-3.72-0.7-5.141-2.1c-1.42-1.42-2.12-3.14-2.12-5.161s0.7-3.74,2.12-5.141c1.421-1.42,3.121-2.12,5.141-2.12
				c2.02,0,3.72,0.7,5.14,2.12c1.421,1.4,2.121,3.12,2.121,5.141C48.597,378.031,47.977,379.651,46.757,381.011z M43.437,380.731
				l-2.56-2.62l1.62-1.46l2.68,2.74c0.74-0.92,1.12-2,1.12-3.22c0-1.42-0.48-2.62-1.44-3.58c-0.96-0.96-2.14-1.44-3.52-1.44
				c-1.381,0-2.56,0.48-3.52,1.44c-0.961,0.96-1.44,2.16-1.44,3.58s0.479,2.62,1.44,3.58c0.96,0.96,2.139,1.44,3.52,1.44
				C42.077,381.191,42.777,381.031,43.437,380.731z"/>
			<path fill="#FFFFFF" d="M57.515,373.17h2.16v10.001h-2.16v-1.28c-0.66,1.02-1.681,1.54-3.1,1.54c-2.301,0-3.84-1.56-3.84-4.121
				v-6.141h2.16v5.92c0,1.5,0.86,2.321,2.24,2.321c1.52,0,2.541-0.94,2.541-2.881V373.17z"/>
			<path fill="#FFFFFF" d="M70.113,373.17h2.161v10.001h-2.161v-1.44c-0.82,1.14-1.98,1.701-3.5,1.701
				c-1.381,0-2.541-0.5-3.521-1.52c-0.979-1.02-1.46-2.28-1.46-3.74c0-1.48,0.48-2.72,1.46-3.74c0.98-1.02,2.14-1.52,3.521-1.52
				c1.519,0,2.679,0.56,3.5,1.68V373.17z M66.953,381.371c0.9,0,1.66-0.3,2.261-0.9c0.6-0.62,0.899-1.38,0.899-2.3
				c0-0.92-0.3-1.681-0.899-2.281c-0.601-0.62-1.36-0.92-2.261-0.92s-1.66,0.3-2.261,0.92c-0.6,0.6-0.9,1.36-0.9,2.281
				c0,0.92,0.301,1.68,0.9,2.3C65.293,381.071,66.053,381.371,66.953,381.371z"/>
			<path fill="#FFFFFF" d="M74.791,383.171v-14.602h2.16v14.602H74.791z"/>
			<path fill="#FFFFFF" d="M79.551,371.27c-0.54-0.561-0.54-1.4,0-1.94c0.54-0.56,1.42-0.56,1.96,0c0.54,0.54,0.54,1.38-0.02,1.94
				C80.951,371.81,80.111,371.81,79.551,371.27z M79.451,383.171V373.17h2.16v10.001H79.451z"/>
			<path fill="#FFFFFF" d="M89.692,375.25h-2.48v4.801c0,1.28,0.84,1.26,2.48,1.18v1.94c-3.3,0.4-4.641-0.5-4.641-3.12v-4.801h-1.84
				v-2.08h1.84v-2.16l2.161-0.64v2.801h2.48V375.25z"/>
			<path fill="#FFFFFF" d="M98.59,373.17h2.3l-3.84,10.321c-0.96,2.579-2.58,3.82-4.88,3.68v-2.02c1.36,0.08,2.121-0.58,2.661-1.96
				l0.1-0.2l-4.241-9.821h2.361l2.98,7.261L98.59,373.17z"/>
		</g>
		<g>
			<path fill="#FFFFFF" d="M34.075,769.819l1.98-1.16c0.56,1.58,1.721,2.36,3.48,2.36c1.74,0,2.6-0.74,2.6-1.841
				c0-0.58-0.24-1-0.7-1.3c-0.46-0.301-1.3-0.641-2.48-1c-1.34-0.4-2-0.66-2.94-1.28c-0.9-0.641-1.36-1.56-1.36-2.821
				c0-1.24,0.44-2.221,1.32-2.94c0.88-0.74,1.94-1.1,3.18-1.1c2.24,0,3.98,1.16,4.88,3.081l-1.94,1.12
				c-0.58-1.3-1.56-1.96-2.94-1.96c-1.34,0-2.2,0.68-2.2,1.74c0,1.04,0.68,1.52,2.82,2.18c0.54,0.18,0.92,0.3,1.16,0.399
				c0.26,0.08,0.601,0.221,1.04,0.4c0.46,0.18,0.801,0.38,1.02,0.56c0.74,0.58,1.54,1.54,1.44,2.88c0,1.261-0.46,2.28-1.381,3.02
				c-0.899,0.74-2.099,1.1-3.58,1.1C36.775,773.259,34.815,771.959,34.075,769.819z"/>
			<path fill="#FFFFFF" d="M55.476,764.278c0.98,1.019,1.46,2.26,1.46,3.72c0,1.48-0.479,2.72-1.46,3.74
				c-0.98,1.02-2.14,1.52-3.52,1.52c-1.52,0-2.68-0.56-3.501-1.68V777h-2.16v-14.002h2.16v1.439c0.82-1.14,1.98-1.7,3.501-1.7
				C53.335,762.738,54.495,763.258,55.476,764.278z M51.615,771.199c0.9,0,1.661-0.3,2.261-0.9c0.601-0.62,0.9-1.38,0.9-2.3
				c0-0.921-0.3-1.681-0.9-2.281c-0.6-0.62-1.36-0.92-2.261-0.92c-0.899,0-1.66,0.3-2.26,0.92c-0.601,0.601-0.9,1.36-0.9,2.281
				c0,0.92,0.3,1.68,0.9,2.3C49.955,770.899,50.715,771.199,51.615,771.199z"/>
			<path fill="#FFFFFF" d="M60.593,768.919c0.319,1.52,1.54,2.36,3.2,2.36c1.141,0,2.001-0.42,2.581-1.24l1.78,1.04
				c-0.98,1.461-2.44,2.18-4.38,2.18c-1.621,0-2.94-0.5-3.941-1.48c-1-1-1.5-2.261-1.5-3.78c0-1.501,0.5-2.741,1.48-3.741
				c0.98-1.02,2.261-1.52,3.8-1.52c1.46,0,2.66,0.52,3.6,1.541c0.94,1.019,1.42,2.28,1.42,3.74c0,0.22-0.02,0.52-0.08,0.9H60.593z
				 M66.454,767.158c-0.301-1.62-1.44-2.46-2.861-2.46c-1.599,0-2.72,0.94-3.02,2.46H66.454z"/>
			<path fill="#FFFFFF" d="M72.173,768.919c0.319,1.52,1.54,2.36,3.2,2.36c1.141,0,2.001-0.42,2.581-1.24l1.78,1.04
				c-0.98,1.461-2.44,2.18-4.38,2.18c-1.621,0-2.94-0.5-3.941-1.48c-1-1-1.5-2.261-1.5-3.78c0-1.501,0.5-2.741,1.48-3.741
				c0.98-1.02,2.261-1.52,3.8-1.52c1.46,0,2.66,0.52,3.6,1.541c0.94,1.019,1.42,2.28,1.42,3.74c0,0.22-0.02,0.52-0.08,0.9H72.173z
				 M78.033,767.158c-0.301-1.62-1.44-2.46-2.861-2.46c-1.599,0-2.72,0.94-3.02,2.46H78.033z"/>
			<path fill="#FFFFFF" d="M89.972,758.998h2.161v14.002h-2.161v-1.44c-0.82,1.14-1.98,1.7-3.5,1.7c-1.381,0-2.541-0.5-3.521-1.52
				c-0.979-1.019-1.46-2.28-1.46-3.74c0-1.48,0.48-2.721,1.46-3.741c0.98-1.02,2.14-1.52,3.521-1.52c1.519,0,2.679,0.56,3.5,1.681
				V758.998z M86.812,771.199c0.9,0,1.66-0.3,2.261-0.9c0.6-0.62,0.899-1.38,0.899-2.3c0-0.921-0.3-1.681-0.899-2.281
				c-0.601-0.62-1.36-0.92-2.261-0.92s-1.66,0.3-2.261,0.92c-0.6,0.601-0.9,1.36-0.9,2.281c0,0.92,0.301,1.68,0.9,2.3
				C85.152,770.899,85.912,771.199,86.812,771.199z"/>
			<path fill="#FFFFFF" d="M100.629,771.739c-1.019-1.019-1.54-2.26-1.54-3.74s0.52-2.721,1.54-3.741
				c1.02-1.02,2.28-1.52,3.741-1.52c1.48,0,2.72,0.5,3.74,1.52c1.02,1.02,1.541,2.261,1.541,3.741s-0.52,2.72-1.541,3.74
				c-1.019,1.02-2.26,1.52-3.74,1.52C102.909,773.259,101.65,772.759,100.629,771.739z M104.37,771.159c0.88,0,1.62-0.3,2.221-0.9
				c0.6-0.6,0.899-1.36,0.899-2.26c0-0.9-0.3-1.661-0.899-2.261c-0.601-0.601-1.341-0.9-2.221-0.9s-1.62,0.3-2.221,0.9
				c-0.6,0.6-0.9,1.36-0.9,2.261c0,0.899,0.301,1.66,0.9,2.26C102.75,770.859,103.49,771.159,104.37,771.159z"/>
			<path fill="#FFFFFF" d="M116.488,760.818c-1.58-0.141-2.36,0.519-2.36,1.98v0.2h2.36v2.08h-2.36v7.921h-2.16v-7.921h-1.52v-2.08
				h1.52v-0.2c0-2.741,1.56-4.241,4.52-4.061V760.818z"/>
			<path fill="#FFFFFF" d="M134.269,762.998h2.28l-3.14,10.001h-2.121l-2.08-6.741l-2.1,6.741h-2.12l-3.14-10.001h2.28l1.94,6.901
				l2.1-6.901h2.06l2.08,6.901L134.269,762.998z"/>
			<path fill="#FFFFFF" d="M138.725,771.739c-1.019-1.019-1.54-2.26-1.54-3.74s0.52-2.721,1.54-3.741
				c1.02-1.02,2.28-1.52,3.741-1.52c1.48,0,2.72,0.5,3.74,1.52c1.02,1.02,1.541,2.261,1.541,3.741s-0.52,2.72-1.541,3.74
				c-1.019,1.02-2.26,1.52-3.74,1.52C141.006,773.259,139.746,772.759,138.725,771.739z M142.466,771.159c0.88,0,1.62-0.3,2.221-0.9
				c0.6-0.6,0.899-1.36,0.899-2.26c0-0.9-0.3-1.661-0.899-2.261c-0.601-0.601-1.341-0.9-2.221-0.9c-0.88,0-1.62,0.3-2.221,0.9
				c-0.6,0.6-0.9,1.36-0.9,2.261c0,0.899,0.301,1.66,0.9,2.26C140.846,770.859,141.587,771.159,142.466,771.159z"/>
			<path fill="#FFFFFF" d="M151.865,764.678c0.54-1.24,1.58-1.86,3.08-1.86v2.341c-0.819-0.061-1.54,0.14-2.16,0.6
				c-0.62,0.44-0.92,1.181-0.92,2.201v5.041h-2.16v-10.001h2.16V764.678z"/>
			<path fill="#FFFFFF" d="M165.385,772.999h-2.581l-4.1-4.621v4.621h-2.16v-14.002h2.16v8.421l3.881-4.42h2.64l-4.401,4.9
				L165.385,772.999z"/>
		</g>
		<g>
			<path fill="#FFFFFF" d="M34.075,613.869l1.98-1.16c0.56,1.58,1.721,2.36,3.48,2.36c1.74,0,2.6-0.74,2.6-1.84
				c0-0.58-0.24-1-0.7-1.301c-0.46-0.3-1.3-0.64-2.48-1c-1.34-0.4-2-0.66-2.94-1.28c-0.9-0.64-1.36-1.56-1.36-2.821
				c0-1.24,0.44-2.221,1.32-2.94c0.88-0.74,1.94-1.101,3.18-1.101c2.24,0,3.98,1.16,4.88,3.08l-1.94,1.12
				c-0.58-1.3-1.56-1.96-2.94-1.96c-1.34,0-2.2,0.68-2.2,1.74c0,1.04,0.68,1.52,2.82,2.18c0.54,0.18,0.92,0.3,1.16,0.4
				c0.26,0.08,0.601,0.22,1.04,0.399c0.46,0.181,0.801,0.381,1.02,0.56c0.74,0.58,1.54,1.54,1.44,2.881c0,1.26-0.46,2.28-1.381,3.02
				c-0.899,0.74-2.099,1.1-3.58,1.1C36.775,617.31,34.815,616.01,34.075,613.869z"/>
			<path fill="#FFFFFF" d="M54.475,607.048h2.161v10.001h-2.161v-1.44c-0.82,1.141-1.98,1.701-3.5,1.701
				c-1.381,0-2.541-0.501-3.521-1.52c-0.979-1.02-1.46-2.28-1.46-3.741c0-1.48,0.48-2.72,1.46-3.74
				c0.98-1.02,2.14-1.521,3.521-1.521c1.519,0,2.679,0.56,3.5,1.68V607.048z M51.315,615.25c0.9,0,1.66-0.301,2.261-0.9
				c0.6-0.62,0.899-1.381,0.899-2.301c0-0.92-0.3-1.68-0.899-2.28c-0.601-0.62-1.36-0.92-2.261-0.92s-1.66,0.3-2.261,0.92
				c-0.6,0.6-0.9,1.36-0.9,2.28c0,0.92,0.301,1.681,0.9,2.301C49.655,614.949,50.415,615.25,51.315,615.25z"/>
			<path fill="#FFFFFF" d="M64.393,604.868c-1.58-0.14-2.36,0.52-2.36,1.98v0.2h2.36v2.08h-2.36v7.921h-2.16v-7.921h-1.52v-2.08
				h1.52v-0.2c0-2.741,1.56-4.24,4.52-4.061V604.868z"/>
			<path fill="#FFFFFF" d="M66.893,612.969c0.319,1.52,1.54,2.361,3.2,2.361c1.141,0,2.001-0.421,2.581-1.24l1.78,1.04
				c-0.98,1.46-2.44,2.18-4.38,2.18c-1.621,0-2.941-0.501-3.941-1.48c-1-1.001-1.5-2.261-1.5-3.781c0-1.5,0.5-2.74,1.48-3.74
				c0.98-1.02,2.261-1.521,3.8-1.521c1.46,0,2.66,0.52,3.6,1.54c0.94,1.02,1.42,2.28,1.42,3.741c0,0.22-0.02,0.52-0.08,0.899H66.893
				z M72.754,611.209c-0.301-1.62-1.44-2.461-2.861-2.461c-1.599,0-2.72,0.94-3.02,2.461H72.754z"/>
			<path fill="#FFFFFF" d="M82.092,609.128h-2.48v4.801c0,1.28,0.84,1.26,2.48,1.18v1.94c-3.3,0.4-4.641-0.5-4.641-3.12v-4.801
				h-1.84v-2.08h1.84v-2.16l2.161-0.64v2.801h2.48V609.128z"/>
			<path fill="#FFFFFF" d="M90.991,607.048h2.3l-3.84,10.321c-0.96,2.58-2.58,3.821-4.88,3.68v-2.02
				c1.36,0.08,2.121-0.58,2.661-1.96l0.1-0.2l-4.241-9.821h2.361l2.98,7.261L90.991,607.048z"/>
		</g>
		<g>
			<path fill="#FFFFFF" d="M38.036,695.609l-3.961-14.002h2.42l2.94,10.941l3.181-10.941h2.12l3.16,10.941l2.941-10.941h2.42
				l-3.961,14.002h-2.66l-2.961-10.221l-2.98,10.221H38.036z"/>
			<path fill="#FFFFFF" d="M61.634,685.608h2.161v10.001h-2.161v-1.44c-0.82,1.141-1.98,1.701-3.5,1.701
				c-1.381,0-2.541-0.501-3.521-1.52c-0.979-1.02-1.46-2.28-1.46-3.741c0-1.48,0.48-2.72,1.46-3.74c0.98-1.02,2.14-1.52,3.521-1.52
				c1.519,0,2.679,0.56,3.5,1.68V685.608z M58.475,693.81c0.9,0,1.66-0.301,2.261-0.9c0.6-0.62,0.899-1.381,0.899-2.301
				s-0.3-1.681-0.899-2.28c-0.601-0.62-1.36-0.92-2.261-0.92c-0.9,0-1.66,0.3-2.261,0.92c-0.6,0.6-0.9,1.36-0.9,2.28
				s0.301,1.681,0.9,2.301C56.815,693.509,57.574,693.81,58.475,693.81z"/>
			<path fill="#FFFFFF" d="M68.473,687.289c0.54-1.24,1.58-1.86,3.08-1.86v2.34c-0.819-0.06-1.54,0.141-2.16,0.601
				c-0.62,0.44-0.92,1.18-0.92,2.2v5.041h-2.16v-10.001h2.16V687.289z"/>
			<path fill="#FFFFFF" d="M75.312,687.289c0.54-1.24,1.58-1.86,3.08-1.86v2.34c-0.819-0.06-1.54,0.141-2.16,0.601
				c-0.62,0.44-0.92,1.18-0.92,2.2v5.041h-2.16v-10.001h2.16V687.289z"/>
			<path fill="#FFFFFF" d="M87.452,685.608h2.161v10.001h-2.161v-1.44c-0.82,1.141-1.98,1.701-3.5,1.701
				c-1.381,0-2.541-0.501-3.521-1.52c-0.979-1.02-1.46-2.28-1.46-3.741c0-1.48,0.48-2.72,1.46-3.74c0.98-1.02,2.14-1.52,3.521-1.52
				c1.519,0,2.679,0.56,3.5,1.68V685.608z M84.292,693.81c0.9,0,1.66-0.301,2.261-0.9c0.6-0.62,0.899-1.381,0.899-2.301
				s-0.3-1.681-0.899-2.28c-0.601-0.62-1.36-0.92-2.261-0.92s-1.66,0.3-2.261,0.92c-0.6,0.6-0.9,1.36-0.9,2.28
				s0.301,1.681,0.9,2.301C82.632,693.509,83.391,693.81,84.292,693.81z"/>
			<path fill="#FFFFFF" d="M101.231,689.469v6.14h-2.16v-5.92c0-1.5-0.86-2.32-2.241-2.32c-1.519,0-2.54,0.939-2.54,2.88v5.361
				h-2.16v-10.001h2.16v1.28c0.66-1.02,1.681-1.54,3.1-1.54C99.691,685.349,101.231,686.909,101.231,689.469z"/>
			<path fill="#FFFFFF" d="M109.129,687.688h-2.48v4.801c0,1.28,0.84,1.26,2.48,1.18v1.94c-3.3,0.4-4.641-0.5-4.641-3.12v-4.801
				h-1.84v-2.08h1.84v-2.16l2.161-0.641v2.801h2.48V687.688z"/>
			<path fill="#FFFFFF" d="M111.188,683.708c-0.54-0.561-0.54-1.4,0-1.94c0.54-0.56,1.42-0.56,1.96,0c0.54,0.54,0.54,1.38-0.02,1.94
				C112.588,684.248,111.747,684.248,111.188,683.708z M111.088,695.609v-10.001h2.16v10.001H111.088z"/>
			<path fill="#FFFFFF" d="M117.448,691.529c0.319,1.52,1.54,2.361,3.2,2.361c1.141,0,2.001-0.421,2.581-1.24l1.78,1.04
				c-0.98,1.46-2.44,2.18-4.38,2.18c-1.621,0-2.94-0.501-3.941-1.48c-1-1.001-1.5-2.261-1.5-3.781c0-1.5,0.5-2.74,1.48-3.74
				c0.98-1.02,2.261-1.52,3.8-1.52c1.46,0,2.66,0.519,3.6,1.54s1.42,2.28,1.42,3.741c0,0.22-0.02,0.519-0.08,0.899H117.448z
				 M123.309,689.769c-0.301-1.62-1.44-2.461-2.861-2.461c-1.599,0-2.72,0.94-3.02,2.461H123.309z"/>
			<path fill="#FFFFFF" d="M130.806,689.668c1.54,0.341,3.541,0.98,3.501,3.121c0,0.96-0.38,1.721-1.12,2.261
				c-0.74,0.54-1.661,0.82-2.781,0.82c-1.98,0-3.44-0.881-4.08-2.341l1.86-1.08c0.34,0.96,1.08,1.44,2.22,1.44
				c1.141,0,1.701-0.381,1.701-1.121c0-0.64-0.841-1.019-1.9-1.28c-1.501-0.38-3.521-0.979-3.481-3.08c0-0.92,0.34-1.66,1.04-2.221
				c0.7-0.56,1.581-0.84,2.621-0.84c1.66,0,3.001,0.78,3.7,2.08l-1.82,1.02c-0.34-0.761-0.979-1.141-1.88-1.141
				c-0.82,0-1.461,0.36-1.461,1.06C128.926,689.029,129.766,689.369,130.806,689.668z"/>
			<path fill="#FFFFFF" d="M149.126,685.608h2.161v10.001h-2.161v-1.44c-0.82,1.141-1.98,1.701-3.5,1.701
				c-1.381,0-2.541-0.501-3.521-1.52c-0.979-1.02-1.46-2.28-1.46-3.741c0-1.48,0.48-2.72,1.46-3.74c0.98-1.02,2.14-1.52,3.521-1.52
				c1.519,0,2.679,0.56,3.5,1.68V685.608z M145.966,693.81c0.9,0,1.66-0.301,2.261-0.9c0.6-0.62,0.899-1.381,0.899-2.301
				s-0.3-1.681-0.899-2.28c-0.601-0.62-1.36-0.92-2.261-0.92s-1.66,0.3-2.261,0.92c-0.6,0.6-0.9,1.36-0.9,2.28
				s0.301,1.681,0.9,2.301C144.306,693.509,145.066,693.81,145.966,693.81z"/>
			<path fill="#FFFFFF" d="M162.905,689.469v6.14h-2.16v-5.92c0-1.5-0.86-2.32-2.241-2.32c-1.519,0-2.54,0.939-2.54,2.88v5.361
				h-2.16v-10.001h2.16v1.28c0.66-1.02,1.681-1.54,3.1-1.54C161.365,685.349,162.905,686.909,162.905,689.469z"/>
			<path fill="#FFFFFF" d="M173.143,681.608h2.161v14.002h-2.161v-1.44c-0.82,1.141-1.98,1.701-3.5,1.701
				c-1.381,0-2.541-0.501-3.521-1.52c-0.979-1.02-1.46-2.28-1.46-3.741c0-1.48,0.48-2.72,1.46-3.74c0.98-1.02,2.14-1.52,3.521-1.52
				c1.519,0,2.679,0.56,3.5,1.68V681.608z M169.984,693.81c0.9,0,1.66-0.301,2.261-0.9c0.6-0.62,0.899-1.381,0.899-2.301
				s-0.3-1.681-0.899-2.28c-0.601-0.62-1.36-0.92-2.261-0.92s-1.66,0.3-2.261,0.92c-0.6,0.6-0.9,1.36-0.9,2.28
				s0.301,1.681,0.9,2.301C168.324,693.509,169.083,693.81,169.984,693.81z"/>
			<path fill="#FFFFFF" d="M184.981,687.289c0.54-1.24,1.58-1.86,3.08-1.86v2.34c-0.819-0.06-1.54,0.141-2.16,0.601
				c-0.62,0.44-0.92,1.18-0.92,2.2v5.041h-2.16v-10.001h2.16V687.289z"/>
			<path fill="#FFFFFF" d="M190.901,691.529c0.319,1.52,1.54,2.361,3.2,2.361c1.141,0,2.001-0.421,2.581-1.24l1.78,1.04
				c-0.98,1.46-2.44,2.18-4.38,2.18c-1.621,0-2.94-0.501-3.941-1.48c-1-1.001-1.5-2.261-1.5-3.781c0-1.5,0.5-2.74,1.48-3.74
				c0.98-1.02,2.261-1.52,3.8-1.52c1.46,0,2.66,0.519,3.6,1.54s1.42,2.28,1.42,3.741c0,0.22-0.02,0.519-0.08,0.899H190.901z
				 M196.762,689.769c-0.301-1.62-1.44-2.461-2.861-2.461c-1.599,0-2.72,0.94-3.02,2.461H196.762z"/>
			<path fill="#FFFFFF" d="M204.26,689.668c1.54,0.341,3.541,0.98,3.501,3.121c0,0.96-0.38,1.721-1.12,2.261
				c-0.74,0.54-1.661,0.82-2.781,0.82c-1.98,0-3.44-0.881-4.08-2.341l1.86-1.08c0.34,0.96,1.08,1.44,2.22,1.44
				c1.141,0,1.701-0.381,1.701-1.121c0-0.64-0.841-1.019-1.901-1.28c-1.5-0.38-3.52-0.979-3.48-3.08c0-0.92,0.34-1.66,1.04-2.221
				c0.7-0.56,1.581-0.84,2.621-0.84c1.66,0,3.001,0.78,3.7,2.08l-1.82,1.02c-0.34-0.761-0.979-1.141-1.88-1.141
				c-0.82,0-1.46,0.36-1.46,1.06C202.38,689.029,203.22,689.369,204.26,689.668z"/>
			<path fill="#FFFFFF" d="M218.84,686.888c0.98,1.02,1.46,2.261,1.46,3.72c0,1.48-0.479,2.72-1.46,3.741
				c-0.98,1.019-2.14,1.52-3.52,1.52c-1.52,0-2.68-0.56-3.501-1.68v5.42h-2.16v-14.002h2.16v1.44c0.82-1.141,1.98-1.7,3.501-1.7
				C216.699,685.349,217.859,685.868,218.84,686.888z M214.979,693.81c0.9,0,1.661-0.301,2.261-0.9c0.601-0.62,0.9-1.381,0.9-2.301
				s-0.3-1.681-0.9-2.28c-0.6-0.62-1.36-0.92-2.261-0.92c-0.899,0-1.66,0.3-2.26,0.92c-0.601,0.6-0.9,1.36-0.9,2.28
				s0.3,1.681,0.9,2.301C213.319,693.509,214.079,693.81,214.979,693.81z"/>
			<path fill="#FFFFFF" d="M223.237,694.35c-1.019-1.02-1.54-2.261-1.54-3.741s0.52-2.72,1.54-3.74c1.02-1.02,2.28-1.52,3.741-1.52
				c1.48,0,2.72,0.5,3.74,1.52c1.02,1.019,1.541,2.26,1.541,3.74s-0.52,2.72-1.541,3.741c-1.019,1.019-2.26,1.52-3.74,1.52
				C225.517,695.87,224.257,695.369,223.237,694.35z M226.978,693.77c0.88,0,1.62-0.301,2.221-0.9c0.6-0.601,0.899-1.36,0.899-2.261
				s-0.3-1.66-0.899-2.261c-0.601-0.6-1.341-0.899-2.221-0.899s-1.62,0.3-2.221,0.899c-0.6,0.601-0.9,1.36-0.9,2.261
				s0.301,1.66,0.9,2.261C225.358,693.469,226.098,693.77,226.978,693.77z"/>
			<path fill="#FFFFFF" d="M243.317,689.469v6.14h-2.16v-5.92c0-1.5-0.86-2.32-2.241-2.32c-1.519,0-2.54,0.939-2.54,2.88v5.361
				h-2.16v-10.001h2.16v1.28c0.66-1.02,1.681-1.54,3.1-1.54C241.777,685.349,243.317,686.909,243.317,689.469z"/>
			<path fill="#FFFFFF" d="M249.455,689.668c1.54,0.341,3.541,0.98,3.501,3.121c0,0.96-0.38,1.721-1.12,2.261
				c-0.74,0.54-1.661,0.82-2.781,0.82c-1.98,0-3.44-0.881-4.08-2.341l1.86-1.08c0.34,0.96,1.08,1.44,2.22,1.44
				c1.141,0,1.701-0.381,1.701-1.121c0-0.64-0.841-1.019-1.901-1.28c-1.5-0.38-3.52-0.979-3.48-3.08c0-0.92,0.34-1.66,1.04-2.221
				c0.7-0.56,1.581-0.84,2.621-0.84c1.66,0,3.001,0.78,3.7,2.08l-1.82,1.02c-0.34-0.761-0.979-1.141-1.88-1.141
				c-0.82,0-1.46,0.36-1.46,1.06C247.576,689.029,248.415,689.369,249.455,689.668z"/>
			<path fill="#FFFFFF" d="M254.835,683.708c-0.54-0.561-0.54-1.4,0-1.94c0.54-0.56,1.42-0.56,1.96,0c0.54,0.54,0.54,1.38-0.02,1.94
				C256.235,684.248,255.395,684.248,254.835,683.708z M254.735,695.609v-10.001h2.16v10.001H254.735z"/>
			<path fill="#FFFFFF" d="M268.575,686.869c0.98,1.019,1.46,2.26,1.46,3.74c0,1.461-0.479,2.72-1.46,3.741
				c-0.98,1.019-2.14,1.52-3.52,1.52c-1.52,0-2.68-0.56-3.501-1.701v1.44h-2.16v-14.002h2.16v5.42c0.82-1.12,1.98-1.68,3.501-1.68
				C266.434,685.349,267.594,685.849,268.575,686.869z M264.714,693.81c0.9,0,1.661-0.301,2.261-0.9c0.601-0.62,0.9-1.381,0.9-2.301
				s-0.3-1.681-0.9-2.28c-0.6-0.62-1.36-0.92-2.261-0.92c-0.899,0-1.66,0.3-2.26,0.92c-0.601,0.6-0.9,1.36-0.9,2.28
				s0.3,1.681,0.9,2.301C263.054,693.509,263.814,693.81,264.714,693.81z"/>
			<path fill="#FFFFFF" d="M272.092,683.708c-0.54-0.561-0.54-1.4,0-1.94c0.54-0.56,1.42-0.56,1.96,0c0.54,0.54,0.54,1.38-0.02,1.94
				C273.492,684.248,272.652,684.248,272.092,683.708z M271.992,695.609v-10.001h2.16v10.001H271.992z"/>
			<path fill="#FFFFFF" d="M276.652,695.609v-14.601h2.16v14.601H276.652z"/>
			<path fill="#FFFFFF" d="M281.412,683.708c-0.54-0.561-0.54-1.4,0-1.94c0.54-0.56,1.42-0.56,1.96,0c0.54,0.54,0.54,1.38-0.02,1.94
				C282.812,684.248,281.971,684.248,281.412,683.708z M281.312,695.609v-10.001h2.16v10.001H281.312z"/>
			<path fill="#FFFFFF" d="M291.551,687.688h-2.48v4.801c0,1.28,0.84,1.26,2.48,1.18v1.94c-3.301,0.4-4.641-0.5-4.641-3.12v-4.801
				h-1.84v-2.08h1.84v-2.16l2.161-0.641v2.801h2.48V687.688z"/>
			<path fill="#FFFFFF" d="M300.45,685.608h2.3l-3.84,10.321c-0.96,2.58-2.58,3.821-4.88,3.68v-2.02
				c1.36,0.08,2.121-0.58,2.661-1.96l0.1-0.2l-4.241-9.821h2.361l2.98,7.261L300.45,685.608z"/>
		</g>
		<g>
			<path fill="#FFFFFF" d="M39.236,447.059c1.32,0,2.42,0.44,3.3,1.32c0.9,0.88,1.34,1.98,1.34,3.281c0,1.3-0.439,2.38-1.34,3.28
				c-0.881,0.88-1.98,1.32-3.3,1.32h-2.86v4.8h-2.301v-14.002H39.236z M39.236,454.1c1.36,0,2.341-1.02,2.341-2.44
				c0-1.421-0.98-2.441-2.341-2.441h-2.86v4.881H39.236z"/>
			<path fill="#FFFFFF" d="M46.735,456.98c0.319,1.52,1.54,2.361,3.2,2.361c1.141,0,2.001-0.421,2.581-1.24l1.78,1.04
				c-0.98,1.46-2.44,2.18-4.38,2.18c-1.621,0-2.941-0.501-3.941-1.48c-1-1.001-1.5-2.261-1.5-3.781c0-1.5,0.5-2.74,1.48-3.74
				c0.98-1.02,2.261-1.52,3.8-1.52c1.46,0,2.66,0.519,3.6,1.54s1.42,2.28,1.42,3.741c0,0.22-0.02,0.519-0.08,0.899H46.735z
				 M52.596,455.22c-0.301-1.62-1.44-2.461-2.861-2.461c-1.599,0-2.72,0.94-3.02,2.461H52.596z"/>
			<path fill="#FFFFFF" d="M58.834,452.74c0.54-1.24,1.58-1.86,3.08-1.86v2.34c-0.819-0.06-1.54,0.141-2.16,0.601
				c-0.62,0.44-0.92,1.18-0.92,2.2v5.041h-2.16V451.06h2.16V452.74z"/>
			<path fill="#FFFFFF" d="M66.973,455.12c1.54,0.341,3.541,0.98,3.501,3.121c0,0.96-0.38,1.721-1.12,2.261
				c-0.74,0.54-1.661,0.82-2.781,0.82c-1.98,0-3.44-0.881-4.08-2.341l1.86-1.08c0.34,0.96,1.08,1.44,2.22,1.44
				c1.141,0,1.701-0.381,1.701-1.121c0-0.64-0.841-1.019-1.9-1.28c-1.501-0.38-3.521-0.979-3.481-3.08c0-0.92,0.34-1.66,1.04-2.221
				c0.7-0.56,1.581-0.84,2.621-0.84c1.66,0,3.001,0.78,3.7,2.08l-1.82,1.02c-0.34-0.761-0.979-1.141-1.88-1.141
				c-0.82,0-1.461,0.36-1.461,1.06C65.092,454.48,65.933,454.82,66.973,455.12z"/>
			<path fill="#FFFFFF" d="M72.352,449.159c-0.54-0.56-0.54-1.4,0-1.94c0.54-0.561,1.42-0.561,1.96,0c0.54,0.54,0.54,1.38-0.02,1.94
				C73.753,449.699,72.912,449.699,72.352,449.159z M72.253,461.061V451.06h2.16v10.001H72.253z"/>
			<path fill="#FFFFFF" d="M80.672,455.12c1.54,0.341,3.541,0.98,3.501,3.121c0,0.96-0.38,1.721-1.12,2.261
				c-0.74,0.54-1.661,0.82-2.781,0.82c-1.98,0-3.44-0.881-4.08-2.341l1.86-1.08c0.34,0.96,1.08,1.44,2.22,1.44
				c1.141,0,1.701-0.381,1.701-1.121c0-0.64-0.841-1.019-1.901-1.28c-1.5-0.38-3.52-0.979-3.48-3.08c0-0.92,0.34-1.66,1.04-2.221
				c0.7-0.56,1.581-0.84,2.621-0.84c1.66,0,3.001,0.78,3.7,2.08l-1.82,1.02c-0.34-0.761-0.979-1.141-1.88-1.141
				c-0.82,0-1.46,0.36-1.46,1.06C78.792,454.48,79.632,454.82,80.672,455.12z"/>
			<path fill="#FFFFFF" d="M91.252,453.139h-2.48v4.801c0,1.28,0.84,1.26,2.48,1.18v1.94c-3.3,0.4-4.641-0.5-4.641-3.12v-4.801
				h-1.84v-2.08h1.84v-2.16l2.161-0.641v2.801h2.48V453.139z"/>
			<path fill="#FFFFFF" d="M94.51,456.98c0.319,1.52,1.54,2.361,3.2,2.361c1.141,0,2.001-0.421,2.581-1.24l1.78,1.04
				c-0.98,1.46-2.44,2.18-4.38,2.18c-1.621,0-2.941-0.501-3.941-1.48c-1-1.001-1.5-2.261-1.5-3.781c0-1.5,0.5-2.74,1.48-3.74
				c0.98-1.02,2.261-1.52,3.8-1.52c1.46,0,2.66,0.519,3.6,1.54c0.94,1.02,1.42,2.28,1.42,3.741c0,0.22-0.02,0.519-0.08,0.899H94.51z
				 M100.371,455.22c-0.301-1.62-1.44-2.461-2.861-2.461c-1.599,0-2.72,0.94-3.02,2.461H100.371z"/>
			<path fill="#FFFFFF" d="M113.55,454.921v6.14h-2.16v-5.92c0-1.5-0.86-2.32-2.241-2.32c-1.519,0-2.54,0.939-2.54,2.88v5.361h-2.16
				V451.06h2.16v1.28c0.66-1.02,1.681-1.54,3.1-1.54C112.01,450.8,113.55,452.36,113.55,454.921z"/>
			<path fill="#FFFFFF" d="M116.807,459.801c-1-1.02-1.5-2.261-1.5-3.741c0-1.5,0.5-2.74,1.5-3.74c1.02-1.02,2.28-1.52,3.781-1.52
				c1.94,0,3.66,1,4.461,2.58l-1.86,1.08c-0.46-0.96-1.421-1.54-2.621-1.54c-0.88,0-1.62,0.3-2.22,0.9
				c-0.58,0.6-0.881,1.34-0.881,2.24c0,0.9,0.301,1.64,0.881,2.24c0.6,0.601,1.34,0.9,2.22,0.9c1.181,0,2.18-0.6,2.661-1.54
				l1.86,1.06c-0.86,1.599-2.56,2.6-4.501,2.6C119.088,461.321,117.828,460.82,116.807,459.801z"/>
			<path fill="#FFFFFF" d="M128.187,456.98c0.319,1.52,1.54,2.361,3.2,2.361c1.141,0,2.001-0.421,2.581-1.24l1.78,1.04
				c-0.98,1.46-2.44,2.18-4.38,2.18c-1.621,0-2.941-0.501-3.941-1.48c-1-1.001-1.5-2.261-1.5-3.781c0-1.5,0.5-2.74,1.48-3.74
				c0.98-1.02,2.261-1.52,3.8-1.52c1.46,0,2.66,0.519,3.6,1.54c0.94,1.02,1.42,2.28,1.42,3.741c0,0.22-0.02,0.519-0.08,0.899
				H128.187z M134.048,455.22c-0.301-1.62-1.44-2.461-2.861-2.461c-1.599,0-2.72,0.94-3.02,2.461H134.048z"/>
			<path fill="#FFFFFF" d="M143.225,449.159c-0.54-0.56-0.54-1.4,0-1.94c0.54-0.561,1.42-0.561,1.96,0
				c0.54,0.54,0.54,1.38-0.02,1.94C144.625,449.699,143.785,449.699,143.225,449.159z M143.125,461.061V451.06h2.16v10.001H143.125z
				"/>
			<path fill="#FFFFFF" d="M156.886,454.921v6.14h-2.16v-5.92c0-1.5-0.86-2.32-2.241-2.32c-1.519,0-2.54,0.939-2.54,2.88v5.361
				h-2.16V451.06h2.16v1.28c0.66-1.02,1.681-1.54,3.1-1.54C155.346,450.8,156.886,452.36,156.886,454.921z"/>
			<path fill="#FFFFFF" d="M164.204,461.061v-14.601h2.16v14.601H164.204z"/>
			<path fill="#FFFFFF" d="M170.564,456.98c0.319,1.52,1.54,2.361,3.2,2.361c1.141,0,2.001-0.421,2.581-1.24l1.78,1.04
				c-0.98,1.46-2.44,2.18-4.38,2.18c-1.621,0-2.94-0.501-3.941-1.48c-1-1.001-1.5-2.261-1.5-3.781c0-1.5,0.5-2.74,1.48-3.74
				c0.98-1.02,2.261-1.52,3.8-1.52c1.46,0,2.66,0.519,3.6,1.54s1.42,2.28,1.42,3.741c0,0.22-0.02,0.519-0.08,0.899H170.564z
				 M176.424,455.22c-0.301-1.62-1.44-2.461-2.861-2.461c-1.599,0-2.72,0.94-3.02,2.461H176.424z"/>
			<path fill="#FFFFFF" d="M188.362,451.06h2.161v10.001h-2.161v-1.44c-0.82,1.141-1.98,1.701-3.5,1.701
				c-1.381,0-2.541-0.501-3.521-1.52c-0.979-1.02-1.46-2.28-1.46-3.741c0-1.48,0.48-2.72,1.46-3.74c0.98-1.02,2.14-1.52,3.521-1.52
				c1.519,0,2.679,0.56,3.5,1.68V451.06z M185.202,459.261c0.9,0,1.66-0.301,2.261-0.9c0.6-0.62,0.899-1.381,0.899-2.301
				c0-0.92-0.3-1.681-0.899-2.28c-0.601-0.62-1.36-0.92-2.261-0.92s-1.66,0.3-2.261,0.92c-0.6,0.6-0.9,1.36-0.9,2.28
				c0,0.92,0.301,1.681,0.9,2.301C183.542,458.96,184.302,459.261,185.202,459.261z"/>
			<path fill="#FFFFFF" d="M195.201,452.74c0.54-1.24,1.58-1.86,3.08-1.86v2.34c-0.819-0.06-1.54,0.141-2.16,0.601
				c-0.62,0.44-0.92,1.18-0.92,2.2v5.041h-2.16V451.06h2.16V452.74z"/>
			<path fill="#FFFFFF" d="M208.981,454.921v6.14h-2.16v-5.92c0-1.5-0.86-2.32-2.241-2.32c-1.519,0-2.54,0.939-2.54,2.88v5.361
				h-2.16V451.06h2.16v1.28c0.66-1.02,1.681-1.54,3.1-1.54C207.441,450.8,208.981,452.36,208.981,454.921z"/>
			<path fill="#FFFFFF" d="M211.399,449.159c-0.54-0.56-0.54-1.4,0-1.94c0.54-0.561,1.42-0.561,1.96,0
				c0.54,0.54,0.54,1.38-0.02,1.94C212.799,449.699,211.958,449.699,211.399,449.159z M211.299,461.061V451.06h2.16v10.001H211.299z
				"/>
			<path fill="#FFFFFF" d="M225.059,454.921v6.14h-2.16v-5.92c0-1.5-0.86-2.32-2.241-2.32c-1.519,0-2.54,0.939-2.54,2.88v5.361
				h-2.16V451.06h2.16v1.28c0.66-1.02,1.681-1.54,3.1-1.54C223.519,450.8,225.059,452.36,225.059,454.921z"/>
			<path fill="#FFFFFF" d="M235.337,451.06h2.121v9.541c0,1.52-0.5,2.68-1.501,3.501c-1,0.82-2.22,1.22-3.64,1.22
				c-2.301,0-3.881-0.8-4.741-2.42l1.86-1.08c0.52,1.019,1.501,1.54,2.921,1.54c1.86,0,2.98-1.02,2.98-2.76v-1.22
				c-0.82,1.16-1.98,1.74-3.48,1.74c-1.42,0-2.6-0.5-3.581-1.501c-0.979-1.019-1.46-2.24-1.46-3.66c0-1.421,0.48-2.64,1.46-3.64
				c0.98-1.02,2.161-1.52,3.581-1.52c1.5,0,2.66,0.58,3.48,1.74V451.06z M232.157,459.101c0.9,0,1.66-0.3,2.261-0.9
				c0.62-0.601,0.92-1.34,0.92-2.24c0-0.9-0.3-1.64-0.92-2.241c-0.601-0.6-1.36-0.899-2.261-0.899s-1.66,0.3-2.28,0.899
				c-0.6,0.601-0.9,1.341-0.9,2.241c0,0.9,0.301,1.639,0.9,2.24C230.497,458.801,231.257,459.101,232.157,459.101z"/>
		</g>
		<g>
			<path fill="#FFFFFF" d="M39.236,525.055c1.32,0,2.42,0.439,3.3,1.32c0.9,0.88,1.34,1.98,1.34,3.28
				c0,1.301-0.439,2.381-1.34,3.281c-0.881,0.88-1.98,1.32-3.3,1.32h-2.86v4.8h-2.301v-14.002H39.236z M39.236,532.096
				c1.36,0,2.341-1.02,2.341-2.44s-0.98-2.44-2.341-2.44h-2.86v4.88H39.236z"/>
			<path fill="#FFFFFF" d="M47.694,530.735c0.54-1.24,1.58-1.86,3.08-1.86v2.341c-0.819-0.061-1.54,0.14-2.16,0.6
				c-0.62,0.44-0.92,1.181-0.92,2.201v5.041h-2.16v-10.001h2.16V530.735z"/>
			<path fill="#FFFFFF" d="M52.894,537.796c-1.019-1.019-1.54-2.26-1.54-3.74s0.52-2.72,1.54-3.741c1.02-1.02,2.28-1.52,3.741-1.52
				c1.48,0,2.72,0.5,3.74,1.52c1.02,1.02,1.541,2.261,1.541,3.741s-0.52,2.72-1.541,3.74c-1.019,1.02-2.26,1.52-3.74,1.52
				C55.174,539.317,53.914,538.817,52.894,537.796z M56.635,537.216c0.88,0,1.62-0.3,2.221-0.9c0.6-0.6,0.899-1.36,0.899-2.26
				c0-0.9-0.3-1.661-0.899-2.261c-0.601-0.601-1.341-0.9-2.221-0.9s-1.62,0.3-2.221,0.9c-0.6,0.6-0.9,1.36-0.9,2.261
				c0,0.899,0.301,1.66,0.9,2.26C55.015,536.917,55.755,537.216,56.635,537.216z"/>
			<path fill="#FFFFFF" d="M68.753,526.875c-1.58-0.141-2.36,0.519-2.36,1.98v0.2h2.36v2.08h-2.36v7.921h-2.16v-7.921h-1.52v-2.08
				h1.52v-0.2c0-2.741,1.56-4.241,4.52-4.061V526.875z"/>
			<path fill="#FFFFFF" d="M71.253,534.976c0.319,1.52,1.54,2.36,3.2,2.36c1.141,0,2.001-0.42,2.581-1.24l1.78,1.04
				c-0.98,1.461-2.44,2.18-4.38,2.18c-1.621,0-2.94-0.5-3.941-1.48c-1-1-1.5-2.261-1.5-3.78c0-1.501,0.5-2.741,1.48-3.741
				c0.98-1.02,2.261-1.52,3.8-1.52c1.46,0,2.66,0.52,3.6,1.541c0.94,1.019,1.42,2.28,1.42,3.74c0,0.22-0.02,0.52-0.08,0.9H71.253z
				 M77.114,533.216c-0.301-1.62-1.44-2.46-2.861-2.46c-1.599,0-2.72,0.94-3.02,2.46H77.114z"/>
			<path fill="#FFFFFF" d="M84.612,533.116c1.54,0.34,3.541,0.98,3.501,3.12c0,0.961-0.38,1.721-1.12,2.261
				c-0.74,0.54-1.661,0.82-2.781,0.82c-1.98,0-3.44-0.88-4.08-2.341l1.86-1.08c0.34,0.96,1.08,1.44,2.22,1.44
				c1.141,0,1.701-0.38,1.701-1.12c0-0.641-0.841-1.02-1.901-1.28c-1.5-0.38-3.52-0.98-3.48-3.081c0-0.92,0.34-1.66,1.04-2.22
				c0.7-0.56,1.581-0.841,2.621-0.841c1.66,0,3.001,0.78,3.7,2.081l-1.82,1.019c-0.34-0.76-0.979-1.14-1.88-1.14
				c-0.82,0-1.46,0.359-1.46,1.06C82.732,532.476,83.572,532.816,84.612,533.116z"/>
			<path fill="#FFFFFF" d="M93.231,533.116c1.54,0.34,3.541,0.98,3.501,3.12c0,0.961-0.38,1.721-1.12,2.261
				c-0.74,0.54-1.661,0.82-2.781,0.82c-1.98,0-3.44-0.88-4.08-2.341l1.86-1.08c0.34,0.96,1.08,1.44,2.22,1.44
				c1.141,0,1.701-0.38,1.701-1.12c0-0.641-0.841-1.02-1.9-1.28c-1.501-0.38-3.521-0.98-3.481-3.081c0-0.92,0.34-1.66,1.04-2.22
				c0.7-0.56,1.581-0.841,2.621-0.841c1.66,0,3.001,0.78,3.7,2.081l-1.82,1.019c-0.34-0.76-0.979-1.14-1.88-1.14
				c-0.82,0-1.461,0.359-1.461,1.06C91.351,532.476,92.191,532.816,93.231,533.116z"/>
			<path fill="#FFFFFF" d="M98.61,527.156c-0.54-0.56-0.54-1.4,0-1.94c0.54-0.56,1.42-0.56,1.96,0c0.54,0.54,0.54,1.38-0.02,1.94
				C100.01,527.696,99.17,527.696,98.61,527.156z M98.51,539.057v-10.001h2.16v10.001H98.51z"/>
			<path fill="#FFFFFF" d="M104.149,537.796c-1.019-1.019-1.54-2.26-1.54-3.74s0.52-2.72,1.54-3.741c1.02-1.02,2.28-1.52,3.741-1.52
				c1.48,0,2.72,0.5,3.74,1.52c1.02,1.02,1.541,2.261,1.541,3.741s-0.52,2.72-1.541,3.74c-1.019,1.02-2.26,1.52-3.74,1.52
				C106.429,539.317,105.17,538.817,104.149,537.796z M107.89,537.216c0.88,0,1.62-0.3,2.221-0.9c0.6-0.6,0.899-1.36,0.899-2.26
				c0-0.9-0.3-1.661-0.899-2.261c-0.601-0.601-1.341-0.9-2.221-0.9s-1.62,0.3-2.221,0.9c-0.6,0.6-0.9,1.36-0.9,2.261
				c0,0.899,0.301,1.66,0.9,2.26C106.27,536.917,107.01,537.216,107.89,537.216z"/>
			<path fill="#FFFFFF" d="M124.229,532.916v6.141h-2.16v-5.921c0-1.5-0.86-2.32-2.241-2.32c-1.519,0-2.54,0.94-2.54,2.881v5.361
				h-2.16v-10.001h2.16v1.28c0.66-1.02,1.681-1.541,3.1-1.541C122.689,528.795,124.229,530.356,124.229,532.916z"/>
			<path fill="#FFFFFF" d="M134.468,529.056h2.161v10.001h-2.161v-1.44c-0.82,1.14-1.98,1.7-3.5,1.7c-1.381,0-2.541-0.5-3.521-1.52
				c-0.979-1.019-1.46-2.28-1.46-3.74c0-1.48,0.48-2.72,1.46-3.741c0.98-1.02,2.14-1.52,3.521-1.52c1.519,0,2.679,0.56,3.5,1.681
				V529.056z M131.308,537.256c0.9,0,1.66-0.3,2.261-0.9c0.6-0.62,0.899-1.38,0.899-2.3c0-0.921-0.3-1.681-0.899-2.281
				c-0.601-0.62-1.36-0.92-2.261-0.92s-1.66,0.3-2.261,0.92c-0.6,0.601-0.9,1.36-0.9,2.281c0,0.92,0.301,1.68,0.9,2.3
				C129.648,536.957,130.408,537.256,131.308,537.256z"/>
			<path fill="#FFFFFF" d="M139.146,539.057v-14.602h2.16v14.602H139.146z"/>
			<path fill="#FFFFFF" d="M143.905,527.156c-0.54-0.56-0.54-1.4,0-1.94c0.54-0.56,1.42-0.56,1.96,0c0.54,0.54,0.54,1.38-0.02,1.94
				C145.305,527.696,144.465,527.696,143.905,527.156z M143.805,539.057v-10.001h2.16v10.001H143.805z"/>
			<path fill="#FFFFFF" d="M152.225,533.116c1.54,0.34,3.541,0.98,3.501,3.12c0,0.961-0.38,1.721-1.12,2.261
				c-0.74,0.54-1.661,0.82-2.781,0.82c-1.98,0-3.44-0.88-4.08-2.341l1.86-1.08c0.34,0.96,1.08,1.44,2.22,1.44
				c1.141,0,1.701-0.38,1.701-1.12c0-0.641-0.841-1.02-1.901-1.28c-1.5-0.38-3.52-0.98-3.48-3.081c0-0.92,0.34-1.66,1.04-2.22
				c0.7-0.56,1.581-0.841,2.621-0.841c1.66,0,3.001,0.78,3.7,2.081l-1.82,1.019c-0.34-0.76-0.979-1.14-1.88-1.14
				c-0.82,0-1.46,0.359-1.46,1.06C150.346,532.476,151.185,532.816,152.225,533.116z"/>
			<path fill="#FFFFFF" d="M172.326,532.856v6.201h-2.161v-6.061c0-1.38-0.74-2.18-1.94-2.18c-1.34,0-2.18,0.881-2.18,2.64v5.601
				h-2.16v-6.061c0-1.38-0.68-2.18-1.88-2.18c-1.301,0-2.221,0.9-2.221,2.64v5.601h-2.16v-10.001h2.16v1.2
				c0.64-0.98,1.6-1.461,2.86-1.461c1.28,0,2.221,0.52,2.841,1.581c0.66-1.06,1.681-1.581,3.06-1.581
				C170.806,528.795,172.326,530.376,172.326,532.856z"/>
		</g>
	</g>
</g>
</svg>
