<?xml version="1.0" encoding="utf-8"?>
<!-- Generator: Adobe Illustrator 21.0.0, SVG Export Plug-In . SVG Version: 6.00 Build 0)  -->
<svg version="1.1" id="Слой_1" xmlns="http://www.w3.org/2000/svg" xmlns:xlink="http://www.w3.org/1999/xlink" x="0px" y="0px"
	 width="705.971px" height="268px" viewBox="0 0 705.971 268" enable-background="new 0 0 705.971 268" xml:space="preserve">
<g>
	<path fill="#FFFFFF" d="M534.848,134.021c0-5.48-4.442-9.922-9.922-9.922c-5.145,0-9.374,3.916-9.872,8.93h-32.163l34.86-76.009
		h33.43c0.498,5.014,4.727,8.93,9.872,8.93c5.48,0,9.922-4.442,9.922-9.922s-4.442-9.922-9.922-9.922
		c-5.145,0-9.374,3.916-9.872,8.93h-32.52L543.902,0H297.043L271.82,54.994h-32.873c-0.498-5.014-4.727-8.93-9.872-8.93
		c-5.48,0-9.922,4.442-9.922,9.922s4.442,9.922,9.922,9.922c5.145,0,9.374-3.916,9.872-8.93h31.963l-34.861,76.009h-33.073
		c-0.498-5.014-4.727-8.93-9.872-8.93c-5.48,0-9.922,4.442-9.922,9.922s4.442,9.922,9.922,9.922c5.145,0,9.374-3.916,9.872-8.93
		h32.162l-34.861,76.009H166.85c-0.498-5.014-4.727-8.93-9.872-8.93c-5.48,0-9.922,4.442-9.922,9.922s4.442,9.922,9.922,9.922
		c5.145,0,9.374-3.916,9.872-8.93h32.518L174.127,268h246.861l25.222-54.994h32.873c0.498,5.014,4.727,8.93,9.872,8.93
		c5.48,0,9.922-4.442,9.922-9.922s-4.442-9.922-9.922-9.922c-5.145,0-9.374,3.916-9.872,8.93h-31.963l34.86-76.009h33.073
		c0.498,5.014,4.727,8.93,9.872,8.93C530.406,143.942,534.848,139.5,534.848,134.021z M533.759,8.566l-57.082,124.463h-54.675
		v-12.706L533.759,8.566z M296.03,15.759v117.228h-53.766L296.03,15.759z M184.27,259.436l57.084-124.464h54.676v12.706
		L184.27,259.436z M416.352,262.349L301.679,147.677V5.65l114.673,114.673V262.349z M422.002,252.241V135.013h53.765
		L422.002,252.241z"/>
	<path fill="#FFFFFF" d="M152.351,60.125c1.32,0,2.561-0.34,3.74-1.021l1.541,1.581l1.62-1.461l-1.481-1.521
		c1.221-1.36,1.841-2.981,1.841-4.841c0-2.021-0.7-3.741-2.121-5.141c-1.42-1.42-3.12-2.121-5.141-2.121
		c-2.021,0-3.721,0.7-5.142,2.121c-1.42,1.4-2.12,3.121-2.12,5.141s0.7,3.741,2.12,5.161
		C148.631,59.425,150.331,60.125,152.351,60.125z M148.831,49.283c0.96-0.96,2.14-1.44,3.521-1.44c1.38,0,2.561,0.48,3.521,1.44
		c0.96,0.96,1.44,2.16,1.44,3.581c0,1.22-0.38,2.3-1.12,3.221l-2.681-2.741l-1.62,1.461l2.561,2.621c-0.66,0.3-1.36,0.46-2.101,0.46
		c-1.381,0-2.561-0.48-3.521-1.44c-0.961-0.96-1.441-2.16-1.441-3.581C147.39,51.443,147.87,50.243,148.831,49.283z"/>
	<path fill="#FFFFFF" d="M165.431,60.125c1.42,0,2.441-0.521,3.101-1.541v1.28h2.16V49.863h-2.16v5.361
		c0,1.941-1.021,2.881-2.541,2.881c-1.38,0-2.24-0.82-2.24-2.321v-5.921h-2.16v6.141C161.59,58.565,163.13,60.125,165.431,60.125z"
		/>
	<path fill="#FFFFFF" d="M177.632,60.125c1.52,0,2.68-0.561,3.5-1.701v1.44h2.161V49.863h-2.161v1.42
		c-0.82-1.12-1.981-1.68-3.5-1.68c-1.381,0-2.541,0.5-3.522,1.521c-0.98,1.02-1.46,2.26-1.46,3.741c0,1.461,0.48,2.721,1.46,3.741
		C175.091,59.625,176.251,60.125,177.632,60.125z M175.711,52.583c0.601-0.62,1.36-0.92,2.261-0.92s1.66,0.3,2.261,0.92
		c0.6,0.6,0.899,1.36,0.899,2.281c0,0.92-0.3,1.68-0.899,2.3c-0.601,0.6-1.36,0.9-2.261,0.9s-1.66-0.3-2.261-0.9
		c-0.6-0.62-0.9-1.38-0.9-2.3C174.811,53.943,175.111,53.183,175.711,52.583z"/>
	<rect x="185.811" y="45.261" fill="#FFFFFF" width="2.16" height="14.604"/>
	<rect x="190.471" y="49.863" fill="#FFFFFF" width="2.16" height="10.002"/>
	<path fill="#FFFFFF" d="M192.512,47.962c0.56-0.561,0.56-1.4,0.02-1.941c-0.54-0.561-1.42-0.561-1.96,0
		c-0.54,0.54-0.54,1.38,0,1.941C191.132,48.502,191.972,48.502,192.512,47.962z"/>
	<path fill="#FFFFFF" d="M196.071,56.744c0,2.621,1.341,3.521,4.642,3.121v-1.941c-1.641,0.08-2.481,0.1-2.481-1.18v-4.801h2.481
		v-2.08h-2.481v-2.801l-2.161,0.64v2.161h-1.84v2.08h1.84V56.744z"/>
	<path fill="#FFFFFF" d="M205.852,59.885c-0.54,1.38-1.301,2.04-2.661,1.96v2.021c2.301,0.141,3.921-1.101,4.881-3.68l3.841-10.323
		h-2.3l-2.561,7.262l-2.981-7.262h-2.361l4.241,9.822L205.852,59.885z"/>
	<path fill="#FFFFFF" d="M584.593,60.598c-1.76,0-2.921-0.78-3.481-2.36l-1.981,1.16c0.74,2.141,2.7,3.442,5.402,3.442
		c1.481,0,2.681-0.36,3.58-1.101c0.921-0.74,1.381-1.761,1.381-3.021c0.1-1.341-0.7-2.301-1.44-2.881
		c-0.22-0.18-0.561-0.38-1.021-0.561c-0.439-0.18-0.78-0.319-1.04-0.399c-0.24-0.101-0.62-0.221-1.16-0.4
		c-2.141-0.66-2.82-1.141-2.82-2.181c0-1.06,0.86-1.74,2.2-1.74c1.38,0,2.36,0.66,2.941,1.961l1.94-1.121
		c-0.9-1.921-2.641-3.081-4.881-3.081c-1.24,0-2.301,0.36-3.181,1.101c-0.88,0.72-1.32,1.7-1.32,2.941c0,1.26,0.46,2.181,1.36,2.821
		c0.94,0.62,1.601,0.88,2.941,1.28c1.181,0.36,2.021,0.7,2.481,1c0.46,0.301,0.7,0.721,0.7,1.301
		C587.194,59.857,586.334,60.598,584.593,60.598z"/>
	<path fill="#FFFFFF" d="M596.034,62.839c1.52,0,2.68-0.561,3.5-1.701v1.44h2.161V52.576h-2.161v1.42
		c-0.82-1.12-1.981-1.68-3.5-1.68c-1.381,0-2.541,0.501-3.522,1.521c-0.98,1.02-1.46,2.26-1.46,3.74c0,1.461,0.48,2.721,1.46,3.741
		C593.493,62.338,594.653,62.839,596.034,62.839z M594.113,55.297c0.601-0.62,1.36-0.92,2.261-0.92c0.9,0,1.66,0.3,2.261,0.92
		c0.6,0.6,0.899,1.36,0.899,2.28c0,0.92-0.3,1.681-0.899,2.301c-0.601,0.6-1.36,0.9-2.261,0.9c-0.9,0-1.66-0.301-2.261-0.9
		c-0.6-0.62-0.9-1.381-0.9-2.301C593.213,56.657,593.514,55.896,594.113,55.297z"/>
	<path fill="#FFFFFF" d="M604.933,62.578h2.16v-7.922h2.36v-2.08h-2.36v-0.2c0-1.461,0.78-2.121,2.36-1.981v-2.081
		c-2.96-0.18-4.521,1.32-4.521,4.061v0.2h-1.521v2.08h1.521V62.578z"/>
	<path fill="#FFFFFF" d="M615.135,62.839c1.941,0,3.401-0.721,4.381-2.181l-1.78-1.04c-0.58,0.819-1.44,1.24-2.581,1.24
		c-1.66,0-2.881-0.841-3.2-2.361h7.961c0.061-0.38,0.08-0.68,0.08-0.899c0-1.461-0.479-2.721-1.42-3.741
		c-0.94-1.021-2.141-1.541-3.601-1.541c-1.54,0-2.82,0.501-3.801,1.521c-0.981,1-1.481,2.24-1.481,3.74c0,1.521,0.5,2.78,1.5,3.781
		C612.193,62.338,613.514,62.839,615.135,62.839z M614.954,54.276c1.421,0,2.561,0.841,2.861,2.461h-5.882
		C612.233,55.217,613.354,54.276,614.954,54.276z"/>
	<path fill="#FFFFFF" d="M622.513,59.458c0,2.62,1.341,3.521,4.642,3.12v-1.941c-1.641,0.08-2.481,0.101-2.481-1.18v-4.802h2.481
		v-2.08h-2.481v-2.801l-2.161,0.64v2.161h-1.84v2.08h1.84V59.458z"/>
	<path fill="#FFFFFF" d="M632.295,62.599c-0.54,1.38-1.301,2.04-2.661,1.96v2.021c2.301,0.141,3.921-1.101,4.881-3.681l3.841-10.323
		h-2.3l-2.561,7.262l-2.981-7.262h-2.361l4.241,9.823L632.295,62.599z"/>
	<polygon fill="#FFFFFF" points="561.144,114.942 558.724,114.942 555.783,125.885 552.623,114.942 550.502,114.942 
		547.321,125.885 544.38,114.942 541.96,114.942 545.921,128.946 548.581,128.946 551.562,118.724 554.523,128.946 557.183,128.946 
			"/>
	<path fill="#FFFFFF" d="M571.684,128.946v-10.002h-2.161v1.42c-0.82-1.12-1.981-1.68-3.5-1.68c-1.381,0-2.541,0.5-3.522,1.521
		c-0.979,1.02-1.46,2.26-1.46,3.74c0,1.461,0.481,2.721,1.46,3.741c0.981,1.02,2.141,1.521,3.522,1.521c1.52,0,2.68-0.561,3.5-1.701
		v1.44H571.684z M568.623,126.246c-0.601,0.6-1.36,0.9-2.261,0.9c-0.9,0-1.66-0.301-2.261-0.9c-0.6-0.62-0.9-1.381-0.9-2.301
		s0.301-1.681,0.9-2.28c0.601-0.62,1.36-0.92,2.261-0.92c0.9,0,1.66,0.3,2.261,0.92c0.6,0.6,0.899,1.36,0.899,2.28
		S569.223,125.625,568.623,126.246z"/>
	<path fill="#FFFFFF" d="M576.362,123.905c0-1.021,0.3-1.76,0.92-2.2c0.62-0.46,1.341-0.66,2.16-0.601v-2.34
		c-1.5,0-2.54,0.62-3.08,1.86v-1.681h-2.16v10.002h2.16V123.905z"/>
	<path fill="#FFFFFF" d="M586.282,121.104v-2.34c-1.5,0-2.54,0.62-3.08,1.86v-1.681h-2.16v10.002h2.16v-5.041
		c0-1.021,0.3-1.76,0.92-2.2C584.742,121.244,585.463,121.044,586.282,121.104z"/>
	<path fill="#FFFFFF" d="M595.343,127.505v1.44h2.161v-10.002h-2.161v1.42c-0.82-1.12-1.981-1.68-3.5-1.68
		c-1.381,0-2.541,0.5-3.522,1.521c-0.979,1.02-1.46,2.26-1.46,3.74c0,1.461,0.481,2.721,1.46,3.741
		c0.981,1.02,2.141,1.521,3.522,1.521C593.363,129.207,594.523,128.646,595.343,127.505z M592.183,127.146
		c-0.9,0-1.66-0.301-2.261-0.9c-0.6-0.62-0.9-1.381-0.9-2.301s0.301-1.681,0.9-2.28c0.601-0.62,1.36-0.92,2.261-0.92
		c0.9,0,1.66,0.3,2.261,0.92c0.6,0.6,0.899,1.36,0.899,2.28s-0.3,1.681-0.899,2.301
		C593.843,126.845,593.083,127.146,592.183,127.146z"/>
	<path fill="#FFFFFF" d="M600.022,118.943v10.002h2.16v-5.362c0-1.941,1.021-2.88,2.54-2.88c1.381,0,2.241,0.82,2.241,2.32v5.921
		h2.16v-6.141c0-2.561-1.54-4.121-3.841-4.121c-1.42,0-2.441,0.52-3.101,1.54v-1.28H600.022z"/>
	<path fill="#FFFFFF" d="M617.024,121.024v-2.08h-2.481v-2.801l-2.161,0.641v2.16h-1.84v2.08h1.84v4.802
		c0,2.62,1.341,3.521,4.642,3.12v-1.941c-1.641,0.08-2.481,0.101-2.481-1.18v-4.802H617.024z"/>
	<rect x="618.983" y="118.943" fill="#FFFFFF" width="2.16" height="10.002"/>
	<path fill="#FFFFFF" d="M619.083,117.043c0.56,0.54,1.4,0.54,1.941,0c0.56-0.561,0.56-1.4,0.02-1.941
		c-0.54-0.561-1.42-0.561-1.96,0C618.543,115.642,618.543,116.482,619.083,117.043z"/>
	<path fill="#FFFFFF" d="M633.385,123.965c0-1.461-0.479-2.721-1.42-3.741s-2.141-1.54-3.601-1.54c-1.54,0-2.82,0.5-3.801,1.521
		c-0.98,1-1.481,2.24-1.481,3.74c0,1.521,0.5,2.78,1.5,3.781c1.001,0.98,2.32,1.481,3.942,1.481c1.941,0,3.401-0.721,4.381-2.181
		l-1.78-1.04c-0.58,0.819-1.44,1.24-2.581,1.24c-1.66,0-2.881-0.841-3.2-2.361h7.961
		C633.366,124.485,633.385,124.185,633.385,123.965z M625.323,123.105c0.3-1.521,1.421-2.461,3.021-2.461
		c1.421,0,2.561,0.841,2.862,2.461H625.323z"/>
	<path fill="#FFFFFF" d="M635.663,119.524c-0.7,0.561-1.04,1.301-1.04,2.221c-0.04,2.101,1.981,2.7,3.482,3.08
		c1.06,0.261,1.9,0.641,1.9,1.28c0,0.74-0.561,1.121-1.701,1.121c-1.14,0-1.88-0.48-2.22-1.44l-1.86,1.08
		c0.64,1.46,2.1,2.341,4.08,2.341c1.12,0,2.041-0.28,2.781-0.82c0.74-0.54,1.12-1.301,1.12-2.261c0.04-2.141-1.961-2.78-3.501-3.121
		c-1.04-0.3-1.881-0.64-1.881-1.3c0-0.7,0.641-1.061,1.461-1.061c0.9,0,1.54,0.38,1.88,1.141l1.82-1.021
		c-0.699-1.3-2.04-2.08-3.7-2.08C637.244,118.684,636.363,118.964,635.663,119.524z"/>
	<path fill="#FFFFFF" d="M552.327,142.405c-0.82-1.12-1.981-1.68-3.5-1.68c-1.381,0-2.541,0.5-3.522,1.521
		c-0.98,1.02-1.46,2.26-1.46,3.74c0,1.461,0.48,2.721,1.46,3.741c0.981,1.02,2.141,1.521,3.522,1.521c1.52,0,2.68-0.561,3.5-1.701
		v1.44h2.161v-10.002h-2.161V142.405z M551.428,148.288c-0.601,0.6-1.36,0.9-2.261,0.9s-1.66-0.301-2.261-0.9
		c-0.6-0.62-0.9-1.381-0.9-2.301s0.301-1.681,0.9-2.28c0.601-0.62,1.36-0.92,2.261-0.92s1.66,0.3,2.261,0.92
		c0.6,0.6,0.899,1.36,0.899,2.28S552.027,147.667,551.428,148.288z"/>
	<path fill="#FFFFFF" d="M562.267,140.726c-1.42,0-2.441,0.52-3.101,1.54v-1.28h-2.16v10.002h2.16v-5.362
		c0-1.941,1.021-2.88,2.54-2.88c1.381,0,2.241,0.82,2.241,2.32v5.921h2.16v-6.141C566.108,142.286,564.568,140.726,562.267,140.726z
		"/>
	<path fill="#FFFFFF" d="M576.348,149.547v1.44h2.161v-14.004h-2.161v5.421c-0.82-1.12-1.981-1.68-3.5-1.68
		c-1.381,0-2.541,0.5-3.522,1.521c-0.98,1.02-1.46,2.26-1.46,3.74c0,1.461,0.48,2.721,1.46,3.741c0.98,1.02,2.141,1.521,3.522,1.521
		C574.367,151.249,575.528,150.688,576.348,149.547z M570.026,145.987c0-0.92,0.301-1.681,0.9-2.28c0.601-0.62,1.36-0.92,2.261-0.92
		c0.9,0,1.66,0.3,2.261,0.92c0.6,0.6,0.899,1.36,0.899,2.28s-0.3,1.681-0.899,2.301c-0.601,0.6-1.36,0.9-2.261,0.9
		c-0.9,0-1.66-0.301-2.261-0.9C570.327,147.667,570.026,146.907,570.026,145.987z"/>
	<path fill="#FFFFFF" d="M588.187,142.666v-1.681h-2.16v10.002h2.16v-5.041c0-1.021,0.3-1.76,0.92-2.2
		c0.62-0.46,1.341-0.66,2.16-0.601v-2.34C589.768,140.806,588.727,141.426,588.187,142.666z"/>
	<path fill="#FFFFFF" d="M601.669,149.068l-1.78-1.04c-0.58,0.819-1.44,1.24-2.581,1.24c-1.66,0-2.881-0.841-3.2-2.361h7.961
		c0.061-0.38,0.08-0.68,0.08-0.899c0-1.461-0.479-2.721-1.42-3.741c-0.94-1.021-2.141-1.54-3.601-1.54c-1.54,0-2.82,0.5-3.801,1.521
		c-0.98,1-1.481,2.24-1.481,3.74c0,1.521,0.5,2.78,1.5,3.781c1.001,0.98,2.32,1.481,3.942,1.481
		C599.229,151.249,600.689,150.528,601.669,149.068z M597.108,142.686c1.421,0,2.561,0.841,2.861,2.461h-5.882
		C594.387,143.626,595.508,142.686,597.108,142.686z"/>
	<path fill="#FFFFFF" d="M607.469,145.046c-1.04-0.3-1.88-0.64-1.88-1.3c0-0.7,0.64-1.061,1.46-1.061c0.9,0,1.54,0.38,1.88,1.141
		l1.82-1.021c-0.699-1.3-2.04-2.08-3.7-2.08c-1.04,0-1.921,0.28-2.621,0.84c-0.7,0.561-1.04,1.301-1.04,2.221
		c-0.04,2.101,1.981,2.7,3.481,3.08c1.061,0.261,1.901,0.641,1.901,1.28c0,0.74-0.561,1.121-1.701,1.121
		c-1.14,0-1.88-0.48-2.22-1.44l-1.86,1.08c0.64,1.46,2.1,2.341,4.08,2.341c1.12,0,2.041-0.28,2.781-0.82
		c0.74-0.54,1.12-1.301,1.12-2.261C611.01,146.027,609.009,145.387,607.469,145.046z"/>
	<path fill="#FFFFFF" d="M622.05,142.266c-0.98-1.021-2.141-1.54-3.521-1.54c-1.521,0-2.681,0.56-3.501,1.7v-1.44h-2.16v14.004h2.16
		v-5.421c0.82,1.12,1.981,1.681,3.501,1.681c1.38,0,2.54-0.501,3.521-1.521c0.981-1.021,1.46-2.261,1.46-3.741
		C623.51,144.527,623.031,143.286,622.05,142.266z M620.45,148.288c-0.6,0.6-1.36,0.9-2.261,0.9c-0.899,0-1.66-0.301-2.26-0.9
		c-0.601-0.62-0.9-1.381-0.9-2.301s0.3-1.681,0.9-2.28c0.6-0.62,1.36-0.92,2.26-0.92c0.9,0,1.661,0.3,2.261,0.92
		c0.601,0.6,0.9,1.36,0.9,2.28S621.05,147.667,620.45,148.288z"/>
	<path fill="#FFFFFF" d="M630.189,151.249c1.481,0,2.721-0.501,3.74-1.521c1.021-1.021,1.541-2.261,1.541-3.741
		s-0.521-2.721-1.541-3.74c-1.02-1.021-2.26-1.521-3.74-1.521c-1.461,0-2.721,0.5-3.741,1.521c-1.02,1.02-1.54,2.26-1.54,3.74
		s0.521,2.721,1.54,3.741C627.469,150.748,628.728,151.249,630.189,151.249z M627.969,143.726c0.601-0.6,1.341-0.899,2.221-0.899
		c0.88,0,1.62,0.3,2.221,0.899c0.6,0.601,0.899,1.36,0.899,2.261s-0.3,1.66-0.899,2.261c-0.601,0.6-1.341,0.9-2.221,0.9
		c-0.88,0-1.62-0.301-2.221-0.9c-0.6-0.601-0.9-1.36-0.9-2.261S627.369,144.326,627.969,143.726z"/>
	<path fill="#FFFFFF" d="M642.69,140.726c-1.42,0-2.44,0.52-3.101,1.54v-1.28h-2.16v10.002h2.16v-5.362
		c0-1.941,1.021-2.88,2.54-2.88c1.381,0,2.241,0.82,2.241,2.32v5.921h2.16v-6.141C646.531,142.286,644.991,140.726,642.69,140.726z"
		/>
	<path fill="#FFFFFF" d="M652.67,145.046c-1.04-0.3-1.88-0.64-1.88-1.3c0-0.7,0.64-1.061,1.46-1.061c0.9,0,1.54,0.38,1.88,1.141
		l1.82-1.021c-0.699-1.3-2.04-2.08-3.7-2.08c-1.04,0-1.921,0.28-2.621,0.84c-0.7,0.561-1.04,1.301-1.04,2.221
		c-0.04,2.101,1.981,2.7,3.481,3.08c1.061,0.261,1.901,0.641,1.901,1.28c0,0.74-0.561,1.121-1.701,1.121
		c-1.14,0-1.88-0.48-2.22-1.44l-1.86,1.08c0.64,1.46,2.1,2.341,4.08,2.341c1.12,0,2.041-0.28,2.781-0.82
		c0.74-0.54,1.12-1.301,1.12-2.261C656.211,146.027,654.21,145.387,652.67,145.046z"/>
	<rect x="657.95" y="140.985" fill="#FFFFFF" width="2.16" height="10.002"/>
	<path fill="#FFFFFF" d="M658.05,137.144c-0.54,0.54-0.54,1.38,0,1.941c0.561,0.54,1.4,0.54,1.941,0c0.56-0.561,0.56-1.4,0.02-1.941
		C659.47,136.584,658.59,136.584,658.05,137.144z"/>
	<path fill="#FFFFFF" d="M668.271,140.726c-1.521,0-2.681,0.56-3.501,1.68v-5.421h-2.16v14.004h2.16v-1.44
		c0.82,1.141,1.981,1.701,3.501,1.701c1.38,0,2.54-0.501,3.521-1.521c0.981-1.021,1.46-2.28,1.46-3.741
		c0-1.481-0.479-2.721-1.46-3.74C670.811,141.226,669.651,140.726,668.271,140.726z M670.191,148.288c-0.6,0.6-1.36,0.9-2.261,0.9
		c-0.899,0-1.66-0.301-2.26-0.9c-0.601-0.62-0.9-1.381-0.9-2.301s0.3-1.681,0.9-2.28c0.6-0.62,1.36-0.92,2.26-0.92
		c0.9,0,1.661,0.3,2.261,0.92c0.601,0.6,0.9,1.36,0.9,2.28S670.792,147.667,670.191,148.288z"/>
	<path fill="#FFFFFF" d="M675.31,137.144c-0.54,0.54-0.54,1.38,0,1.941c0.56,0.54,1.4,0.54,1.94,0c0.56-0.561,0.56-1.4,0.02-1.941
		C676.73,136.584,675.85,136.584,675.31,137.144z"/>
	<rect x="675.21" y="140.985" fill="#FFFFFF" width="2.16" height="10.002"/>
	<rect x="679.87" y="136.385" fill="#FFFFFF" width="2.16" height="14.603"/>
	<path fill="#FFFFFF" d="M684.63,137.144c-0.54,0.54-0.54,1.38,0,1.941c0.56,0.54,1.4,0.54,1.94,0c0.56-0.561,0.56-1.4,0.02-1.941
		C686.05,136.584,685.17,136.584,684.63,137.144z"/>
	<rect x="684.531" y="140.985" fill="#FFFFFF" width="2.16" height="10.002"/>
	<path fill="#FFFFFF" d="M692.291,138.185l-2.161,0.641v2.16h-1.84v2.08h1.84v4.802c0,2.62,1.341,3.521,4.642,3.12v-1.941
		c-1.641,0.08-2.481,0.101-2.481-1.18v-4.802h2.481v-2.08h-2.481V138.185z"/>
	<path fill="#FFFFFF" d="M703.671,140.985l-2.561,7.262l-2.981-7.262h-2.361l4.241,9.823l-0.1,0.2c-0.54,1.38-1.301,2.04-2.661,1.96
		v2.021c2.301,0.141,3.921-1.101,4.881-3.681l3.841-10.323H703.671z"/>
	<path fill="#FFFFFF" d="M516.304,211.828c-0.22-0.181-0.561-0.381-1.021-0.561c-0.439-0.18-0.78-0.32-1.04-0.4
		c-0.24-0.1-0.62-0.22-1.16-0.399c-2.141-0.66-2.82-1.141-2.82-2.181c0-1.061,0.86-1.74,2.2-1.74c1.38,0,2.36,0.66,2.941,1.96
		l1.941-1.12c-0.9-1.921-2.641-3.081-4.881-3.081c-1.24,0-2.301,0.36-3.181,1.101c-0.88,0.72-1.32,1.7-1.32,2.941
		c0,1.261,0.46,2.181,1.36,2.821c0.94,0.62,1.601,0.88,2.941,1.28c1.181,0.359,2.021,0.699,2.481,1c0.46,0.3,0.7,0.72,0.7,1.3
		c0,1.101-0.86,1.841-2.601,1.841c-1.76,0-2.921-0.78-3.481-2.36l-1.981,1.16c0.74,2.141,2.7,3.441,5.402,3.441
		c1.481,0,2.681-0.36,3.58-1.101c0.921-0.74,1.381-1.76,1.381-3.021C517.844,213.369,517.044,212.409,516.304,211.828z"/>
	<path fill="#FFFFFF" d="M525.264,208.307c-1.521,0-2.681,0.561-3.501,1.7v-1.44h-2.16v14.004h2.16v-5.422
		c0.82,1.12,1.981,1.681,3.501,1.681c1.38,0,2.54-0.5,3.521-1.521c0.981-1.02,1.46-2.26,1.46-3.74c0-1.461-0.48-2.701-1.46-3.721
		C527.804,208.827,526.644,208.307,525.264,208.307z M527.184,215.869c-0.6,0.601-1.36,0.9-2.261,0.9c-0.899,0-1.66-0.3-2.26-0.9
		c-0.601-0.62-0.9-1.38-0.9-2.3c0-0.921,0.3-1.681,0.9-2.281c0.6-0.62,1.36-0.92,2.26-0.92c0.9,0,1.661,0.3,2.261,0.92
		c0.601,0.601,0.9,1.36,0.9,2.281C528.085,214.489,527.785,215.248,527.184,215.869z"/>
	<path fill="#FFFFFF" d="M536.924,208.307c-1.54,0-2.82,0.5-3.801,1.521c-0.981,1-1.481,2.24-1.481,3.741c0,1.52,0.5,2.78,1.5,3.78
		c1.001,0.981,2.32,1.481,3.942,1.481c1.94,0,3.401-0.72,4.381-2.181l-1.78-1.04c-0.58,0.82-1.44,1.24-2.581,1.24
		c-1.66,0-2.881-0.84-3.2-2.36h7.961c0.061-0.38,0.08-0.681,0.08-0.9c0-1.46-0.48-2.721-1.42-3.74
		C539.584,208.827,538.384,208.307,536.924,208.307z M533.883,212.728c0.3-1.52,1.421-2.46,3.021-2.46
		c1.421,0,2.561,0.84,2.861,2.46H533.883z"/>
	<path fill="#FFFFFF" d="M548.505,208.307c-1.54,0-2.82,0.5-3.801,1.521c-0.981,1-1.481,2.24-1.481,3.741c0,1.52,0.5,2.78,1.5,3.78
		c1.001,0.981,2.32,1.481,3.942,1.481c1.94,0,3.401-0.72,4.381-2.181l-1.78-1.04c-0.58,0.82-1.44,1.24-2.581,1.24
		c-1.66,0-2.881-0.84-3.2-2.36h7.961c0.061-0.38,0.08-0.681,0.08-0.9c0-1.46-0.48-2.721-1.42-3.74
		C551.165,208.827,549.965,208.307,548.505,208.307z M545.463,212.728c0.3-1.52,1.421-2.46,3.021-2.46
		c1.421,0,2.561,0.84,2.861,2.46H545.463z"/>
	<path fill="#FFFFFF" d="M563.285,209.988c-0.82-1.12-1.981-1.681-3.5-1.681c-1.381,0-2.541,0.5-3.522,1.521
		c-0.98,1.021-1.46,2.261-1.46,3.741c0,1.46,0.48,2.721,1.46,3.74c0.98,1.021,2.141,1.521,3.522,1.521c1.52,0,2.68-0.561,3.5-1.7
		v1.44h2.161v-14.004h-2.161V209.988z M562.386,215.869c-0.601,0.601-1.36,0.9-2.261,0.9c-0.9,0-1.66-0.3-2.261-0.9
		c-0.6-0.62-0.9-1.38-0.9-2.3c0-0.921,0.301-1.681,0.9-2.281c0.601-0.62,1.36-0.92,2.261-0.92c0.9,0,1.66,0.3,2.261,0.92
		c0.6,0.601,0.899,1.36,0.899,2.281C563.285,214.489,562.986,215.248,562.386,215.869z"/>
	<path fill="#FFFFFF" d="M577.686,208.307c-1.461,0-2.721,0.5-3.741,1.521c-1.02,1.021-1.54,2.261-1.54,3.741
		c0,1.481,0.521,2.721,1.54,3.74c1.021,1.021,2.28,1.521,3.741,1.521c1.481,0,2.721-0.5,3.74-1.521
		c1.021-1.02,1.541-2.26,1.541-3.74c0-1.481-0.521-2.721-1.541-3.741C580.406,208.807,579.166,208.307,577.686,208.307z
		 M579.906,215.829c-0.601,0.601-1.341,0.9-2.221,0.9c-0.88,0-1.62-0.3-2.221-0.9c-0.6-0.6-0.9-1.36-0.9-2.26
		c0-0.9,0.301-1.661,0.9-2.261c0.601-0.601,1.341-0.9,2.221-0.9c0.88,0,1.62,0.3,2.221,0.9c0.6,0.6,0.899,1.36,0.899,2.261
		C580.806,214.468,580.506,215.229,579.906,215.829z"/>
	<path fill="#FFFFFF" d="M585.285,208.367v0.2h-1.521v2.08h1.521v7.922h2.16v-7.922h2.36v-2.08h-2.36v-0.2
		c0-1.461,0.78-2.121,2.36-1.981v-2.081C586.845,204.126,585.285,205.626,585.285,208.367z"/>
	<polygon fill="#FFFFFF" points="605.627,215.469 603.547,208.568 601.487,208.568 599.386,215.469 597.445,208.568 
		595.165,208.568 598.306,218.57 600.426,218.57 602.527,211.828 604.607,218.57 606.728,218.57 609.869,208.568 607.588,208.568 	
		"/>
	<path fill="#FFFFFF" d="M615.787,208.307c-1.461,0-2.721,0.5-3.741,1.521c-1.02,1.021-1.54,2.261-1.54,3.741
		c0,1.481,0.521,2.721,1.54,3.74c1.021,1.021,2.28,1.521,3.741,1.521c1.481,0,2.721-0.5,3.74-1.521
		c1.021-1.02,1.541-2.26,1.541-3.74c0-1.481-0.521-2.721-1.541-3.741C618.508,208.807,617.268,208.307,615.787,208.307z
		 M618.008,215.829c-0.601,0.601-1.341,0.9-2.221,0.9c-0.88,0-1.62-0.3-2.221-0.9c-0.6-0.6-0.9-1.36-0.9-2.26
		c0-0.9,0.301-1.661,0.9-2.261c0.601-0.601,1.341-0.9,2.221-0.9c0.88,0,1.62,0.3,2.221,0.9c0.6,0.6,0.899,1.36,0.899,2.261
		C618.907,214.468,618.607,215.229,618.008,215.829z"/>
	<path fill="#FFFFFF" d="M625.187,210.247v-1.68h-2.16v10.002h2.16v-5.041c0-1.021,0.3-1.761,0.92-2.201
		c0.62-0.46,1.341-0.66,2.16-0.6v-2.341C626.767,208.387,625.727,209.007,625.187,210.247z"/>
	<polygon fill="#FFFFFF" points="638.549,208.568 635.908,208.568 632.027,212.989 632.027,204.566 629.867,204.566 629.867,218.57 
		632.027,218.57 632.027,213.949 636.128,218.57 638.709,218.57 634.147,213.468 	"/>
	<path fill="#FFFFFF" d="M74.531,124.144h2.86c1.32,0,2.42-0.44,3.301-1.32c0.9-0.9,1.34-1.981,1.34-3.28
		c0-1.301-0.439-2.401-1.34-3.281c-0.881-0.88-1.981-1.32-3.301-1.32H72.23v14.004h2.301V124.144z M74.531,117.102h2.86
		c1.36,0,2.341,1.021,2.341,2.442c0,1.42-0.981,2.441-2.341,2.441h-2.86V117.102z"/>
	<path fill="#FFFFFF" d="M88.073,129.206c1.941,0,3.401-0.721,4.381-2.181l-1.78-1.04c-0.58,0.819-1.44,1.24-2.581,1.24
		c-1.66,0-2.881-0.841-3.2-2.361h7.961c0.061-0.38,0.08-0.68,0.08-0.899c0-1.461-0.48-2.721-1.42-3.741
		c-0.94-1.021-2.141-1.54-3.601-1.54c-1.54,0-2.82,0.5-3.801,1.521c-0.981,1-1.481,2.24-1.481,3.74c0,1.521,0.5,2.78,1.5,3.781
		C85.131,128.705,86.451,129.206,88.073,129.206z M87.892,120.643c1.421,0,2.561,0.841,2.861,2.461h-5.882
		C85.171,121.584,86.292,120.643,87.892,120.643z"/>
	<path fill="#FFFFFF" d="M96.992,123.904c0-1.021,0.3-1.76,0.92-2.2c0.62-0.46,1.341-0.66,2.16-0.601v-2.34
		c-1.5,0-2.54,0.62-3.08,1.86v-1.681h-2.16v10.002h2.16V123.904z"/>
	<path fill="#FFFFFF" d="M108.633,126.125c0.04-2.141-1.961-2.78-3.501-3.121c-1.04-0.3-1.881-0.64-1.881-1.3
		c0-0.7,0.641-1.061,1.461-1.061c0.9,0,1.54,0.38,1.88,1.141l1.82-1.021c-0.699-1.3-2.04-2.08-3.7-2.08
		c-1.04,0-1.921,0.28-2.621,0.84c-0.7,0.561-1.04,1.301-1.04,2.221c-0.04,2.101,1.981,2.7,3.482,3.08c1.06,0.261,1.9,0.641,1.9,1.28
		c0,0.74-0.561,1.121-1.701,1.121c-1.14,0-1.88-0.48-2.22-1.44l-1.86,1.08c0.64,1.46,2.1,2.341,4.08,2.341
		c1.12,0,2.041-0.28,2.781-0.82C108.253,127.846,108.633,127.085,108.633,126.125z"/>
	<rect x="110.412" y="118.943" fill="#FFFFFF" width="2.16" height="10.002"/>
	<path fill="#FFFFFF" d="M112.453,117.042c0.56-0.561,0.56-1.4,0.02-1.941c-0.54-0.561-1.42-0.561-1.96,0
		c-0.54,0.54-0.54,1.38,0,1.941C111.072,117.582,111.913,117.582,112.453,117.042z"/>
	<path fill="#FFFFFF" d="M118.432,127.225c-1.14,0-1.88-0.48-2.22-1.44l-1.86,1.08c0.64,1.46,2.1,2.341,4.08,2.341
		c1.12,0,2.041-0.28,2.781-0.82c0.74-0.54,1.12-1.301,1.12-2.261c0.04-2.141-1.961-2.78-3.501-3.121c-1.04-0.3-1.88-0.64-1.88-1.3
		c0-0.7,0.64-1.061,1.46-1.061c0.9,0,1.54,0.38,1.88,1.141l1.82-1.021c-0.699-1.3-2.04-2.08-3.7-2.08c-1.04,0-1.921,0.28-2.621,0.84
		c-0.7,0.561-1.04,1.301-1.04,2.221c-0.04,2.101,1.981,2.7,3.481,3.08c1.061,0.261,1.901,0.641,1.901,1.28
		C120.134,126.845,119.573,127.225,118.432,127.225z"/>
	<path fill="#FFFFFF" d="M124.772,125.825c0,2.62,1.341,3.521,4.642,3.12v-1.941c-1.641,0.08-2.481,0.101-2.481-1.18v-4.802h2.481
		v-2.08h-2.481v-2.801l-2.161,0.641v2.16h-1.84v2.08h1.84V125.825z"/>
	<path fill="#FFFFFF" d="M135.854,129.206c1.941,0,3.401-0.721,4.381-2.181l-1.78-1.04c-0.58,0.819-1.441,1.24-2.581,1.24
		c-1.66,0-2.881-0.841-3.2-2.361h7.961c0.061-0.38,0.08-0.68,0.08-0.899c0-1.461-0.48-2.721-1.42-3.741s-2.141-1.54-3.601-1.54
		c-1.54,0-2.82,0.5-3.801,1.521c-0.981,1-1.481,2.24-1.481,3.74c0,1.521,0.5,2.78,1.5,3.781
		C132.913,128.705,134.233,129.206,135.854,129.206z M135.673,120.643c1.421,0,2.561,0.841,2.861,2.461h-5.882
		C132.953,121.584,134.074,120.643,135.673,120.643z"/>
	<path fill="#FFFFFF" d="M144.773,123.584c0-1.941,1.021-2.88,2.54-2.88c1.381,0,2.241,0.82,2.241,2.32v5.921h2.16v-6.141
		c0-2.561-1.54-4.121-3.841-4.121c-1.42,0-2.441,0.52-3.101,1.54v-1.28h-2.16v10.002h2.16V123.584z"/>
	<path fill="#FFFFFF" d="M163.256,126.605l-1.86-1.061c-0.48,0.94-1.481,1.54-2.661,1.54c-0.88,0-1.62-0.3-2.22-0.9
		c-0.58-0.6-0.881-1.34-0.881-2.24c0-0.9,0.301-1.641,0.881-2.24c0.6-0.601,1.34-0.9,2.22-0.9c1.2,0,2.161,0.58,2.621,1.54
		l1.86-1.08c-0.801-1.58-2.521-2.58-4.461-2.58c-1.501,0-2.761,0.5-3.781,1.521c-1,1-1.5,2.24-1.5,3.74c0,1.481,0.5,2.721,1.5,3.741
		c1.021,1.02,2.28,1.521,3.781,1.521C160.695,129.206,162.395,128.205,163.256,126.605z"/>
	<path fill="#FFFFFF" d="M172.976,120.223c-0.94-1.021-2.141-1.54-3.601-1.54c-1.54,0-2.82,0.5-3.801,1.521
		c-0.981,1-1.481,2.24-1.481,3.74c0,1.521,0.5,2.78,1.5,3.781c1,0.98,2.32,1.481,3.942,1.481c1.941,0,3.401-0.721,4.381-2.181
		l-1.78-1.04c-0.58,0.819-1.441,1.24-2.581,1.24c-1.66,0-2.881-0.841-3.2-2.361h7.961c0.061-0.38,0.08-0.68,0.08-0.899
		C174.396,122.504,173.916,121.244,172.976,120.223z M166.334,123.104c0.3-1.521,1.421-2.461,3.021-2.461
		c1.421,0,2.561,0.841,2.861,2.461H166.334z"/>
	<rect x="80.051" y="140.989" fill="#FFFFFF" width="2.16" height="10.002"/>
	<path fill="#FFFFFF" d="M82.091,139.088c0.56-0.561,0.56-1.4,0.02-1.941c-0.54-0.561-1.42-0.561-1.96,0
		c-0.54,0.54-0.54,1.38,0,1.941C80.71,139.628,81.551,139.628,82.091,139.088z"/>
	<path fill="#FFFFFF" d="M93.813,150.991v-6.141c0-2.561-1.54-4.121-3.841-4.121c-1.42,0-2.441,0.52-3.101,1.54v-1.28h-2.16v10.002
		h2.16v-5.362c0-1.941,1.021-2.88,2.54-2.88c1.381,0,2.241,0.82,2.241,2.32v5.921H93.813z"/>
	<rect x="101.132" y="136.388" fill="#FFFFFF" width="2.16" height="14.603"/>
	<path fill="#FFFFFF" d="M106.712,142.25c-0.981,1-1.481,2.24-1.481,3.74c0,1.521,0.5,2.78,1.5,3.781
		c1.001,0.98,2.32,1.481,3.942,1.481c1.941,0,3.401-0.721,4.381-2.181l-1.78-1.04c-0.58,0.819-1.44,1.24-2.581,1.24
		c-1.66,0-2.881-0.841-3.2-2.361h7.961c0.061-0.38,0.08-0.68,0.08-0.899c0-1.461-0.48-2.721-1.42-3.741
		c-0.94-1.021-2.141-1.54-3.601-1.54C108.973,140.729,107.693,141.229,106.712,142.25z M113.354,145.15h-5.882
		c0.3-1.521,1.421-2.461,3.021-2.461C111.913,142.689,113.053,143.53,113.354,145.15z"/>
	<path fill="#FFFFFF" d="M125.293,149.551v1.44h2.161v-10.002h-2.161v1.42c-0.82-1.12-1.981-1.68-3.5-1.68
		c-1.381,0-2.541,0.5-3.522,1.521c-0.98,1.02-1.46,2.26-1.46,3.74c0,1.461,0.48,2.721,1.46,3.741
		c0.981,1.02,2.141,1.521,3.522,1.521C123.312,151.252,124.473,150.691,125.293,149.551z M122.133,149.191
		c-0.9,0-1.66-0.301-2.261-0.9c-0.6-0.62-0.9-1.381-0.9-2.301s0.301-1.681,0.9-2.28c0.601-0.62,1.36-0.92,2.261-0.92
		c0.9,0,1.66,0.3,2.261,0.92c0.6,0.6,0.899,1.36,0.899,2.28s-0.3,1.681-0.899,2.301
		C123.793,148.891,123.033,149.191,122.133,149.191z"/>
	<path fill="#FFFFFF" d="M132.133,145.95c0-1.021,0.3-1.76,0.92-2.2c0.62-0.46,1.341-0.66,2.16-0.601v-2.34
		c-1.5,0-2.54,0.62-3.08,1.86v-1.681h-2.16v10.002h2.16V145.95z"/>
	<path fill="#FFFFFF" d="M142.074,140.729c-1.42,0-2.441,0.52-3.101,1.54v-1.28h-2.16v10.002h2.16v-5.362
		c0-1.941,1.021-2.88,2.54-2.88c1.381,0,2.241,0.82,2.241,2.32v5.921h2.16v-6.141C145.915,142.29,144.375,140.729,142.074,140.729z"
		/>
	<path fill="#FFFFFF" d="M150.293,137.148c-0.54-0.561-1.42-0.561-1.96,0c-0.54,0.54-0.54,1.38,0,1.941c0.56,0.54,1.4,0.54,1.941,0
		C150.833,138.528,150.833,137.688,150.293,137.148z"/>
	<rect x="148.234" y="140.989" fill="#FFFFFF" width="2.16" height="10.002"/>
	<path fill="#FFFFFF" d="M161.995,150.991v-6.141c0-2.561-1.54-4.121-3.841-4.121c-1.42,0-2.441,0.52-3.101,1.54v-1.28h-2.16v10.002
		h2.16v-5.362c0-1.941,1.021-2.88,2.54-2.88c1.381,0,2.241,0.82,2.241,2.32v5.921H161.995z"/>
	<path fill="#FFFFFF" d="M169.294,153.292c-1.42,0-2.4-0.521-2.921-1.54l-1.86,1.08c0.86,1.62,2.441,2.42,4.741,2.42
		c1.421,0,2.641-0.399,3.641-1.22c1.001-0.82,1.501-1.981,1.501-3.501v-9.542h-2.121v1.481c-0.82-1.16-1.981-1.74-3.481-1.74
		c-1.42,0-2.601,0.5-3.581,1.521c-0.98,1-1.46,2.22-1.46,3.641c0,1.42,0.48,2.641,1.46,3.66c0.981,1.001,2.161,1.501,3.581,1.501
		c1.5,0,2.66-0.58,3.481-1.74v1.22C172.275,152.272,171.155,153.292,169.294,153.292z M171.355,148.131
		c-0.601,0.601-1.36,0.9-2.261,0.9c-0.9,0-1.66-0.3-2.28-0.9c-0.6-0.601-0.9-1.34-0.9-2.24s0.301-1.641,0.9-2.241
		c0.62-0.6,1.38-0.899,2.28-0.899c0.9,0,1.66,0.3,2.261,0.899c0.62,0.601,0.92,1.341,0.92,2.241S171.975,147.53,171.355,148.131z"/>
	<path fill="#FFFFFF" d="M5.161,203.724H0v14.004h2.301v-4.801h2.86c1.32,0,2.42-0.44,3.301-1.32c0.9-0.9,1.34-1.981,1.34-3.281
		c0-1.3-0.439-2.401-1.34-3.28C7.581,204.163,6.482,203.724,5.161,203.724z M5.161,210.765h-2.86v-4.881h2.86
		c1.36,0,2.341,1.021,2.341,2.441C7.502,209.744,6.522,210.765,5.161,210.765z"/>
	<path fill="#FFFFFF" d="M13.621,209.404v-1.68h-2.16v10.002h2.16v-5.041c0-1.021,0.3-1.761,0.92-2.201
		c0.62-0.46,1.341-0.66,2.16-0.6v-2.341C15.201,207.544,14.161,208.164,13.621,209.404z"/>
	<path fill="#FFFFFF" d="M22.563,207.464c-1.461,0-2.721,0.5-3.741,1.521c-1.02,1.021-1.54,2.261-1.54,3.741
		c0,1.481,0.521,2.721,1.54,3.74c1.021,1.021,2.28,1.521,3.741,1.521c1.481,0,2.721-0.5,3.74-1.521
		c1.021-1.02,1.541-2.26,1.541-3.74c0-1.481-0.521-2.721-1.541-3.741C25.283,207.964,24.043,207.464,22.563,207.464z
		 M24.783,214.986c-0.601,0.601-1.341,0.9-2.221,0.9c-0.88,0-1.62-0.3-2.221-0.9c-0.6-0.6-0.9-1.36-0.9-2.26
		c0-0.9,0.301-1.661,0.9-2.261c0.601-0.601,1.341-0.9,2.221-0.9c0.88,0,1.62,0.3,2.221,0.9c0.6,0.6,0.899,1.36,0.899,2.261
		C25.683,213.625,25.383,214.386,24.783,214.986z"/>
	<path fill="#FFFFFF" d="M30.162,207.524v0.2h-1.521v2.08h1.521v7.922h2.16v-7.922h2.36v-2.08h-2.36v-0.2
		c0-1.461,0.78-2.121,2.36-1.981v-2.081C31.722,203.283,30.162,204.783,30.162,207.524z"/>
	<path fill="#FFFFFF" d="M40.203,207.464c-1.54,0-2.82,0.5-3.801,1.521c-0.981,1-1.481,2.24-1.481,3.741c0,1.52,0.5,2.78,1.5,3.78
		c1.001,0.981,2.32,1.481,3.942,1.481c1.941,0,3.401-0.72,4.381-2.181l-1.78-1.04c-0.58,0.82-1.44,1.24-2.581,1.24
		c-1.66,0-2.881-0.84-3.2-2.36h7.961c0.061-0.38,0.08-0.681,0.08-0.9c0-1.46-0.48-2.721-1.42-3.74
		C42.863,207.984,41.663,207.464,40.203,207.464z M37.162,211.885c0.3-1.52,1.421-2.46,3.021-2.46c1.421,0,2.561,0.84,2.861,2.46
		H37.162z"/>
	<path fill="#FFFFFF" d="M50.543,211.785c-1.04-0.3-1.88-0.641-1.88-1.301c0-0.7,0.64-1.06,1.46-1.06c0.9,0,1.54,0.38,1.88,1.14
		l1.82-1.02c-0.699-1.301-2.04-2.081-3.7-2.081c-1.04,0-1.921,0.28-2.621,0.841c-0.7,0.56-1.04,1.3-1.04,2.22
		c-0.04,2.101,1.981,2.701,3.481,3.081c1.061,0.26,1.901,0.64,1.901,1.28c0,0.74-0.561,1.12-1.701,1.12c-1.14,0-1.88-0.48-2.22-1.44
		l-1.86,1.08c0.64,1.461,2.1,2.341,4.08,2.341c1.12,0,2.041-0.28,2.781-0.82s1.12-1.3,1.12-2.261
		C54.085,212.766,52.084,212.125,50.543,211.785z"/>
	<path fill="#FFFFFF" d="M59.164,211.785c-1.04-0.3-1.881-0.641-1.881-1.301c0-0.7,0.641-1.06,1.461-1.06c0.9,0,1.54,0.38,1.88,1.14
		l1.82-1.02c-0.699-1.301-2.04-2.081-3.7-2.081c-1.04,0-1.921,0.28-2.621,0.841c-0.7,0.56-1.04,1.3-1.04,2.22
		c-0.04,2.101,1.981,2.701,3.482,3.081c1.06,0.26,1.9,0.64,1.9,1.28c0,0.74-0.561,1.12-1.701,1.12c-1.14,0-1.88-0.48-2.22-1.44
		l-1.86,1.08c0.64,1.461,2.1,2.341,4.08,2.341c1.12,0,2.041-0.28,2.781-0.82c0.74-0.54,1.12-1.3,1.12-2.261
		C62.705,212.766,60.704,212.125,59.164,211.785z"/>
	<rect x="64.443" y="207.725" fill="#FFFFFF" width="2.16" height="10.002"/>
	<path fill="#FFFFFF" d="M64.543,203.884c-0.54,0.54-0.54,1.38,0,1.941c0.561,0.54,1.4,0.54,1.941,0c0.56-0.561,0.56-1.4,0.02-1.941
		C65.963,203.323,65.083,203.323,64.543,203.884z"/>
	<path fill="#FFFFFF" d="M73.825,207.464c-1.461,0-2.721,0.5-3.741,1.521c-1.02,1.021-1.54,2.261-1.54,3.741
		c0,1.481,0.521,2.721,1.54,3.74c1.021,1.021,2.28,1.521,3.741,1.521c1.481,0,2.721-0.5,3.74-1.521
		c1.021-1.02,1.541-2.26,1.541-3.74c0-1.481-0.521-2.721-1.541-3.741C76.546,207.964,75.305,207.464,73.825,207.464z
		 M76.046,214.986c-0.601,0.601-1.341,0.9-2.221,0.9c-0.88,0-1.62-0.3-2.221-0.9c-0.6-0.6-0.9-1.36-0.9-2.26
		c0-0.9,0.301-1.661,0.9-2.261c0.601-0.601,1.341-0.9,2.221-0.9c0.88,0,1.62,0.3,2.221,0.9c0.6,0.6,0.899,1.36,0.899,2.261
		C76.945,213.625,76.645,214.386,76.046,214.986z"/>
	<path fill="#FFFFFF" d="M86.324,207.464c-1.42,0-2.441,0.521-3.101,1.541v-1.28h-2.16v10.002h2.16v-5.362
		c0-1.941,1.021-2.881,2.54-2.881c1.381,0,2.241,0.82,2.241,2.32v5.922h2.16v-6.142C90.165,209.025,88.625,207.464,86.324,207.464z"
		/>
	<path fill="#FFFFFF" d="M100.406,209.145c-0.82-1.12-1.981-1.681-3.5-1.681c-1.381,0-2.541,0.5-3.522,1.521
		c-0.98,1.021-1.46,2.261-1.46,3.741c0,1.46,0.48,2.721,1.46,3.74c0.981,1.021,2.141,1.521,3.522,1.521c1.52,0,2.68-0.561,3.5-1.7
		v1.441h2.161v-10.002h-2.161V209.145z M99.507,215.026c-0.601,0.601-1.36,0.9-2.261,0.9c-0.9,0-1.66-0.3-2.261-0.9
		c-0.6-0.62-0.9-1.38-0.9-2.3c0-0.921,0.301-1.681,0.9-2.281c0.601-0.62,1.36-0.92,2.261-0.92c0.9,0,1.66,0.3,2.261,0.92
		c0.6,0.601,0.899,1.36,0.899,2.281C100.406,213.646,100.106,214.406,99.507,215.026z"/>
	<rect x="105.085" y="203.123" fill="#FFFFFF" width="2.16" height="14.604"/>
	<rect x="109.744" y="207.725" fill="#FFFFFF" width="2.16" height="10.002"/>
	<path fill="#FFFFFF" d="M109.844,203.884c-0.54,0.54-0.54,1.38,0,1.941c0.561,0.54,1.4,0.54,1.941,0
		c0.56-0.561,0.56-1.4,0.02-1.941C111.264,203.323,110.384,203.323,109.844,203.884z"/>
	<path fill="#FFFFFF" d="M118.166,211.785c-1.04-0.3-1.88-0.641-1.88-1.301c0-0.7,0.64-1.06,1.46-1.06c0.9,0,1.54,0.38,1.88,1.14
		l1.82-1.02c-0.699-1.301-2.04-2.081-3.7-2.081c-1.04,0-1.921,0.28-2.621,0.841c-0.7,0.56-1.04,1.3-1.04,2.22
		c-0.04,2.101,1.981,2.701,3.481,3.081c1.061,0.26,1.901,0.64,1.901,1.28c0,0.74-0.561,1.12-1.701,1.12c-1.14,0-1.88-0.48-2.22-1.44
		l-1.86,1.08c0.64,1.461,2.1,2.341,4.08,2.341c1.12,0,2.041-0.28,2.781-0.82c0.74-0.54,1.12-1.3,1.12-2.261
		C121.707,212.766,119.706,212.125,118.166,211.785z"/>
	<path fill="#FFFFFF" d="M134.488,207.464c-1.38,0-2.401,0.521-3.061,1.581c-0.62-1.061-1.561-1.581-2.841-1.581
		c-1.26,0-2.221,0.48-2.86,1.461v-1.2h-2.16v10.002h2.16v-5.602c0-1.74,0.92-2.641,2.221-2.641c1.2,0,1.88,0.801,1.88,2.181v6.062
		h2.16v-5.602c0-1.76,0.841-2.641,2.181-2.641c1.2,0,1.941,0.801,1.941,2.181v6.062h2.161v-6.201
		C138.269,209.045,136.749,207.464,134.488,207.464z"/>
</g>
</svg>
