<?xml version="1.0" encoding="utf-8"?>
<!-- Generator: Adobe Illustrator 21.0.0, SVG Export Plug-In . SVG Version: 6.00 Build 0)  -->
<svg version="1.1" id="Слой_1" xmlns="http://www.w3.org/2000/svg" xmlns:xlink="http://www.w3.org/1999/xlink" x="0px" y="0px"
	 width="202.316px" height="57px" viewBox="0 0 202.316 57" enable-background="new 0 0 202.316 57" xml:space="preserve">
<g>
	<g>
		<g>
			<path fill="#FFFFFF" d="M91.072,15.124h4.633v18.22h-3.592l-6.429-9.161v9.161h-4.659v-18.22h3.617l6.429,9.162V15.124z"/>
			<path fill="#FFFFFF" d="M111.268,33.343l-0.78-2.629h-6.064l-0.781,2.629h-5.049l6.012-18.22h5.674l6.013,18.22H111.268z
				 M105.621,26.707h3.67l-1.848-6.194L105.621,26.707z"/>
			<path fill="#FFFFFF" d="M117.828,29.205l3.982-2.316c0.677,1.614,1.874,2.421,3.592,2.421c1.431,0,2.134-0.417,2.134-1.224
				c0-0.547-0.417-0.964-1.224-1.302c-0.338-0.13-1.119-0.363-2.29-0.702c-3.331-0.964-5.413-2.576-5.413-5.699
				c0-1.692,0.599-3.046,1.796-4.087c1.223-1.042,2.733-1.562,4.529-1.562c3.045,0,5.517,1.457,6.767,4.165l-3.904,2.289
				c-0.573-1.352-1.51-2.029-2.837-2.029c-1.12,0-1.692,0.494-1.692,1.197c0,0.807,0.65,1.249,3.123,1.978
				c0.885,0.26,1.587,0.495,2.134,0.729c0.546,0.235,1.119,0.547,1.77,0.989c1.275,0.834,1.9,2.188,1.9,3.983s-0.625,3.175-1.9,4.19
				c-1.276,1.015-2.941,1.509-5.023,1.509C121.419,33.733,118.842,31.989,117.828,29.205z"/>
			<path fill="#FFFFFF" d="M151.041,33.343h-5.206l-5.231-8.147v8.147h-4.659v-18.22h4.659v7.653l4.971-7.653h5.206l-5.778,8.851
				L151.041,33.343z"/>
			<path fill="#FFFFFF" d="M158.894,28.971h7.053v4.372h-11.712v-18.22h11.582v4.347h-6.923v2.524h6.273v4.295h-6.273V28.971z"/>
			<path fill="#FFFFFF" d="M175.183,28.841h6.273v4.502h-10.931v-18.22h4.659V28.841z"/>
			<path fill="#FFFFFF" d="M192.763,33.733c-2.68,0-4.945-0.91-6.793-2.733c-1.847-1.847-2.759-4.087-2.759-6.766
				c0-2.681,0.911-4.919,2.759-6.741c1.848-1.847,4.113-2.76,6.793-2.76c2.681,0,4.92,0.912,6.767,2.76
				c1.848,1.822,2.785,4.06,2.785,6.741c0,2.68-0.937,4.919-2.785,6.766C197.683,32.823,195.445,33.733,192.763,33.733z
				 M192.763,29.178c1.406,0,2.577-0.467,3.514-1.379c0.937-0.937,1.406-2.134,1.406-3.565c0-1.432-0.469-2.629-1.406-3.54
				c-0.937-0.937-2.108-1.406-3.514-1.406c-1.405,0-2.576,0.469-3.513,1.406c-0.937,0.91-1.406,2.108-1.406,3.54
				c0,1.431,0.469,2.628,1.406,3.565C190.187,28.711,191.359,29.178,192.763,29.178z"/>
		</g>
		<g>
			<path fill="#FFFFFF" d="M89.886,45.406v0.549c0,1.191-0.405,2.186-1.23,2.983c-0.824,0.786-1.91,1.179-3.258,1.179
				c-1.4,0-2.551-0.459-3.467-1.375c-0.903-0.929-1.361-2.055-1.361-3.376c0-1.322,0.458-2.446,1.361-3.363
				c0.916-0.929,2.067-1.386,3.441-1.386c0.851,0,1.623,0.209,2.329,0.615c0.707,0.405,1.256,0.929,1.636,1.595l-1.046,0.615
				c-0.524-0.993-1.662-1.648-2.931-1.648c-1.047,0-1.91,0.34-2.578,1.033c-0.667,0.681-1.007,1.532-1.007,2.539
				c0,1.008,0.34,1.859,1.007,2.539c0.68,0.68,1.557,1.021,2.63,1.021c1.832,0,3.009-0.995,3.258-2.421h-3.363v-1.099H89.886z"/>
			<path fill="#FFFFFF" d="M100.775,45.877v4.069h-1.138v-4.03c0-1.008-0.562-1.597-1.439-1.597c-0.981,0-1.609,0.642-1.609,1.988
				v3.638H95.45v-4.03c0-1.008-0.536-1.597-1.386-1.597c-0.956,0-1.675,0.667-1.675,1.988v3.638H91.25v-6.542h1.138v0.876
				c0.444-0.693,1.099-1.046,1.949-1.046c0.876,0,1.518,0.366,1.924,1.113c0.458-0.746,1.138-1.113,2.054-1.113
				C99.781,43.233,100.775,44.255,100.775,45.877z"/>
			<path fill="#FFFFFF" d="M108.315,44.242c0.641,0.667,0.968,1.478,0.968,2.433s-0.327,1.779-0.968,2.447
				c-0.641,0.667-1.426,0.995-2.342,0.995c-1.086,0-1.91-0.433-2.473-1.297v1.126h-1.138v-9.159h1.138v3.741
				c0.562-0.862,1.386-1.295,2.473-1.295C106.889,43.233,107.674,43.573,108.315,44.242z M107.478,48.349
				c0.445-0.458,0.667-1.007,0.667-1.675c0-0.667-0.222-1.216-0.667-1.662c-0.445-0.458-0.994-0.68-1.648-0.68
				c-0.667,0-1.217,0.222-1.662,0.68c-0.444,0.446-0.667,0.995-0.667,1.662c0,0.668,0.222,1.217,0.667,1.675
				c0.445,0.446,0.995,0.668,1.662,0.668C106.483,49.017,107.032,48.795,107.478,48.349z"/>
			<path fill="#FFFFFF" d="M116.43,40.787h1.204v9.159h-1.204v-4.122h-4.449v4.122h-1.216v-9.159h1.216v3.885h4.449V40.787z"/>
		</g>
	</g>
	<path fill="#FFFFFF" d="M26.142,0L0,57h52.504L78.646,0H26.142z M27.129,31.409V1.202l24.389,24.389v30.207L27.129,31.409z
		 M25.927,31.409l-23.77,23.77l23.77-51.827V31.409z M52.72,25.591L76.489,1.822L52.72,53.648V25.591z"/>
</g>
</svg>
