<?xml version="1.0" encoding="utf-8"?>
<!-- Generator: Adobe Illustrator 21.0.0, SVG Export Plug-In . SVG Version: 6.00 Build 0)  -->
<svg version="1.1" id="Слой_1" xmlns="http://www.w3.org/2000/svg" xmlns:xlink="http://www.w3.org/1999/xlink" x="0px" y="0px"
	 width="239px" height="67.335px" viewBox="0 0 239 67.335" enable-background="new 0 0 239 67.335" xml:space="preserve">
<g>
	<g>
		<g>
			<path fill="#3C3C3B" d="M107.585,17.866h5.473v21.523h-4.243l-7.594-10.822v10.822h-5.503V17.866h4.273l7.594,10.824V17.866z"/>
			<path fill="#3C3C3B" d="M131.443,39.389l-0.922-3.106h-7.164l-0.923,3.106h-5.964l7.102-21.523h6.703l7.103,21.523H131.443z
				 M124.772,31.55h4.335l-2.183-7.318L124.772,31.55z"/>
			<path fill="#3C3C3B" d="M139.192,34.5l4.704-2.736c0.8,1.907,2.214,2.86,4.244,2.86c1.691,0,2.521-0.492,2.521-1.446
				c0-0.646-0.492-1.139-1.446-1.538c-0.4-0.154-1.322-0.429-2.705-0.829c-3.936-1.139-6.395-3.043-6.395-6.733
				c0-1.999,0.707-3.599,2.121-4.828c1.445-1.231,3.228-1.846,5.35-1.846c3.597,0,6.518,1.722,7.994,4.92l-4.612,2.704
				c-0.677-1.597-1.784-2.397-3.352-2.397c-1.323,0-1.998,0.583-1.998,1.414c0,0.953,0.768,1.475,3.689,2.336
				c1.045,0.307,1.875,0.585,2.521,0.861c0.645,0.278,1.322,0.646,2.091,1.168c1.506,0.985,2.245,2.584,2.245,4.706
				c0,2.121-0.739,3.75-2.245,4.95c-1.507,1.2-3.475,1.783-5.934,1.783C143.435,39.85,140.391,37.79,139.192,34.5z"/>
			<path fill="#3C3C3B" d="M178.427,39.389h-6.15l-6.18-9.624v9.624h-5.503V17.866h5.503v9.041l5.873-9.041h6.149l-6.826,10.455
				L178.427,39.389z"/>
			<path fill="#3C3C3B" d="M187.705,34.224h8.332v5.165h-13.835V17.866h13.682v5.135h-8.178v2.982h7.41v5.074h-7.41V34.224z"/>
			<path fill="#3C3C3B" d="M206.947,34.071h7.41v5.318h-12.914V17.866h5.503V34.071z"/>
			<path fill="#3C3C3B" d="M227.715,39.85c-3.166,0-5.841-1.075-8.025-3.228c-2.182-2.182-3.259-4.828-3.259-7.993
				c0-3.167,1.076-5.811,3.259-7.964c2.183-2.182,4.858-3.26,8.025-3.26c3.167,0,5.812,1.077,7.994,3.26
				c2.183,2.153,3.29,4.796,3.29,7.964c0,3.165-1.107,5.811-3.29,7.993C233.527,38.775,230.883,39.85,227.715,39.85z
				 M227.715,34.469c1.66,0,3.044-0.552,4.151-1.629c1.107-1.107,1.66-2.521,1.66-4.211c0-1.692-0.553-3.106-1.66-4.182
				c-1.107-1.107-2.491-1.66-4.151-1.66c-1.66,0-3.043,0.553-4.15,1.66c-1.107,1.075-1.66,2.49-1.66,4.182
				c0,1.69,0.553,3.104,1.66,4.211C224.672,33.917,226.056,34.469,227.715,34.469z"/>
		</g>
		<g>
			<path fill="#3C3C3B" d="M106.184,53.639v0.648c0,1.407-0.479,2.582-1.453,3.524c-0.974,0.928-2.257,1.393-3.848,1.393
				c-1.654,0-3.014-0.542-4.096-1.624c-1.067-1.097-1.607-2.427-1.607-3.988c0-1.561,0.541-2.89,1.607-3.973
				c1.082-1.097,2.442-1.638,4.065-1.638c1.005,0,1.917,0.247,2.751,0.727c0.835,0.478,1.484,1.097,1.932,1.885l-1.236,0.727
				c-0.619-1.174-1.964-1.947-3.462-1.947c-1.237,0-2.257,0.402-3.045,1.22c-0.788,0.805-1.19,1.81-1.19,2.999
				c0,1.191,0.402,2.196,1.19,2.999c0.803,0.803,1.839,1.207,3.107,1.207c2.164,0,3.555-1.175,3.848-2.86h-3.973v-1.299H106.184z"/>
			<path fill="#3C3C3B" d="M119.048,54.195v4.807h-1.345v-4.76c0-1.191-0.664-1.886-1.7-1.886c-1.159,0-1.901,0.758-1.901,2.349
				v4.298h-1.345v-4.76c0-1.191-0.634-1.886-1.638-1.886c-1.129,0-1.979,0.788-1.979,2.349v4.298h-1.345v-7.728h1.345v1.034
				c0.525-0.819,1.298-1.236,2.303-1.236c1.035,0,1.793,0.433,2.272,1.314c0.541-0.881,1.345-1.314,2.426-1.314
				C117.874,51.073,119.048,52.279,119.048,54.195z"/>
			<path fill="#3C3C3B" d="M127.955,52.264c0.757,0.788,1.144,1.746,1.144,2.874s-0.387,2.102-1.144,2.891
				c-0.757,0.788-1.685,1.175-2.767,1.175c-1.283,0-2.257-0.511-2.921-1.532v1.33h-1.345V48.183h1.345v4.419
				c0.664-1.019,1.638-1.53,2.921-1.53C126.27,51.073,127.198,51.474,127.955,52.264z M126.965,57.116
				c0.526-0.541,0.788-1.189,0.788-1.979c0-0.788-0.263-1.436-0.788-1.963c-0.526-0.541-1.174-0.803-1.947-0.803
				c-0.788,0-1.438,0.263-1.964,0.803c-0.525,0.527-0.788,1.175-0.788,1.963c0,0.789,0.263,1.438,0.788,1.979
				c0.526,0.527,1.175,0.789,1.964,0.789C125.791,57.905,126.44,57.643,126.965,57.116z"/>
			<path fill="#3C3C3B" d="M137.541,48.183h1.422v10.819h-1.422v-4.87h-5.256v4.87h-1.437V48.183h1.437v4.59h5.256V48.183z"/>
		</g>
	</g>
	<path fill="#E6401B" d="M30.883,0L0,67.335h62.024L92.906,0H30.883z M32.048,37.104V1.42l28.812,28.812v35.684L32.048,37.104z
		 M30.628,37.104L2.548,65.183l28.08-61.224V37.104z M62.279,30.231L90.358,2.152L62.279,63.376V30.231z"/>
</g>
</svg>
