<?xml version="1.0" encoding="utf-8"?>
<!-- Generator: Adobe Illustrator 21.0.0, SVG Export Plug-In . SVG Version: 6.00 Build 0)  -->
<svg version="1.1" id="Слой_1" xmlns="http://www.w3.org/2000/svg" xmlns:xlink="http://www.w3.org/1999/xlink" x="0px" y="0px"
	 width="1045.44px" height="267.987px" viewBox="0 0 1045.44 267.987" enable-background="new 0 0 1045.44 267.987"
	 xml:space="preserve">
<g>
	<path fill="#FFFFFF" d="M723.74,202.082c-5.144,0-9.373,3.916-9.871,8.929H579.01l34.859-76.005h135.97
		c0.498,5.013,4.727,8.929,9.871,8.929c5.479,0,9.921-4.442,9.921-9.921s-4.442-9.921-9.921-9.921c-5.144,0-9.373,3.916-9.871,8.929
		h-135.06l34.858-76.005h136.326c0.498,5.013,4.727,8.929,9.871,8.929c5.479,0,9.921-4.442,9.921-9.921s-4.442-9.921-9.921-9.921
		c-5.144,0-9.373,3.916-9.871,8.929H650.547L675.787,0H428.939l-25.221,54.992H267.949c-0.498-5.013-4.727-8.929-9.871-8.929
		c-5.479,0-9.921,4.442-9.921,9.921s4.442,9.921,9.921,9.921c5.144,0,9.373-3.916,9.871-8.929h134.859l-34.859,76.005H231.98
		c-0.498-5.013-4.727-8.929-9.871-8.929c-5.479,0-9.921,4.442-9.921,9.921s4.442,9.921,9.921,9.921c5.144,0,9.373-3.916,9.871-8.929
		h135.059L332.18,210.97H195.855c-0.498-5.013-4.727-8.929-9.871-8.929c-5.479,0-9.921,4.442-9.921,9.921s4.442,9.921,9.921,9.921
		c5.144,0,9.373-3.916,9.871-8.929H331.27l-25.24,55.033h246.849l25.221-54.992h135.769c0.498,5.013,4.727,8.929,9.871,8.929
		c5.479,0,9.921-4.442,9.921-9.921S729.22,202.082,723.74,202.082z M427.926,147.67L316.171,259.423l57.082-124.458h54.673V147.67z
		 M427.926,132.981h-53.763l53.763-117.222V132.981z M548.243,262.337L433.576,147.67V5.65l114.667,114.667V262.337z
		 M553.892,120.317L665.644,8.566l-57.08,124.457h-54.672V120.317z M553.892,252.229V135.007h53.762L553.892,252.229z"/>
	<path fill="#FFFFFF" d="M181.357,60.122c1.32,0,2.561-0.34,3.74-1.021l1.541,1.581l1.62-1.46l-1.48-1.521
		c1.221-1.36,1.841-2.98,1.841-4.841c0-2.021-0.7-3.741-2.121-5.141c-1.42-1.42-3.12-2.121-5.141-2.121s-3.721,0.7-5.142,2.121
		c-1.42,1.4-2.12,3.121-2.12,5.141s0.7,3.741,2.12,5.161C177.636,59.422,179.337,60.122,181.357,60.122z M177.837,49.28
		c0.96-0.96,2.14-1.44,3.521-1.44c1.38,0,2.561,0.48,3.521,1.44c0.96,0.96,1.44,2.16,1.44,3.581c0,1.22-0.38,2.3-1.12,3.221
		l-2.681-2.741l-1.62,1.46l2.561,2.621c-0.66,0.3-1.36,0.46-2.101,0.46c-1.381,0-2.561-0.48-3.521-1.44
		c-0.961-0.96-1.44-2.16-1.44-3.581S176.876,50.24,177.837,49.28z"/>
	<path fill="#FFFFFF" d="M194.436,60.122c1.42,0,2.44-0.521,3.101-1.541v1.28h2.16V49.86h-2.16v5.361
		c0,1.94-1.021,2.881-2.541,2.881c-1.38,0-2.24-0.82-2.24-2.321V49.86h-2.16v6.141C190.595,58.562,192.135,60.122,194.436,60.122z"
		/>
	<path fill="#FFFFFF" d="M206.636,60.122c1.52,0,2.68-0.561,3.5-1.701v1.44h2.161V49.86h-2.161v1.42c-0.82-1.12-1.98-1.68-3.5-1.68
		c-1.381,0-2.541,0.5-3.521,1.521c-0.979,1.02-1.46,2.26-1.46,3.741c0,1.46,0.48,2.721,1.46,3.741
		C204.095,59.622,205.255,60.122,206.636,60.122z M204.715,52.581c0.601-0.62,1.36-0.92,2.261-0.92s1.66,0.3,2.261,0.92
		c0.6,0.6,0.899,1.36,0.899,2.281c0,0.92-0.3,1.68-0.899,2.3c-0.601,0.6-1.36,0.9-2.261,0.9s-1.66-0.3-2.261-0.9
		c-0.6-0.62-0.9-1.38-0.9-2.3C203.815,53.941,204.116,53.181,204.715,52.581z"/>
	<rect x="214.815" y="45.259" fill="#FFFFFF" width="2.16" height="14.603"/>
	<path fill="#FFFFFF" d="M221.515,47.96c0.56-0.561,0.56-1.4,0.02-1.94c-0.54-0.561-1.42-0.561-1.96,0c-0.54,0.54-0.54,1.38,0,1.94
		C220.135,48.5,220.975,48.5,221.515,47.96z"/>
	<rect x="219.475" y="49.86" fill="#FFFFFF" width="2.16" height="10.002"/>
	<path fill="#FFFFFF" d="M225.075,56.742c0,2.621,1.341,3.521,4.642,3.121v-1.94c-1.641,0.08-2.48,0.1-2.48-1.18V51.94h2.48v-2.08
		h-2.48V47.06l-2.161,0.64v2.161h-1.84v2.08h1.84V56.742z"/>
	<path fill="#FFFFFF" d="M234.855,59.882c-0.54,1.38-1.301,2.04-2.661,1.96v2.021c2.301,0.141,3.921-1.101,4.881-3.68l3.841-10.322
		h-2.3l-2.561,7.261l-2.98-7.261h-2.361l4.241,9.822L234.855,59.882z"/>
	<path fill="#FFFFFF" d="M819.374,60.595c-1.76,0-2.921-0.78-3.48-2.36l-1.98,1.16c0.74,2.141,2.7,3.441,5.401,3.441
		c1.48,0,2.681-0.36,3.58-1.101c0.921-0.74,1.381-1.761,1.381-3.021c0.1-1.341-0.7-2.301-1.44-2.881
		c-0.22-0.18-0.561-0.38-1.021-0.561c-0.439-0.18-0.78-0.319-1.04-0.399c-0.24-0.101-0.62-0.221-1.16-0.4
		c-2.141-0.66-2.82-1.141-2.82-2.181c0-1.06,0.86-1.74,2.2-1.74c1.38,0,2.36,0.66,2.94,1.96l1.94-1.121
		c-0.9-1.92-2.641-3.081-4.881-3.081c-1.24,0-2.301,0.36-3.181,1.101c-0.88,0.72-1.32,1.7-1.32,2.94c0,1.26,0.46,2.181,1.36,2.821
		c0.94,0.62,1.601,0.88,2.94,1.28c1.181,0.36,2.021,0.7,2.48,1c0.46,0.301,0.7,0.721,0.7,1.301
		C821.974,59.855,821.114,60.595,819.374,60.595z"/>
	<path fill="#FFFFFF" d="M830.814,62.836c1.52,0,2.68-0.561,3.5-1.701v1.44h2.161V52.573h-2.161v1.42c-0.82-1.12-1.98-1.68-3.5-1.68
		c-1.381,0-2.541,0.5-3.521,1.521c-0.979,1.02-1.46,2.26-1.46,3.74c0,1.461,0.48,2.721,1.46,3.741
		C828.273,62.335,829.433,62.836,830.814,62.836z M828.893,55.294c0.601-0.62,1.36-0.92,2.261-0.92s1.66,0.3,2.261,0.92
		c0.6,0.6,0.899,1.36,0.899,2.28s-0.3,1.681-0.899,2.301c-0.601,0.6-1.36,0.9-2.261,0.9s-1.66-0.301-2.261-0.9
		c-0.6-0.62-0.9-1.381-0.9-2.301S828.294,55.894,828.893,55.294z"/>
	<path fill="#FFFFFF" d="M839.713,62.575h2.16v-7.922h2.36v-2.08h-2.36v-0.2c0-1.46,0.78-2.121,2.36-1.98v-2.081
		c-2.96-0.18-4.521,1.32-4.521,4.061v0.2h-1.521v2.08h1.521V62.575z"/>
	<path fill="#FFFFFF" d="M849.914,62.836c1.94,0,3.4-0.721,4.381-2.181l-1.78-1.04c-0.58,0.819-1.44,1.24-2.581,1.24
		c-1.66,0-2.881-0.841-3.2-2.361h7.961c0.061-0.38,0.08-0.68,0.08-0.899c0-1.461-0.479-2.721-1.42-3.741s-2.141-1.541-3.601-1.541
		c-1.54,0-2.82,0.5-3.801,1.521c-0.98,1-1.48,2.24-1.48,3.74c0,1.521,0.5,2.78,1.5,3.781
		C846.972,62.335,848.293,62.836,849.914,62.836z M849.733,54.274c1.421,0,2.561,0.841,2.861,2.461h-5.882
		C847.012,55.214,848.133,54.274,849.733,54.274z"/>
	<path fill="#FFFFFF" d="M861.933,62.575v-1.94c-1.641,0.08-2.48,0.101-2.48-1.18v-4.802h2.48v-2.08h-2.48v-2.801l-2.161,0.64v2.161
		h-1.84v2.08h1.84v4.802C857.292,62.075,858.633,62.976,861.933,62.575z"/>
	<path fill="#FFFFFF" d="M867.073,62.596c-0.54,1.38-1.301,2.04-2.661,1.96v2.021c2.301,0.141,3.921-1.101,4.881-3.681l3.841-10.322
		h-2.3l-2.561,7.262l-2.98-7.262h-2.361l4.241,9.822L867.073,62.596z"/>
	<polygon fill="#FFFFFF" points="795.926,126.724 793.506,126.724 790.565,137.667 787.405,126.724 785.284,126.724 
		782.103,137.667 779.162,126.724 776.742,126.724 780.703,140.727 783.364,140.727 786.344,130.505 789.305,140.727 
		791.965,140.727 	"/>
	<path fill="#FFFFFF" d="M804.304,132.145c-0.82-1.12-1.98-1.68-3.5-1.68c-1.381,0-2.541,0.5-3.521,1.521
		c-0.979,1.02-1.46,2.26-1.46,3.74c0,1.461,0.48,2.721,1.46,3.741c0.98,1.02,2.141,1.521,3.521,1.521c1.52,0,2.68-0.561,3.5-1.701
		v1.44h2.161v-10.002h-2.161V132.145z M803.405,138.027c-0.601,0.6-1.36,0.9-2.261,0.9s-1.66-0.301-2.261-0.9
		c-0.6-0.62-0.9-1.381-0.9-2.301s0.301-1.681,0.9-2.28c0.601-0.62,1.36-0.92,2.261-0.92s1.66,0.3,2.261,0.92
		c0.6,0.6,0.899,1.36,0.899,2.28S804.004,137.407,803.405,138.027z"/>
	<path fill="#FFFFFF" d="M811.143,135.686c0-1.021,0.3-1.76,0.92-2.2c0.62-0.46,1.341-0.66,2.16-0.601v-2.34
		c-1.5,0-2.54,0.62-3.08,1.86v-1.681h-2.16v10.002h2.16V135.686z"/>
	<path fill="#FFFFFF" d="M821.063,132.885v-2.34c-1.5,0-2.54,0.62-3.08,1.86v-1.681h-2.16v10.002h2.16v-5.041
		c0-1.021,0.3-1.76,0.92-2.2C819.523,133.026,820.243,132.826,821.063,132.885z"/>
	<path fill="#FFFFFF" d="M830.123,140.727h2.161v-10.002h-2.161v1.42c-0.82-1.12-1.98-1.68-3.5-1.68c-1.381,0-2.541,0.5-3.521,1.521
		c-0.979,1.02-1.46,2.26-1.46,3.74c0,1.461,0.48,2.721,1.46,3.741c0.98,1.02,2.141,1.521,3.521,1.521c1.52,0,2.68-0.561,3.5-1.701
		V140.727z M829.224,138.027c-0.601,0.6-1.36,0.9-2.261,0.9s-1.66-0.301-2.261-0.9c-0.6-0.62-0.9-1.381-0.9-2.301
		s0.301-1.681,0.9-2.28c0.601-0.62,1.36-0.92,2.261-0.92s1.66,0.3,2.261,0.92c0.6,0.6,0.899,1.36,0.899,2.28
		S829.823,137.407,829.224,138.027z"/>
	<path fill="#FFFFFF" d="M834.802,130.725v10.002h2.16v-5.361c0-1.94,1.021-2.88,2.54-2.88c1.381,0,2.241,0.82,2.241,2.32v5.921
		h2.16v-6.141c0-2.561-1.54-4.121-3.841-4.121c-1.42,0-2.44,0.52-3.101,1.54v-1.28H834.802z"/>
	<path fill="#FFFFFF" d="M851.803,132.805v-2.08h-2.48v-2.801l-2.161,0.641v2.16h-1.84v2.08h1.84v4.802
		c0,2.62,1.341,3.521,4.642,3.12v-1.94c-1.641,0.08-2.48,0.101-2.48-1.18v-4.802H851.803z"/>
	<rect x="853.762" y="130.725" fill="#FFFFFF" width="2.16" height="10.002"/>
	<path fill="#FFFFFF" d="M853.862,126.884c-0.54,0.54-0.54,1.38,0,1.94c0.56,0.54,1.4,0.54,1.94,0c0.56-0.561,0.56-1.4,0.02-1.94
		C855.281,126.324,854.402,126.324,853.862,126.884z"/>
	<path fill="#FFFFFF" d="M867.684,138.807l-1.78-1.04c-0.58,0.819-1.44,1.24-2.581,1.24c-1.66,0-2.881-0.841-3.2-2.361h7.961
		c0.061-0.38,0.08-0.68,0.08-0.899c0-1.461-0.479-2.721-1.42-3.741s-2.141-1.54-3.601-1.54c-1.54,0-2.82,0.5-3.801,1.521
		c-0.98,1-1.48,2.24-1.48,3.74c0,1.521,0.5,2.78,1.5,3.781c1.001,0.979,2.32,1.48,3.941,1.48
		C865.243,140.988,866.703,140.267,867.684,138.807z M863.122,132.425c1.421,0,2.561,0.841,2.861,2.461h-5.882
		C860.402,133.366,861.523,132.425,863.122,132.425z"/>
	<path fill="#FFFFFF" d="M873.482,134.786c-1.04-0.3-1.881-0.64-1.881-1.3c0-0.7,0.641-1.061,1.461-1.061
		c0.9,0,1.54,0.38,1.88,1.141l1.82-1.021c-0.699-1.3-2.04-2.08-3.7-2.08c-1.04,0-1.921,0.28-2.621,0.84
		c-0.7,0.561-1.04,1.301-1.04,2.221c-0.04,2.101,1.98,2.7,3.481,3.08c1.06,0.261,1.9,0.641,1.9,1.28c0,0.74-0.561,1.121-1.701,1.121
		c-1.14,0-1.88-0.48-2.22-1.44l-1.86,1.08c0.64,1.46,2.1,2.341,4.08,2.341c1.12,0,2.041-0.28,2.781-0.82s1.12-1.301,1.12-2.261
		C877.023,135.766,875.022,135.127,873.482,134.786z"/>
	<path fill="#FFFFFF" d="M891.803,132.145c-0.82-1.12-1.98-1.68-3.5-1.68c-1.381,0-2.541,0.5-3.521,1.521
		c-0.979,1.02-1.46,2.26-1.46,3.74c0,1.461,0.48,2.721,1.46,3.741c0.98,1.02,2.141,1.521,3.521,1.521c1.52,0,2.68-0.561,3.5-1.701
		v1.44h2.161v-10.002h-2.161V132.145z M890.904,138.027c-0.601,0.6-1.36,0.9-2.261,0.9s-1.66-0.301-2.261-0.9
		c-0.6-0.62-0.9-1.381-0.9-2.301s0.301-1.681,0.9-2.28c0.601-0.62,1.36-0.92,2.261-0.92s1.66,0.3,2.261,0.92
		c0.6,0.6,0.899,1.36,0.899,2.28S891.503,137.407,890.904,138.027z"/>
	<path fill="#FFFFFF" d="M901.742,130.465c-1.42,0-2.44,0.52-3.101,1.54v-1.28h-2.16v10.002h2.16v-5.361
		c0-1.94,1.021-2.88,2.54-2.88c1.381,0,2.241,0.82,2.241,2.32v5.921h2.16v-6.141C905.583,132.026,904.043,130.465,901.742,130.465z"
		/>
	<path fill="#FFFFFF" d="M915.823,132.145c-0.82-1.12-1.98-1.68-3.5-1.68c-1.381,0-2.541,0.5-3.521,1.521
		c-0.979,1.02-1.46,2.26-1.46,3.74c0,1.461,0.48,2.721,1.46,3.741c0.98,1.02,2.141,1.521,3.521,1.521c1.52,0,2.68-0.561,3.5-1.701
		v1.44h2.161v-14.003h-2.161V132.145z M914.923,138.027c-0.601,0.6-1.36,0.9-2.261,0.9s-1.66-0.301-2.261-0.9
		c-0.6-0.62-0.9-1.381-0.9-2.301s0.301-1.681,0.9-2.28c0.601-0.62,1.36-0.92,2.261-0.92s1.66,0.3,2.261,0.92
		c0.6,0.6,0.899,1.36,0.899,2.28S915.523,137.407,914.923,138.027z"/>
	<path fill="#FFFFFF" d="M927.661,132.406v-1.681h-2.16v10.002h2.16v-5.041c0-1.021,0.3-1.76,0.92-2.2
		c0.62-0.46,1.341-0.66,2.16-0.601v-2.34C929.241,130.546,928.201,131.166,927.661,132.406z"/>
	<path fill="#FFFFFF" d="M936.602,130.465c-1.54,0-2.82,0.5-3.801,1.521c-0.98,1-1.48,2.24-1.48,3.74c0,1.521,0.5,2.78,1.5,3.781
		c1.001,0.979,2.32,1.48,3.941,1.48c1.94,0,3.4-0.721,4.381-2.181l-1.78-1.04c-0.58,0.819-1.44,1.24-2.581,1.24
		c-1.66,0-2.881-0.841-3.2-2.361h7.961c0.061-0.38,0.08-0.68,0.08-0.899c0-1.461-0.479-2.721-1.42-3.741
		S938.062,130.465,936.602,130.465z M933.561,134.886c0.3-1.521,1.421-2.461,3.021-2.461c1.421,0,2.561,0.841,2.861,2.461H933.561z"
		/>
	<path fill="#FFFFFF" d="M946.942,134.786c-1.04-0.3-1.88-0.64-1.88-1.3c0-0.7,0.64-1.061,1.46-1.061c0.9,0,1.54,0.38,1.88,1.141
		l1.82-1.021c-0.699-1.3-2.04-2.08-3.7-2.08c-1.04,0-1.921,0.28-2.621,0.84c-0.7,0.561-1.04,1.301-1.04,2.221
		c-0.04,2.101,1.98,2.7,3.48,3.08c1.061,0.261,1.901,0.641,1.901,1.28c0,0.74-0.561,1.121-1.701,1.121c-1.14,0-1.88-0.48-2.22-1.44
		l-1.86,1.08c0.64,1.46,2.1,2.341,4.08,2.341c1.12,0,2.041-0.28,2.781-0.82s1.12-1.301,1.12-2.261
		C950.483,135.766,948.482,135.127,946.942,134.786z"/>
	<path fill="#FFFFFF" d="M958.002,130.465c-1.521,0-2.681,0.56-3.501,1.7v-1.44h-2.16v14.003h2.16v-5.421
		c0.82,1.12,1.98,1.681,3.501,1.681c1.38,0,2.54-0.501,3.521-1.521c0.98-1.021,1.46-2.261,1.46-3.741c0-1.46-0.479-2.7-1.46-3.721
		S959.382,130.465,958.002,130.465z M959.922,138.027c-0.6,0.6-1.36,0.9-2.261,0.9c-0.899,0-1.66-0.301-2.26-0.9
		c-0.601-0.62-0.9-1.381-0.9-2.301s0.3-1.681,0.9-2.28c0.6-0.62,1.36-0.92,2.26-0.92c0.9,0,1.661,0.3,2.261,0.92
		c0.601,0.6,0.9,1.36,0.9,2.28S960.523,137.407,959.922,138.027z"/>
	<path fill="#FFFFFF" d="M969.661,130.465c-1.461,0-2.721,0.5-3.741,1.521c-1.02,1.02-1.54,2.26-1.54,3.74s0.521,2.721,1.54,3.741
		c1.021,1.02,2.28,1.521,3.741,1.521c1.48,0,2.721-0.501,3.74-1.521c1.021-1.021,1.541-2.261,1.541-3.741s-0.521-2.721-1.541-3.74
		C972.382,130.965,971.142,130.465,969.661,130.465z M971.882,137.987c-0.601,0.6-1.341,0.9-2.221,0.9s-1.62-0.301-2.221-0.9
		c-0.6-0.601-0.9-1.36-0.9-2.261s0.301-1.66,0.9-2.261c0.601-0.6,1.341-0.899,2.221-0.899s1.62,0.3,2.221,0.899
		c0.6,0.601,0.899,1.36,0.899,2.261S972.482,137.386,971.882,137.987z"/>
	<path fill="#FFFFFF" d="M982.161,130.465c-1.42,0-2.44,0.52-3.101,1.54v-1.28h-2.16v10.002h2.16v-5.361
		c0-1.94,1.021-2.88,2.54-2.88c1.381,0,2.241,0.82,2.241,2.32v5.921h2.16v-6.141C986.002,132.026,984.462,130.465,982.161,130.465z"
		/>
	<path fill="#FFFFFF" d="M992.141,134.786c-1.04-0.3-1.88-0.64-1.88-1.3c0-0.7,0.64-1.061,1.46-1.061c0.9,0,1.54,0.38,1.88,1.141
		l1.82-1.021c-0.699-1.3-2.04-2.08-3.7-2.08c-1.04,0-1.921,0.28-2.621,0.84c-0.7,0.561-1.04,1.301-1.04,2.221
		c-0.04,2.101,1.98,2.7,3.48,3.08c1.061,0.261,1.901,0.641,1.901,1.28c0,0.74-0.561,1.121-1.701,1.121c-1.14,0-1.88-0.48-2.22-1.44
		l-1.86,1.08c0.64,1.46,2.1,2.341,4.08,2.341c1.12,0,2.041-0.28,2.781-0.82s1.12-1.301,1.12-2.261
		C995.682,135.766,993.681,135.127,992.141,134.786z"/>
	<rect x="997.421" y="130.725" fill="#FFFFFF" width="2.16" height="10.002"/>
	<path fill="#FFFFFF" d="M997.521,126.884c-0.54,0.54-0.54,1.38,0,1.94c0.561,0.54,1.4,0.54,1.94,0c0.56-0.561,0.56-1.4,0.02-1.94
		C998.941,126.324,998.061,126.324,997.521,126.884z"/>
	<path fill="#FFFFFF" d="M1007.741,130.465c-1.521,0-2.681,0.56-3.501,1.68v-5.421h-2.16v14.003h2.16v-1.44
		c0.82,1.141,1.98,1.701,3.501,1.701c1.38,0,2.54-0.501,3.521-1.521c0.98-1.021,1.46-2.28,1.46-3.741c0-1.48-0.479-2.721-1.46-3.74
		C1010.281,130.965,1009.121,130.465,1007.741,130.465z M1009.661,138.027c-0.6,0.6-1.36,0.9-2.261,0.9
		c-0.899,0-1.66-0.301-2.26-0.9c-0.601-0.62-0.9-1.381-0.9-2.301s0.3-1.681,0.9-2.28c0.6-0.62,1.36-0.92,2.26-0.92
		c0.9,0,1.661,0.3,2.261,0.92c0.601,0.6,0.9,1.36,0.9,2.28S1010.262,137.407,1009.661,138.027z"/>
	<path fill="#FFFFFF" d="M1014.78,126.884c-0.54,0.54-0.54,1.38,0,1.94c0.56,0.54,1.4,0.54,1.94,0c0.56-0.561,0.56-1.4,0.02-1.94
		C1016.199,126.324,1015.32,126.324,1014.78,126.884z"/>
	<rect x="1014.68" y="130.725" fill="#FFFFFF" width="2.16" height="10.002"/>
	<rect x="1019.34" y="126.125" fill="#FFFFFF" width="2.16" height="14.603"/>
	<rect x="1024" y="130.725" fill="#FFFFFF" width="2.16" height="10.002"/>
	<path fill="#FFFFFF" d="M1024.1,126.884c-0.54,0.54-0.54,1.38,0,1.94c0.56,0.54,1.4,0.54,1.94,0c0.56-0.561,0.56-1.4,0.02-1.94
		C1025.52,126.324,1024.64,126.324,1024.1,126.884z"/>
	<path fill="#FFFFFF" d="M1031.76,127.924l-2.161,0.641v2.16h-1.84v2.08h1.84v4.802c0,2.62,1.341,3.521,4.642,3.12v-1.94
		c-1.641,0.08-2.48,0.101-2.48-1.18v-4.802h2.48v-2.08h-2.48V127.924z"/>
	<path fill="#FFFFFF" d="M1043.14,130.725l-2.561,7.262l-2.98-7.262h-2.361l4.241,9.822l-0.1,0.2c-0.54,1.38-1.301,2.04-2.661,1.96
		v2.021c2.301,0.141,3.921-1.101,4.881-3.681l3.841-10.322H1043.14z"/>
	<path fill="#FFFFFF" d="M751.087,211.818c-0.22-0.181-0.561-0.381-1.021-0.561c-0.439-0.18-0.78-0.32-1.04-0.4
		c-0.24-0.1-0.62-0.22-1.16-0.399c-2.141-0.66-2.82-1.141-2.82-2.181c0-1.061,0.86-1.74,2.2-1.74c1.38,0,2.36,0.66,2.94,1.96
		l1.94-1.12c-0.9-1.921-2.641-3.081-4.881-3.081c-1.24,0-2.301,0.36-3.181,1.101c-0.88,0.72-1.32,1.7-1.32,2.94
		c0,1.261,0.46,2.181,1.36,2.821c0.94,0.62,1.601,0.88,2.94,1.28c1.181,0.359,2.021,0.699,2.48,1c0.46,0.3,0.7,0.72,0.7,1.3
		c0,1.101-0.86,1.841-2.601,1.841c-1.76,0-2.921-0.78-3.48-2.36l-1.98,1.16c0.74,2.141,2.7,3.44,5.401,3.44
		c1.48,0,2.681-0.36,3.58-1.101c0.921-0.74,1.381-1.76,1.381-3.021C752.627,213.358,751.828,212.398,751.087,211.818z"/>
	<path fill="#FFFFFF" d="M760.047,208.297c-1.521,0-2.681,0.561-3.501,1.7v-1.439h-2.16v14.003h2.16v-5.422
		c0.82,1.12,1.98,1.681,3.501,1.681c1.38,0,2.54-0.5,3.521-1.521c0.98-1.02,1.46-2.26,1.46-3.74c0-1.461-0.479-2.701-1.46-3.721
		C762.587,208.817,761.427,208.297,760.047,208.297z M761.967,215.858c-0.6,0.601-1.36,0.9-2.261,0.9c-0.899,0-1.66-0.3-2.26-0.9
		c-0.601-0.62-0.9-1.38-0.9-2.3c0-0.921,0.3-1.681,0.9-2.281c0.6-0.62,1.36-0.92,2.26-0.92c0.9,0,1.661,0.3,2.261,0.92
		c0.601,0.601,0.9,1.36,0.9,2.281C762.868,214.479,762.568,215.238,761.967,215.858z"/>
	<path fill="#FFFFFF" d="M771.707,208.297c-1.54,0-2.82,0.5-3.801,1.521c-0.98,1-1.48,2.24-1.48,3.741c0,1.52,0.5,2.78,1.5,3.78
		c1.001,0.98,2.32,1.48,3.941,1.48c1.94,0,3.4-0.72,4.381-2.181l-1.78-1.04c-0.58,0.82-1.44,1.24-2.581,1.24
		c-1.66,0-2.881-0.84-3.2-2.36h7.961c0.061-0.38,0.08-0.681,0.08-0.9c0-1.46-0.479-2.721-1.42-3.74
		C774.367,208.817,773.167,208.297,771.707,208.297z M768.666,212.718c0.3-1.52,1.421-2.46,3.021-2.46
		c1.421,0,2.561,0.84,2.861,2.46H768.666z"/>
	<path fill="#FFFFFF" d="M783.287,208.297c-1.54,0-2.82,0.5-3.801,1.521c-0.98,1-1.48,2.24-1.48,3.741c0,1.52,0.5,2.78,1.5,3.78
		c1.001,0.98,2.32,1.48,3.941,1.48c1.94,0,3.4-0.72,4.381-2.181l-1.78-1.04c-0.58,0.82-1.44,1.24-2.581,1.24
		c-1.66,0-2.881-0.84-3.2-2.36h7.961c0.061-0.38,0.08-0.681,0.08-0.9c0-1.46-0.479-2.721-1.42-3.74
		C785.947,208.817,784.747,208.297,783.287,208.297z M780.246,212.718c0.3-1.52,1.421-2.46,3.021-2.46
		c1.421,0,2.561,0.84,2.861,2.46H780.246z"/>
	<path fill="#FFFFFF" d="M798.067,209.978c-0.82-1.12-1.98-1.681-3.5-1.681c-1.381,0-2.541,0.5-3.521,1.521
		c-0.979,1.021-1.46,2.261-1.46,3.741c0,1.46,0.48,2.721,1.46,3.74c0.98,1.021,2.141,1.521,3.521,1.521c1.52,0,2.68-0.561,3.5-1.7
		v1.44h2.161v-14.003h-2.161V209.978z M797.167,215.858c-0.601,0.601-1.36,0.9-2.261,0.9s-1.66-0.3-2.261-0.9
		c-0.6-0.62-0.9-1.38-0.9-2.3c0-0.921,0.301-1.681,0.9-2.281c0.601-0.62,1.36-0.92,2.261-0.92s1.66,0.3,2.261,0.92
		c0.6,0.601,0.899,1.36,0.899,2.281C798.067,214.479,797.767,215.238,797.167,215.858z"/>
	<path fill="#FFFFFF" d="M812.466,208.297c-1.461,0-2.721,0.5-3.741,1.521c-1.02,1.021-1.54,2.261-1.54,3.741s0.521,2.721,1.54,3.74
		c1.021,1.021,2.28,1.521,3.741,1.521c1.48,0,2.721-0.5,3.74-1.521c1.021-1.02,1.541-2.26,1.541-3.74s-0.521-2.721-1.541-3.741
		C815.187,208.797,813.947,208.297,812.466,208.297z M814.687,215.818c-0.601,0.601-1.341,0.9-2.221,0.9s-1.62-0.3-2.221-0.9
		c-0.6-0.6-0.9-1.36-0.9-2.26c0-0.9,0.301-1.661,0.9-2.261c0.601-0.601,1.341-0.9,2.221-0.9s1.62,0.3,2.221,0.9
		c0.6,0.6,0.899,1.36,0.899,2.261C815.586,214.458,815.287,215.219,814.687,215.818z"/>
	<path fill="#FFFFFF" d="M820.065,208.357v0.2h-1.521v2.08h1.521v7.922h2.16v-7.922h2.36v-2.08h-2.36v-0.2
		c0-1.461,0.78-2.121,2.36-1.98v-2.081C821.625,204.116,820.065,205.616,820.065,208.357z"/>
	<polygon fill="#FFFFFF" points="840.407,215.459 838.327,208.558 836.266,208.558 834.166,215.459 832.225,208.558 
		829.945,208.558 833.085,218.56 835.206,218.56 837.306,211.818 839.386,218.56 841.507,218.56 844.648,208.558 842.368,208.558 	
		"/>
	<path fill="#FFFFFF" d="M850.566,208.297c-1.461,0-2.721,0.5-3.741,1.521c-1.02,1.021-1.54,2.261-1.54,3.741s0.521,2.721,1.54,3.74
		c1.021,1.021,2.28,1.521,3.741,1.521c1.48,0,2.721-0.5,3.74-1.521c1.021-1.02,1.541-2.26,1.541-3.74s-0.521-2.721-1.541-3.741
		C853.287,208.797,852.046,208.297,850.566,208.297z M852.787,215.818c-0.601,0.601-1.341,0.9-2.221,0.9s-1.62-0.3-2.221-0.9
		c-0.6-0.6-0.9-1.36-0.9-2.26c0-0.9,0.301-1.661,0.9-2.261c0.601-0.601,1.341-0.9,2.221-0.9s1.62,0.3,2.221,0.9
		c0.6,0.6,0.899,1.36,0.899,2.261C853.686,214.458,853.386,215.219,852.787,215.818z"/>
	<path fill="#FFFFFF" d="M859.965,210.237v-1.68h-2.16v10.002h2.16v-5.041c0-1.021,0.3-1.761,0.92-2.201
		c0.62-0.46,1.341-0.66,2.16-0.6v-2.341C861.545,208.377,860.505,208.997,859.965,210.237z"/>
	<polygon fill="#FFFFFF" points="873.327,208.558 870.686,208.558 866.805,212.979 866.805,204.557 864.645,204.557 864.645,218.56 
		866.805,218.56 866.805,213.939 870.906,218.56 873.487,218.56 868.925,213.458 	"/>
	<path fill="#FFFFFF" d="M5.161,123.724H0v14.003h2.301v-4.801h2.86c1.32,0,2.42-0.44,3.301-1.32c0.9-0.9,1.34-1.98,1.34-3.28
		c0-1.301-0.439-2.401-1.34-3.281C7.581,124.164,6.481,123.724,5.161,123.724z M5.161,130.766h-2.86v-4.882h2.86
		c1.36,0,2.341,1.021,2.341,2.441C7.502,129.745,6.521,130.766,5.161,130.766z"/>
	<path fill="#FFFFFF" d="M15.682,127.465c-1.54,0-2.82,0.5-3.801,1.521c-0.98,1-1.48,2.24-1.48,3.74c0,1.521,0.5,2.78,1.5,3.781
		c1,0.979,2.32,1.48,3.941,1.48c1.94,0,3.4-0.721,4.381-2.181l-1.78-1.04c-0.58,0.819-1.44,1.24-2.581,1.24
		c-1.66,0-2.881-0.841-3.2-2.361h7.961c0.061-0.38,0.08-0.68,0.08-0.899c0-1.461-0.479-2.721-1.42-3.741
		C18.342,127.984,17.142,127.465,15.682,127.465z M12.641,131.886c0.3-1.521,1.421-2.461,3.021-2.461
		c1.421,0,2.561,0.841,2.861,2.461H12.641z"/>
	<path fill="#FFFFFF" d="M24.761,129.405v-1.681h-2.16v10.002h2.16v-5.041c0-1.021,0.3-1.76,0.92-2.2
		c0.62-0.46,1.341-0.66,2.16-0.601v-2.34C26.341,127.545,25.301,128.165,24.761,129.405z"/>
	<path fill="#FFFFFF" d="M32.5,136.007c-1.14,0-1.88-0.48-2.22-1.44l-1.86,1.08c0.64,1.46,2.1,2.341,4.08,2.341
		c1.12,0,2.041-0.28,2.781-0.82s1.12-1.301,1.12-2.261c0.04-2.141-1.961-2.78-3.501-3.121c-1.04-0.3-1.881-0.64-1.881-1.3
		c0-0.7,0.641-1.061,1.461-1.061c0.9,0,1.54,0.38,1.88,1.141l1.82-1.021c-0.699-1.3-2.04-2.08-3.7-2.08
		c-1.04,0-1.921,0.28-2.621,0.84c-0.7,0.561-1.04,1.301-1.04,2.221c-0.04,2.101,1.98,2.7,3.481,3.08c1.06,0.261,1.9,0.641,1.9,1.28
		C34.201,135.626,33.641,136.007,32.5,136.007z"/>
	<path fill="#FFFFFF" d="M40.221,125.824c0.56-0.561,0.56-1.4,0.02-1.94c-0.54-0.561-1.42-0.561-1.96,0c-0.54,0.54-0.54,1.38,0,1.94
		C38.84,126.364,39.681,126.364,40.221,125.824z"/>
	<rect x="38.181" y="127.725" fill="#FFFFFF" width="2.16" height="10.002"/>
	<path fill="#FFFFFF" d="M50.102,134.906c0.04-2.141-1.961-2.78-3.501-3.121c-1.04-0.3-1.88-0.64-1.88-1.3
		c0-0.7,0.64-1.061,1.46-1.061c0.9,0,1.54,0.38,1.88,1.141l1.82-1.021c-0.699-1.3-2.04-2.08-3.7-2.08c-1.04,0-1.921,0.28-2.621,0.84
		c-0.7,0.561-1.04,1.301-1.04,2.221c-0.04,2.101,1.98,2.7,3.48,3.08c1.061,0.261,1.901,0.641,1.901,1.28
		c0,0.74-0.561,1.121-1.701,1.121c-1.14,0-1.88-0.48-2.22-1.44l-1.86,1.08c0.64,1.46,2.1,2.341,4.08,2.341
		c1.12,0,2.041-0.28,2.781-0.82S50.102,135.866,50.102,134.906z"/>
	<path fill="#FFFFFF" d="M54.701,124.924l-2.161,0.641v2.16H50.7v2.08h1.84v4.802c0,2.62,1.341,3.521,4.642,3.12v-1.94
		c-1.641,0.08-2.48,0.101-2.48-1.18v-4.802h2.48v-2.08h-2.48V124.924z"/>
	<path fill="#FFFFFF" d="M63.621,137.987c1.94,0,3.4-0.721,4.381-2.181l-1.78-1.04c-0.58,0.819-1.44,1.24-2.581,1.24
		c-1.66,0-2.881-0.841-3.2-2.361h7.961c0.061-0.38,0.08-0.68,0.08-0.899c0-1.461-0.479-2.721-1.42-3.741
		c-0.94-1.021-2.141-1.54-3.601-1.54c-1.54,0-2.82,0.5-3.801,1.521c-0.98,1-1.48,2.24-1.48,3.74c0,1.521,0.5,2.78,1.5,3.781
		C60.68,137.486,62,137.987,63.621,137.987z M63.44,129.425c1.421,0,2.561,0.841,2.861,2.461H60.42
		C60.72,130.365,61.841,129.425,63.44,129.425z"/>
	<path fill="#FFFFFF" d="M72.54,132.365c0-1.94,1.021-2.88,2.54-2.88c1.381,0,2.241,0.82,2.241,2.32v5.921h2.16v-6.141
		c0-2.561-1.54-4.121-3.841-4.121c-1.42,0-2.44,0.52-3.101,1.54v-1.28h-2.16v10.002h2.16V132.365z"/>
	<path fill="#FFFFFF" d="M86.521,137.987c1.94,0,3.641-1.001,4.501-2.601l-1.86-1.061c-0.48,0.94-1.48,1.54-2.661,1.54
		c-0.88,0-1.62-0.3-2.22-0.9c-0.58-0.6-0.881-1.34-0.881-2.24s0.301-1.641,0.881-2.24c0.6-0.601,1.34-0.9,2.22-0.9
		c1.2,0,2.161,0.58,2.621,1.54l1.86-1.08c-0.801-1.58-2.521-2.58-4.461-2.58c-1.501,0-2.761,0.5-3.781,1.521c-1,1-1.5,2.24-1.5,3.74
		c0,1.48,0.5,2.721,1.5,3.741C83.76,137.486,85.02,137.987,86.521,137.987z"/>
	<path fill="#FFFFFF" d="M101.682,135.807l-1.78-1.04c-0.58,0.819-1.44,1.24-2.581,1.24c-1.66,0-2.881-0.841-3.2-2.361h7.961
		c0.061-0.38,0.08-0.68,0.08-0.899c0-1.461-0.479-2.721-1.42-3.741c-0.94-1.021-2.141-1.54-3.601-1.54c-1.54,0-2.82,0.5-3.801,1.521
		c-0.98,1-1.48,2.24-1.48,3.74c0,1.521,0.5,2.78,1.5,3.781c1,0.979,2.32,1.48,3.941,1.48
		C99.241,137.987,100.701,137.267,101.682,135.807z M97.12,129.425c1.421,0,2.561,0.841,2.861,2.461H94.1
		C94.399,130.365,95.521,129.425,97.12,129.425z"/>
	<path fill="#FFFFFF" d="M111.1,125.824c0.56-0.561,0.56-1.4,0.02-1.94c-0.54-0.561-1.42-0.561-1.96,0c-0.54,0.54-0.54,1.38,0,1.94
		C109.719,126.364,110.56,126.364,111.1,125.824z"/>
	<rect x="109.06" y="127.725" fill="#FFFFFF" width="2.16" height="10.002"/>
	<path fill="#FFFFFF" d="M122.821,137.727v-6.141c0-2.561-1.54-4.121-3.841-4.121c-1.42,0-2.44,0.52-3.101,1.54v-1.28h-2.16v10.002
		h2.16v-5.361c0-1.94,1.021-2.88,2.54-2.88c1.381,0,2.241,0.82,2.241,2.32v5.921H122.821z"/>
	<rect x="130.14" y="123.124" fill="#FFFFFF" width="2.16" height="14.603"/>
	<path fill="#FFFFFF" d="M139.681,137.987c1.94,0,3.4-0.721,4.381-2.181l-1.78-1.04c-0.58,0.819-1.44,1.24-2.581,1.24
		c-1.66,0-2.881-0.841-3.2-2.361h7.961c0.061-0.38,0.08-0.68,0.08-0.899c0-1.461-0.479-2.721-1.42-3.741
		c-0.94-1.021-2.141-1.54-3.601-1.54c-1.54,0-2.82,0.5-3.801,1.521c-0.98,1-1.48,2.24-1.48,3.74c0,1.521,0.5,2.78,1.5,3.781
		C136.74,137.486,138.06,137.987,139.681,137.987z M139.5,129.425c1.421,0,2.561,0.841,2.861,2.461h-5.882
		C136.779,130.365,137.9,129.425,139.5,129.425z"/>
	<path fill="#FFFFFF" d="M154.3,136.286v1.44h2.161v-10.002H154.3v1.42c-0.82-1.12-1.98-1.68-3.5-1.68
		c-1.381,0-2.541,0.5-3.521,1.521c-0.979,1.02-1.46,2.26-1.46,3.74c0,1.461,0.48,2.721,1.46,3.741
		c0.98,1.02,2.141,1.521,3.521,1.521C152.319,137.987,153.479,137.427,154.3,136.286z M151.14,135.927c-0.9,0-1.66-0.301-2.261-0.9
		c-0.6-0.62-0.9-1.381-0.9-2.301s0.301-1.681,0.9-2.28c0.601-0.62,1.36-0.92,2.261-0.92s1.66,0.3,2.261,0.92
		c0.6,0.6,0.899,1.36,0.899,2.28s-0.3,1.681-0.899,2.301C152.8,135.626,152.04,135.927,151.14,135.927z"/>
	<path fill="#FFFFFF" d="M161.14,132.686c0-1.021,0.3-1.76,0.92-2.2c0.62-0.46,1.341-0.66,2.16-0.601v-2.34
		c-1.5,0-2.54,0.62-3.08,1.86v-1.681h-2.16v10.002h2.16V132.686z"/>
	<path fill="#FFFFFF" d="M171.08,127.465c-1.42,0-2.44,0.52-3.101,1.54v-1.28h-2.16v10.002h2.16v-5.361c0-1.94,1.021-2.88,2.54-2.88
		c1.381,0,2.241,0.82,2.241,2.32v5.921h2.16v-6.141C174.921,129.025,173.381,127.465,171.08,127.465z"/>
	<rect x="177.239" y="127.725" fill="#FFFFFF" width="2.16" height="10.002"/>
	<path fill="#FFFFFF" d="M179.299,123.884c-0.54-0.561-1.42-0.561-1.96,0c-0.54,0.54-0.54,1.38,0,1.94c0.56,0.54,1.4,0.54,1.94,0
		C179.839,125.264,179.839,124.424,179.299,123.884z"/>
	<path fill="#FFFFFF" d="M184.059,129.005v-1.28h-2.16v10.002h2.16v-5.361c0-1.94,1.021-2.88,2.54-2.88
		c1.381,0,2.241,0.82,2.241,2.32v5.921H191v-6.141c0-2.561-1.54-4.121-3.841-4.121C185.739,127.465,184.719,127.984,184.059,129.005
		z"/>
	<path fill="#FFFFFF" d="M194.218,128.985c-0.979,1-1.46,2.22-1.46,3.641c0,1.42,0.48,2.641,1.46,3.66
		c0.98,1.001,2.161,1.501,3.581,1.501c1.5,0,2.66-0.58,3.48-1.74v1.22c0,1.74-1.12,2.761-2.98,2.761c-1.42,0-2.4-0.521-2.921-1.54
		l-1.86,1.08c0.86,1.62,2.44,2.42,4.741,2.42c1.421,0,2.641-0.399,3.641-1.22c1.001-0.82,1.501-1.98,1.501-3.501v-9.542h-2.121v1.48
		c-0.82-1.16-1.98-1.74-3.48-1.74C196.379,127.465,195.198,127.965,194.218,128.985z M200.359,130.385
		c0.62,0.601,0.92,1.341,0.92,2.241s-0.3,1.64-0.92,2.24c-0.601,0.601-1.36,0.9-2.261,0.9s-1.66-0.3-2.28-0.9
		c-0.6-0.601-0.9-1.34-0.9-2.24s0.301-1.641,0.9-2.241c0.62-0.6,1.38-0.899,2.28-0.899S199.759,129.785,200.359,130.385z"/>
	<path fill="#FFFFFF" d="M34.174,203.714h-5.161v14.003h2.301v-4.801h2.86c1.32,0,2.42-0.44,3.301-1.32
		c0.9-0.9,1.34-1.98,1.34-3.281c0-1.3-0.439-2.4-1.34-3.28C36.594,204.153,35.494,203.714,34.174,203.714z M34.174,210.755h-2.86
		v-4.881h2.86c1.36,0,2.341,1.021,2.341,2.44S35.534,210.755,34.174,210.755z"/>
	<path fill="#FFFFFF" d="M42.633,209.395v-1.68h-2.16v10.002h2.16v-5.041c0-1.021,0.3-1.761,0.92-2.201
		c0.62-0.46,1.341-0.66,2.16-0.6v-2.341C44.213,207.534,43.173,208.154,42.633,209.395z"/>
	<path fill="#FFFFFF" d="M51.574,207.454c-1.461,0-2.721,0.5-3.741,1.521c-1.02,1.021-1.54,2.261-1.54,3.741s0.521,2.721,1.54,3.74
		c1.021,1.021,2.28,1.521,3.741,1.521c1.48,0,2.721-0.5,3.74-1.521c1.021-1.02,1.541-2.26,1.541-3.74s-0.521-2.721-1.541-3.741
		C54.295,207.954,53.055,207.454,51.574,207.454z M53.795,214.976c-0.601,0.601-1.341,0.9-2.221,0.9s-1.62-0.3-2.221-0.9
		c-0.6-0.6-0.9-1.36-0.9-2.26c0-0.9,0.301-1.661,0.9-2.261c0.601-0.601,1.341-0.9,2.221-0.9s1.62,0.3,2.221,0.9
		c0.6,0.6,0.899,1.36,0.899,2.261C54.694,213.615,54.395,214.376,53.795,214.976z"/>
	<path fill="#FFFFFF" d="M59.173,207.515v0.2h-1.521v2.08h1.521v7.922h2.16v-7.922h2.36v-2.08h-2.36v-0.2
		c0-1.461,0.78-2.121,2.36-1.98v-2.081C60.733,203.273,59.173,204.773,59.173,207.515z"/>
	<path fill="#FFFFFF" d="M69.214,207.454c-1.54,0-2.82,0.5-3.801,1.521c-0.98,1-1.48,2.24-1.48,3.741c0,1.52,0.5,2.78,1.5,3.78
		c1.001,0.98,2.32,1.48,3.941,1.48c1.94,0,3.4-0.72,4.381-2.181l-1.78-1.04c-0.58,0.82-1.44,1.24-2.581,1.24
		c-1.66,0-2.881-0.84-3.2-2.36h7.961c0.061-0.38,0.08-0.681,0.08-0.9c0-1.46-0.479-2.721-1.42-3.74
		C71.874,207.975,70.674,207.454,69.214,207.454z M66.173,211.875c0.3-1.52,1.421-2.46,3.021-2.46c1.421,0,2.561,0.84,2.861,2.46
		H66.173z"/>
	<path fill="#FFFFFF" d="M79.554,211.775c-1.04-0.3-1.88-0.641-1.88-1.301c0-0.7,0.64-1.06,1.46-1.06c0.9,0,1.54,0.38,1.88,1.14
		l1.82-1.02c-0.699-1.301-2.04-2.081-3.7-2.081c-1.04,0-1.921,0.28-2.621,0.841c-0.7,0.56-1.04,1.3-1.04,2.22
		c-0.04,2.101,1.98,2.701,3.48,3.081c1.061,0.26,1.901,0.64,1.901,1.28c0,0.74-0.561,1.12-1.701,1.12c-1.14,0-1.88-0.48-2.22-1.44
		l-1.86,1.08c0.64,1.461,2.1,2.341,4.08,2.341c1.12,0,2.041-0.28,2.781-0.82s1.12-1.3,1.12-2.261
		C83.095,212.756,81.094,212.115,79.554,211.775z"/>
	<path fill="#FFFFFF" d="M88.174,211.775c-1.04-0.3-1.881-0.641-1.881-1.301c0-0.7,0.641-1.06,1.461-1.06c0.9,0,1.54,0.38,1.88,1.14
		l1.82-1.02c-0.699-1.301-2.04-2.081-3.7-2.081c-1.04,0-1.921,0.28-2.621,0.841c-0.7,0.56-1.04,1.3-1.04,2.22
		c-0.04,2.101,1.98,2.701,3.481,3.081c1.06,0.26,1.9,0.64,1.9,1.28c0,0.74-0.561,1.12-1.701,1.12c-1.14,0-1.88-0.48-2.22-1.44
		l-1.86,1.08c0.64,1.461,2.1,2.341,4.08,2.341c1.12,0,2.041-0.28,2.781-0.82s1.12-1.3,1.12-2.261
		C91.715,212.756,89.714,212.115,88.174,211.775z"/>
	<path fill="#FFFFFF" d="M93.553,203.874c-0.54,0.54-0.54,1.38,0,1.94c0.561,0.54,1.4,0.54,1.94,0c0.56-0.561,0.56-1.4,0.02-1.94
		C94.973,203.314,94.093,203.314,93.553,203.874z"/>
	<rect x="93.453" y="207.715" fill="#FFFFFF" width="2.16" height="10.002"/>
	<path fill="#FFFFFF" d="M102.834,207.454c-1.461,0-2.721,0.5-3.741,1.521c-1.02,1.021-1.54,2.261-1.54,3.741s0.521,2.721,1.54,3.74
		c1.021,1.021,2.28,1.521,3.741,1.521c1.48,0,2.721-0.5,3.74-1.521c1.021-1.02,1.541-2.26,1.541-3.74s-0.521-2.721-1.541-3.741
		C105.555,207.954,104.314,207.454,102.834,207.454z M105.055,214.976c-0.601,0.601-1.341,0.9-2.221,0.9s-1.62-0.3-2.221-0.9
		c-0.6-0.6-0.9-1.36-0.9-2.26c0-0.9,0.301-1.661,0.9-2.261c0.601-0.601,1.341-0.9,2.221-0.9s1.62,0.3,2.221,0.9
		c0.6,0.6,0.899,1.36,0.899,2.261C105.954,213.615,105.654,214.376,105.055,214.976z"/>
	<path fill="#FFFFFF" d="M115.333,207.454c-1.42,0-2.44,0.521-3.101,1.541v-1.28h-2.16v10.002h2.16v-5.361
		c0-1.94,1.021-2.881,2.54-2.881c1.381,0,2.241,0.82,2.241,2.32v5.922h2.16v-6.142C119.174,209.015,117.634,207.454,115.333,207.454
		z"/>
	<path fill="#FFFFFF" d="M129.414,209.135c-0.82-1.12-1.98-1.681-3.5-1.681c-1.381,0-2.541,0.5-3.521,1.521
		c-0.979,1.021-1.46,2.261-1.46,3.741c0,1.46,0.48,2.721,1.46,3.74c0.98,1.021,2.141,1.521,3.521,1.521c1.52,0,2.68-0.561,3.5-1.7
		v1.44h2.161v-10.002h-2.161V209.135z M128.515,215.016c-0.601,0.601-1.36,0.9-2.261,0.9s-1.66-0.3-2.261-0.9
		c-0.6-0.62-0.9-1.38-0.9-2.3c0-0.921,0.301-1.681,0.9-2.281c0.601-0.62,1.36-0.92,2.261-0.92s1.66,0.3,2.261,0.92
		c0.6,0.601,0.899,1.36,0.899,2.281C129.414,213.636,129.114,214.396,128.515,215.016z"/>
	<rect x="134.093" y="203.113" fill="#FFFFFF" width="2.16" height="14.604"/>
	<rect x="138.752" y="207.715" fill="#FFFFFF" width="2.16" height="10.002"/>
	<path fill="#FFFFFF" d="M138.852,203.874c-0.54,0.54-0.54,1.38,0,1.94c0.561,0.54,1.4,0.54,1.94,0c0.56-0.561,0.56-1.4,0.02-1.94
		C140.271,203.314,139.392,203.314,138.852,203.874z"/>
	<path fill="#FFFFFF" d="M147.173,211.775c-1.04-0.3-1.88-0.641-1.88-1.301c0-0.7,0.64-1.06,1.46-1.06c0.9,0,1.54,0.38,1.88,1.14
		l1.82-1.02c-0.699-1.301-2.04-2.081-3.7-2.081c-1.04,0-1.921,0.28-2.621,0.841c-0.7,0.56-1.04,1.3-1.04,2.22
		c-0.04,2.101,1.98,2.701,3.48,3.081c1.061,0.26,1.901,0.64,1.901,1.28c0,0.74-0.561,1.12-1.701,1.12c-1.14,0-1.88-0.48-2.22-1.44
		l-1.86,1.08c0.64,1.461,2.1,2.341,4.08,2.341c1.12,0,2.041-0.28,2.781-0.82s1.12-1.3,1.12-2.261
		C150.714,212.756,148.713,212.115,147.173,211.775z"/>
	<path fill="#FFFFFF" d="M163.494,207.454c-1.38,0-2.4,0.521-3.061,1.581c-0.62-1.061-1.561-1.581-2.841-1.581
		c-1.26,0-2.221,0.48-2.86,1.461v-1.2h-2.16v10.002h2.16v-5.602c0-1.74,0.92-2.641,2.221-2.641c1.2,0,1.88,0.801,1.88,2.181v6.062
		h2.16v-5.602c0-1.76,0.841-2.641,2.181-2.641c1.2,0,1.94,0.801,1.94,2.181v6.062h2.161v-6.201
		C167.275,209.035,165.755,207.454,163.494,207.454z"/>
</g>
</svg>
