<svg xmlns="http://www.w3.org/2000/svg" width="29" height="28.594" viewBox="0 0 29 28.594">
  <metadata><?xpacket begin="﻿" id="W5M0MpCehiHzreSzNTczkc9d"?>
<x:xmpmeta xmlns:x="adobe:ns:meta/" x:xmptk="Adobe XMP Core 5.6-c140 79.160451, 2017/05/06-01:08:21        ">
   <rdf:RDF xmlns:rdf="http://www.w3.org/1999/02/22-rdf-syntax-ns#">
      <rdf:Description rdf:about=""/>
   </rdf:RDF>
</x:xmpmeta>
                                                                                                    
                                                                                                    
                                                                                                    
                                                                                                    
                                                                                                    
                                                                                                    
                                                                                                    
                                                                                                    
                                                                                                    
                                                                                                    
                                                                                                    
                                                                                                    
                                                                                                    
                                                                                                    
                                                                                                    
                                                                                                    
                                                                                                    
                                                                                                    
                                                                                                    
                                                                                                    
                           
<?xpacket end="w"?></metadata>
<defs>
    <style>
      .cls-1 {
        fill: #ec912e;
        fill-rule: evenodd;
      }
    </style>
  </defs>
  <path id="I" class="cls-1" d="M384.5,570.562a2.886,2.886,0,0,0,2.9-2.861,2.824,2.824,0,0,0-.55-1.669,2.918,2.918,0,0,0-4.707,0,2.82,2.82,0,0,0-.548,1.668A2.885,2.885,0,0,0,384.5,570.562Zm6.337-6.362v-2.756h-0.365l-2.431.007,0.01,2.757ZM384.5,553.406A14.3,14.3,0,1,0,399,567.7,14.412,14.412,0,0,0,384.5,553.406Zm8.244,12.626v6.657a3.167,3.167,0,0,1-3.186,3.142H379.441a3.167,3.167,0,0,1-3.186-3.142v-9.976a3.167,3.167,0,0,1,3.186-3.142h10.115a3.168,3.168,0,0,1,3.187,3.142v3.319Zm-3.735,1.669a4.509,4.509,0,0,1-9.018,0,4.359,4.359,0,0,1,.332-1.669h-2.461v6.657a1.569,1.569,0,0,0,1.58,1.557h10.115a1.569,1.569,0,0,0,1.58-1.557v-6.657h-2.462A4.36,4.36,0,0,1,389.008,567.7Z" transform="translate(-370 -553.406)"/>
</svg>
